<svg width="68" height="40" viewBox="0 0 68 40" fill="none" xmlns="http://www.w3.org/2000/svg">
<rect width="68" height="40" rx="5" fill="white" fill-opacity="0.1"/>
<path d="M27.3465 27.1327C27.4295 27.26 27.4766 27.4074 27.4828 27.5593C27.489 27.7111 27.4541 27.8618 27.3817 27.9955C27.3093 28.1291 27.2021 28.2407 27.0716 28.3185C26.941 28.3963 26.7918 28.4374 26.6399 28.4374H11.079C10.927 28.4374 10.7779 28.3963 10.6473 28.3185C10.5167 28.2407 10.4096 28.1291 10.3372 27.9955C10.2648 27.8618 10.2299 27.7111 10.2361 27.5593C10.2422 27.4074 10.2893 27.26 10.3724 27.1327C11.56 25.3046 13.307 23.9094 15.3526 23.1555C14.2218 22.4027 13.3632 21.3059 12.9039 20.0274C12.4446 18.7488 12.409 17.3564 12.8022 16.0561C13.1955 14.7557 13.9968 13.6165 15.0876 12.8067C16.1785 11.997 17.5009 11.5598 18.8594 11.5598C20.2179 11.5598 21.5404 11.997 22.6312 12.8067C23.7221 13.6165 24.5234 14.7557 24.9166 16.0561C25.3099 17.3564 25.2742 18.7488 24.8149 20.0274C24.3556 21.3059 23.4971 22.4027 22.3663 23.1555C24.4118 23.9094 26.1588 25.3046 27.3465 27.1327ZM36.6183 27.1169C35.4303 25.2964 33.6872 23.9073 31.6475 23.1555C32.9825 22.2562 33.9247 20.882 34.2822 19.3126C34.6397 17.7432 34.3857 16.0965 33.5719 14.7077C32.7581 13.3189 31.4457 12.2925 29.9017 11.8373C28.3578 11.3821 26.6984 11.5323 25.2614 12.2574C25.2064 12.2858 25.1584 12.3259 25.1207 12.3749C25.0829 12.4239 25.0564 12.4806 25.0431 12.541C25.0297 12.6014 25.0297 12.6639 25.0432 12.7243C25.0567 12.7846 25.0833 12.8413 25.1211 12.8902C26.1897 14.2232 26.8034 15.8632 26.8723 17.5702C26.9412 19.2772 26.4616 20.9614 25.504 22.3761C25.4421 22.4685 25.4192 22.5817 25.4403 22.6909C25.4615 22.8002 25.5249 22.8966 25.6168 22.9593C26.8654 23.8308 27.9344 24.9348 28.7651 26.2109C29.1001 26.724 29.2369 27.3414 29.15 27.948C29.1402 28.0083 29.1437 28.0701 29.1601 28.129C29.1766 28.1878 29.2056 28.2424 29.2452 28.289C29.2848 28.3355 29.3341 28.3729 29.3896 28.3985C29.4451 28.4241 29.5055 28.4374 29.5666 28.4374H35.9264C36.1122 28.4374 36.2928 28.3762 36.4402 28.2631C36.5876 28.15 36.6936 27.9914 36.7417 27.812C36.771 27.6939 36.7752 27.571 36.7539 27.4513C36.7326 27.3316 36.6864 27.2176 36.6183 27.1169Z" fill="white"/>
<path d="M55.375 20C55.375 20.1658 55.3059 20.3247 55.1828 20.4419C55.0597 20.5592 54.8928 20.625 54.7188 20.625H40.2812C40.1072 20.625 39.9403 20.5592 39.8172 20.4419C39.6941 20.3247 39.625 20.1658 39.625 20C39.625 19.8342 39.6941 19.6753 39.8172 19.5581C39.9403 19.4408 40.1072 19.375 40.2812 19.375H54.7188C54.8928 19.375 55.0597 19.4408 55.1828 19.5581C55.3059 19.6753 55.375 19.8342 55.375 20ZM40.2812 15.625H54.7188C54.8928 15.625 55.0597 15.5592 55.1828 15.4419C55.3059 15.3247 55.375 15.1658 55.375 15C55.375 14.8342 55.3059 14.6753 55.1828 14.5581C55.0597 14.4408 54.8928 14.375 54.7188 14.375H40.2812C40.1072 14.375 39.9403 14.4408 39.8172 14.5581C39.6941 14.6753 39.625 14.8342 39.625 15C39.625 15.1658 39.6941 15.3247 39.8172 15.4419C39.9403 15.5592 40.1072 15.625 40.2812 15.625ZM54.7188 24.375H40.2812C40.1072 24.375 39.9403 24.4408 39.8172 24.5581C39.6941 24.6753 39.625 24.8342 39.625 25C39.625 25.1658 39.6941 25.3247 39.8172 25.4419C39.9403 25.5592 40.1072 25.625 40.2812 25.625H54.7188C54.8928 25.625 55.0597 25.5592 55.1828 25.4419C55.3059 25.3247 55.375 25.1658 55.375 25C55.375 24.8342 55.3059 24.6753 55.1828 24.5581C55.0597 24.4408 54.8928 24.375 54.7188 24.375Z" fill="white"/>
</svg>
