<svg width="42" height="40" viewBox="0 0 42 40" fill="none" xmlns="http://www.w3.org/2000/svg">
<rect width="42" height="40" rx="5" fill="white" fill-opacity="0.1"/>
<path d="M29.0489 20.4865L22.8614 26.674C22.7653 26.7702 22.6427 26.8358 22.5093 26.8624C22.3758 26.8889 22.2375 26.8753 22.1118 26.8232C21.9861 26.7712 21.8787 26.683 21.8032 26.5698C21.7277 26.4566 21.6874 26.3236 21.6875 26.1876V20.6876H13.4375C13.2552 20.6876 13.0803 20.6151 12.9514 20.4862C12.8224 20.3573 12.75 20.1824 12.75 20.0001C12.75 19.8177 12.8224 19.6428 12.9514 19.5139C13.0803 19.385 13.2552 19.3126 13.4375 19.3126H21.6875V13.8126C21.6874 13.6765 21.7277 13.5435 21.8032 13.4303C21.8787 13.3172 21.9861 13.229 22.1118 13.1769C22.2375 13.1248 22.3758 13.1112 22.5093 13.1378C22.6427 13.1643 22.7653 13.2299 22.8614 13.3261L29.0489 19.5136C29.1128 19.5775 29.1635 19.6533 29.1981 19.7368C29.2327 19.8202 29.2505 19.9097 29.2505 20.0001C29.2505 20.0904 29.2327 20.1799 29.1981 20.2633C29.1635 20.3468 29.1128 20.4226 29.0489 20.4865Z" fill="white"/>
</svg>
