<svg width="42" height="40" viewBox="0 0 42 40" fill="none" xmlns="http://www.w3.org/2000/svg">
<rect width="42" height="40" rx="5" fill="white" fill-opacity="0.1"/>
<path d="M12.9511 19.5135L19.1386 13.326C19.2347 13.2298 19.3573 13.1642 19.4907 13.1376C19.6242 13.1111 19.7625 13.1247 19.8882 13.1768C20.0139 13.2288 20.1213 13.317 20.1968 13.4302C20.2723 13.5434 20.3126 13.6764 20.3125 13.8124L20.3125 19.3124L28.5625 19.3124C28.7448 19.3124 28.9197 19.3849 29.0486 19.5138C29.1776 19.6427 29.25 19.8176 29.25 19.9999C29.25 20.1823 29.1776 20.3572 29.0486 20.4861C28.9197 20.615 28.7448 20.6874 28.5625 20.6874L20.3125 20.6874L20.3125 26.1874C20.3126 26.3235 20.2723 26.4565 20.1968 26.5697C20.1213 26.6828 20.0139 26.771 19.8882 26.8231C19.7625 26.8752 19.6242 26.8888 19.4907 26.8622C19.3573 26.8357 19.2347 26.7701 19.1386 26.6739L12.9511 20.4864C12.8872 20.4225 12.8365 20.3467 12.8019 20.2632C12.7673 20.1798 12.7495 20.0903 12.7495 19.9999C12.7495 19.9096 12.7673 19.8201 12.8019 19.7367C12.8365 19.6532 12.8872 19.5774 12.9511 19.5135Z" fill="white"/>
</svg>
