<svg width="20" height="20" viewBox="0 0 20 20" fill="none" xmlns="http://www.w3.org/2000/svg">
    <g clip-path="url(#clip0_4305_8)">
        <path d="M19.1666 13.3336C18.9456 13.3336 18.7336 13.4214 18.5773 13.5777C18.421 13.7339 18.3332 13.9459 18.3332 14.1669V15.8336C18.3332 16.4966 18.0699 17.1325 17.601 17.6013C17.1322 18.0702 16.4963 18.3336 15.8332 18.3336H14.1666C13.9456 18.3336 13.7336 18.4214 13.5773 18.5777C13.421 18.7339 13.3333 18.9459 13.3333 19.1669C13.3333 19.3879 13.421 19.5999 13.5773 19.7562C13.7336 19.9124 13.9456 20.0002 14.1666 20.0002H15.8332C16.9379 19.9989 17.9969 19.5595 18.7781 18.7784C19.5592 17.9973 19.9986 16.9382 19.9999 15.8336V14.1669C19.9999 13.9459 19.9121 13.7339 19.7558 13.5777C19.5995 13.4214 19.3876 13.3336 19.1666 13.3336Z"
              fill="#2F353D"/>
        <path d="M0.833333 6.66667C1.05435 6.66667 1.26631 6.57887 1.42259 6.42259C1.57887 6.26631 1.66667 6.05435 1.66667 5.83333V4.16667C1.66667 3.50363 1.93006 2.86774 2.3989 2.3989C2.86774 1.93006 3.50363 1.66667 4.16667 1.66667H5.83333C6.05435 1.66667 6.26631 1.57887 6.42259 1.42259C6.57887 1.26631 6.66667 1.05435 6.66667 0.833333C6.66667 0.61232 6.57887 0.400358 6.42259 0.244078C6.26631 0.0877974 6.05435 0 5.83333 0L4.16667 0C3.062 0.00132321 2.00296 0.440735 1.22185 1.22185C0.440735 2.00296 0.00132321 3.062 0 4.16667L0 5.83333C0 6.05435 0.0877974 6.26631 0.244078 6.42259C0.400358 6.57887 0.61232 6.66667 0.833333 6.66667Z"
              fill="#2F353D"/>
        <path d="M5.83333 18.3336H4.16667C3.50363 18.3336 2.86774 18.0702 2.3989 17.6013C1.93006 17.1325 1.66667 16.4966 1.66667 15.8336V14.1669C1.66667 13.9459 1.57887 13.7339 1.42259 13.5777C1.26631 13.4214 1.05435 13.3336 0.833333 13.3336C0.61232 13.3336 0.400358 13.4214 0.244078 13.5777C0.0877974 13.7339 0 13.9459 0 14.1669L0 15.8336C0.00132321 16.9382 0.440735 17.9973 1.22185 18.7784C2.00296 19.5595 3.062 19.9989 4.16667 20.0002H5.83333C6.05435 20.0002 6.26631 19.9124 6.42259 19.7562C6.57887 19.5999 6.66667 19.3879 6.66667 19.1669C6.66667 18.9459 6.57887 18.7339 6.42259 18.5777C6.26631 18.4214 6.05435 18.3336 5.83333 18.3336Z"
              fill="#2F353D"/>
        <path d="M15.8332 0H14.1666C13.9456 0 13.7336 0.0877974 13.5773 0.244078C13.421 0.400358 13.3333 0.61232 13.3333 0.833333C13.3333 1.05435 13.421 1.26631 13.5773 1.42259C13.7336 1.57887 13.9456 1.66667 14.1666 1.66667H15.8332C16.4963 1.66667 17.1322 1.93006 17.601 2.3989C18.0699 2.86774 18.3332 3.50363 18.3332 4.16667V5.83333C18.3332 6.05435 18.421 6.26631 18.5773 6.42259C18.7336 6.57887 18.9456 6.66667 19.1666 6.66667C19.3876 6.66667 19.5995 6.57887 19.7558 6.42259C19.9121 6.26631 19.9999 6.05435 19.9999 5.83333V4.16667C19.9986 3.062 19.5592 2.00296 18.7781 1.22185C17.9969 0.440735 16.9379 0.00132321 15.8332 0V0Z"
              fill="#2F353D"/>
        <path d="M10.0001 9.16667C11.841 9.16667 13.3334 7.67428 13.3334 5.83333C13.3334 3.99238 11.841 2.5 10.0001 2.5C8.15913 2.5 6.66675 3.99238 6.66675 5.83333C6.66675 7.67428 8.15913 9.16667 10.0001 9.16667Z"
              fill="#2F353D"/>
        <path d="M9.16675 10.8336C7.84107 10.8349 6.57007 11.3621 5.63268 12.2995C4.69528 13.2369 4.16807 14.5079 4.16675 15.8336C4.16675 16.0546 4.25455 16.2666 4.41083 16.4228C4.56711 16.5791 4.77907 16.6669 5.00008 16.6669H15.0001C15.2211 16.6669 15.4331 16.5791 15.5893 16.4228C15.7456 16.2666 15.8334 16.0546 15.8334 15.8336C15.8321 14.5079 15.3049 13.2369 14.3675 12.2995C13.4301 11.3621 12.1591 10.8349 10.8334 10.8336H9.16675Z"
              fill="#2F353D"/>
    </g>
    <defs>
        <clipPath id="clip0_4305_8">
            <rect width="20" height="20" fill="white"/>
        </clipPath>
    </defs>
</svg>