<svg width="18" height="18" viewBox="0 0 18 18" fill="none" xmlns="http://www.w3.org/2000/svg">
<g clip-path="url(#clip0_1722_10399)">
<path d="M14.0139 2.88891H13.2347C13.0703 2.08949 12.6353 1.37119 12.0031 0.855081C11.3709 0.33897 10.58 0.0566028 9.76388 0.0555725L8.34721 0.0555725C7.53106 0.0566028 6.74023 0.33897 6.10799 0.855081C5.47575 1.37119 5.04078 2.08949 4.87638 2.88891H4.09721C3.15825 2.89003 2.25806 3.26353 1.59411 3.92748C0.930167 4.59143 0.556667 5.49161 0.555542 6.43057L0.555542 8.55557H17.5555V6.43057C17.5544 5.49161 17.1809 4.59143 16.517 3.92748C15.853 3.26353 14.9528 2.89003 14.0139 2.88891ZM6.35254 2.88891C6.49852 2.47601 6.7685 2.1183 7.12555 1.86472C7.4826 1.61113 7.90927 1.47405 8.34721 1.47224H9.76388C10.2018 1.47405 10.6285 1.61113 10.9855 1.86472C11.3426 2.1183 11.6126 2.47601 11.7585 2.88891H6.35254Z" fill="white"/>
<path d="M9.76388 10.6805C9.76388 10.8684 9.68925 11.0485 9.55641 11.1814C9.42357 11.3142 9.2434 11.3888 9.05554 11.3888C8.86768 11.3888 8.68751 11.3142 8.55467 11.1814C8.42184 11.0485 8.34721 10.8684 8.34721 10.6805V9.97217H0.555542V13.5138C0.556667 14.4528 0.930167 15.353 1.59411 16.0169C2.25806 16.6809 3.15825 17.0544 4.09721 17.0555H14.0139C14.9528 17.0544 15.853 16.6809 16.517 16.0169C17.1809 15.353 17.5544 14.4528 17.5555 13.5138V9.97217H9.76388V10.6805Z" fill="white"/>
</g>
<defs>
<clipPath id="clip0_1722_10399">
<rect width="17" height="17" fill="white" transform="translate(0.555542 0.0555725)"/>
</clipPath>
</defs>
</svg>
