<svg width="20" height="20" viewBox="0 0 20 20" fill="none" xmlns="http://www.w3.org/2000/svg">
<g clip-path="url(#clip0_4305_57)">
<path d="M5.83333 0H3.33333C1.49238 0 0 1.49238 0 3.33333V5.83333C0 7.67428 1.49238 9.16667 3.33333 9.16667H5.83333C7.67428 9.16667 9.16667 7.67428 9.16667 5.83333V3.33333C9.16667 1.49238 7.67428 0 5.83333 0Z" fill="#2F353D"/>
<path d="M16.6666 0H14.1666C12.3256 0 10.8333 1.49239 10.8333 3.33334V5.83334C10.8333 7.67429 12.3256 9.16667 14.1666 9.16667H16.6666C18.5075 9.16667 19.9999 7.67429 19.9999 5.83334V3.33334C19.9999 1.49239 18.5075 0 16.6666 0Z" fill="#2F353D"/>
<path d="M5.83333 10.8333H3.33333C1.49238 10.8333 0 12.3257 0 14.1667V16.6667C0 18.5076 1.49238 20 3.33333 20H5.83333C7.67428 20 9.16667 18.5076 9.16667 16.6667V14.1667C9.16667 12.3257 7.67428 10.8333 5.83333 10.8333Z" fill="#2F353D"/>
<path d="M16.6666 10.8333H14.1666C12.3256 10.8333 10.8333 12.3257 10.8333 14.1667V16.6667C10.8333 18.5076 12.3256 20 14.1666 20H16.6666C18.5075 20 19.9999 18.5076 19.9999 16.6667V14.1667C19.9999 12.3257 18.5075 10.8333 16.6666 10.8333Z" fill="#2F353D"/>
</g>
<defs>
<clipPath id="clip0_4305_57">
<rect width="20" height="20" fill="white"/>
</clipPath>
</defs>
</svg>
