<svg width="20" height="20" viewBox="0 0 20 20" fill="none" xmlns="http://www.w3.org/2000/svg">
    <g clip-path="url(#clip0_4305_31)">
        <path d="M1.10563 10.3336L4.07229 12.5003L2.94563 15.9894C2.76355 16.5306 2.76125 17.1161 2.93905 17.6587C3.11686 18.2012 3.46525 18.6718 3.93229 19.0003C4.39134 19.3392 4.94762 19.5208 5.51826 19.518C6.08889 19.5151 6.64333 19.328 7.09896 18.9844L9.9998 16.8494L12.9015 18.9819C13.3597 19.319 13.913 19.502 14.4818 19.5048C15.0506 19.5076 15.6056 19.3299 16.0671 18.9974C16.5286 18.6648 16.8727 18.1945 17.05 17.654C17.2274 17.1135 17.2287 16.5307 17.054 15.9894L15.9273 12.5003L18.894 10.3336C19.3516 9.99902 19.6918 9.52839 19.8659 8.98892C20.0401 8.44945 20.0393 7.86875 19.8637 7.32975C19.6881 6.79075 19.3467 6.32103 18.8881 5.98768C18.4296 5.65433 17.8775 5.4744 17.3106 5.4736H13.6665L12.5606 2.02693C12.3867 1.48439 12.045 1.01111 11.5848 0.675316C11.1245 0.339526 10.5695 0.158585 9.9998 0.158585C9.43007 0.158585 8.87507 0.339526 8.41482 0.675316C7.95457 1.01111 7.61286 1.48439 7.43896 2.02693L6.33313 5.4736H2.69229C2.12541 5.4744 1.57329 5.65433 1.11478 5.98768C0.656268 6.32103 0.314829 6.79075 0.139229 7.32975C-0.0363704 7.86875 -0.0371476 8.44945 0.137008 8.98892C0.311164 9.52839 0.651345 9.99902 1.10896 10.3336H1.10563Z"
              fill="white"/>
    </g>
    <defs>
        <clipPath id="clip0_4305_31">
            <rect width="20" height="20" fill="white"/>
        </clipPath>
    </defs>
</svg>