<svg width="18" height="18" viewBox="0 0 18 18" fill="none" xmlns="http://www.w3.org/2000/svg">
<g clip-path="url(#clip0_1722_10457)">
<path d="M1.69371 13.1389C2.27961 14.1558 3.57895 14.5051 4.59583 13.9192C4.59652 13.9188 4.59719 13.9184 4.59788 13.918L4.91308 13.736C5.50808 14.245 6.192 14.6398 6.9304 14.9005V15.2639C6.9304 16.4375 7.88181 17.3889 9.0554 17.3889C10.229 17.3889 11.1804 16.4375 11.1804 15.2639V14.9005C11.9189 14.6394 12.6029 14.2442 13.1977 13.7346L13.5143 13.9173C14.5315 14.5041 15.8317 14.1553 16.4185 13.1382C17.0053 12.121 16.6565 10.8208 15.6393 10.234L15.3249 10.0527C15.4664 9.28231 15.4664 8.49261 15.3249 7.72223L15.6393 7.5409C16.6565 6.95411 17.0053 5.65387 16.4185 4.63673C15.8317 3.61962 14.5315 3.27075 13.5143 3.85755L13.1992 4.0396C12.6036 3.53116 11.9192 3.13711 11.1804 2.87726V2.51389C11.1804 1.34029 10.229 0.388885 9.0554 0.388885C7.88181 0.388885 6.9304 1.34029 6.9304 2.51389V2.87726C6.1919 3.13834 5.50795 3.53359 4.91308 4.04319L4.59646 3.85974C3.57931 3.27291 2.27908 3.62177 1.69228 4.63889C1.10548 5.656 1.45431 6.95626 2.47146 7.54306L2.78596 7.72439C2.64438 8.49473 2.64438 9.28443 2.78596 10.0548L2.47146 10.2361C1.45713 10.8245 1.10943 12.1222 1.69371 13.1389ZM9.0554 6.05556C10.6202 6.05556 11.8887 7.32409 11.8887 8.88889C11.8887 10.4537 10.6202 11.7222 9.0554 11.7222C7.49061 11.7222 6.22208 10.4537 6.22208 8.88889C6.22208 7.32409 7.49061 6.05556 9.0554 6.05556Z" fill="white"/>
</g>
<defs>
<clipPath id="clip0_1722_10457">
<rect width="17" height="17" fill="white" transform="translate(0.555542 0.388885)"/>
</clipPath>
</defs>
</svg>
