<svg width="18" height="18" viewBox="0 0 18 18" fill="none" xmlns="http://www.w3.org/2000/svg">
<g clip-path="url(#clip0_1722_10441)">
<path d="M5.51377 9.44462C5.51391 8.75065 5.71919 8.07221 6.10381 7.49458L2.57064 3.96141C1.26974 5.49222 0.555481 7.4357 0.555481 9.44462C0.555481 11.4535 1.26974 13.397 2.57064 14.9278L6.10381 11.3947C5.71919 10.817 5.51391 10.1386 5.51377 9.44462Z" fill="white"/>
<path d="M15.5403 3.96141L12.0071 7.49458C12.3919 8.07216 12.5971 8.75064 12.5971 9.44462C12.5971 10.1386 12.3919 10.8171 12.0071 11.3947L15.5403 14.9278C16.8412 13.397 17.5555 11.4535 17.5555 9.44462C17.5555 7.4357 16.8412 5.49222 15.5403 3.96141Z" fill="white"/>
<path d="M9.0556 12.9858C8.36163 12.9856 7.68319 12.7804 7.10555 12.3957L3.57239 15.9289C5.1032 17.2298 7.04668 17.9441 9.0556 17.9441C11.0645 17.9441 13.008 17.2298 14.5388 15.9289L11.0056 12.3957C10.428 12.7804 9.74956 12.9856 9.0556 12.9858Z" fill="white"/>
<path d="M9.0556 5.90302C9.74956 5.90316 10.428 6.10844 11.0056 6.49306L14.5388 2.9599C13.008 1.65899 11.0645 0.944733 9.0556 0.944733C7.04668 0.944733 5.1032 1.65899 3.57239 2.9599L7.10555 6.49306C7.68319 6.10844 8.36163 5.90316 9.0556 5.90302Z" fill="white"/>
</g>
<defs>
<clipPath id="clip0_1722_10441">
<rect width="17" height="17" fill="white" transform="translate(0.555542 0.944443)"/>
</clipPath>
</defs>
</svg>
