<svg width="18" height="18" viewBox="0 0 18 18" fill="none" xmlns="http://www.w3.org/2000/svg">
<g clip-path="url(#clip0_1722_10411)">
<path d="M16.8471 11.8336C16.6592 11.8336 16.479 11.9082 16.3462 12.041C16.2134 12.1739 16.1387 12.354 16.1387 12.5419V13.9586C16.1387 14.5221 15.9148 15.0626 15.5163 15.4612C15.1178 15.8597 14.5773 16.0835 14.0137 16.0835H12.5971C12.4092 16.0835 12.229 16.1582 12.0962 16.291C11.9634 16.4239 11.8887 16.604 11.8887 16.7919C11.8887 16.9797 11.9634 17.1599 12.0962 17.2927C12.229 17.4256 12.4092 17.5002 12.5971 17.5002H14.0137C14.9527 17.4991 15.8529 17.1256 16.5168 16.4616C17.1808 15.7977 17.5543 14.8975 17.5554 13.9586V12.5419C17.5554 12.354 17.4808 12.1739 17.3479 12.041C17.2151 11.9082 17.0349 11.8336 16.8471 11.8336Z" fill="white"/>
<path d="M1.26388 6.16667C1.45174 6.16667 1.6319 6.09204 1.76474 5.9592C1.89758 5.82636 1.97221 5.64619 1.97221 5.45833V4.04167C1.97221 3.47808 2.19609 2.93758 2.59461 2.53906C2.99312 2.14055 3.53362 1.91667 4.09721 1.91667H5.51388C5.70174 1.91667 5.8819 1.84204 6.01474 1.7092C6.14758 1.57636 6.22221 1.39619 6.22221 1.20833C6.22221 1.02047 6.14758 0.840304 6.01474 0.707466C5.8819 0.574628 5.70174 0.5 5.51388 0.5H4.09721C3.15825 0.501125 2.25806 0.874625 1.59411 1.53857C0.930167 2.20252 0.556667 3.1027 0.555542 4.04167L0.555542 5.45833C0.555542 5.64619 0.63017 5.82636 0.763008 5.9592C0.895846 6.09204 1.07601 6.16667 1.26388 6.16667Z" fill="white"/>
<path d="M5.51388 16.0835H4.09721C3.53362 16.0835 2.99312 15.8597 2.59461 15.4612C2.19609 15.0626 1.97221 14.5221 1.97221 13.9586V12.5419C1.97221 12.354 1.89758 12.1739 1.76474 12.041C1.6319 11.9082 1.45174 11.8336 1.26388 11.8336C1.07601 11.8336 0.895846 11.9082 0.763008 12.041C0.63017 12.1739 0.555542 12.354 0.555542 12.5419L0.555542 13.9586C0.556667 14.8975 0.930167 15.7977 1.59411 16.4616C2.25806 17.1256 3.15825 17.4991 4.09721 17.5002H5.51388C5.70174 17.5002 5.8819 17.4256 6.01474 17.2927C6.14758 17.1599 6.22221 16.9797 6.22221 16.7919C6.22221 16.604 6.14758 16.4239 6.01474 16.291C5.8819 16.1582 5.70174 16.0835 5.51388 16.0835Z" fill="white"/>
<path d="M14.0137 0.5H12.5971C12.4092 0.5 12.229 0.574628 12.0962 0.707466C11.9634 0.840304 11.8887 1.02047 11.8887 1.20833C11.8887 1.39619 11.9634 1.57636 12.0962 1.7092C12.229 1.84204 12.4092 1.91667 12.5971 1.91667H14.0137C14.5773 1.91667 15.1178 2.14055 15.5163 2.53906C15.9148 2.93758 16.1387 3.47808 16.1387 4.04167V5.45833C16.1387 5.64619 16.2134 5.82636 16.3462 5.9592C16.479 6.09204 16.6592 6.16667 16.8471 6.16667C17.0349 6.16667 17.2151 6.09204 17.3479 5.9592C17.4808 5.82636 17.5554 5.64619 17.5554 5.45833V4.04167C17.5543 3.1027 17.1808 2.20252 16.5168 1.53857C15.8529 0.874625 14.9527 0.501125 14.0137 0.5V0.5Z" fill="white"/>
<path d="M9.05568 8.29167C10.6205 8.29167 11.889 7.02314 11.889 5.45833C11.889 3.89353 10.6205 2.625 9.05568 2.625C7.49088 2.625 6.22235 3.89353 6.22235 5.45833C6.22235 7.02314 7.49088 8.29167 9.05568 8.29167Z" fill="white"/>
<path d="M8.34735 9.70856C7.22053 9.70968 6.14018 10.1578 5.34339 10.9546C4.5466 11.7514 4.09848 12.8317 4.09735 13.9586C4.09735 14.1464 4.17198 14.3266 4.30482 14.4594C4.43766 14.5923 4.61782 14.6669 4.80568 14.6669H13.3057C13.4935 14.6669 13.6737 14.5923 13.8066 14.4594C13.9394 14.3266 14.014 14.1464 14.014 13.9586C14.0129 12.8317 13.5648 11.7514 12.768 10.9546C11.9712 10.1578 10.8908 9.70968 9.76402 9.70856H8.34735Z" fill="white"/>
</g>
<defs>
<clipPath id="clip0_1722_10411">
<rect width="17" height="17" fill="white" transform="translate(0.555542 0.5)"/>
</clipPath>
</defs>
</svg>
