<svg width="18" height="18" viewBox="0 0 18 18" fill="none" xmlns="http://www.w3.org/2000/svg">
<path d="M6.93054 0.611115H4.09721C3.1579 0.611115 2.25706 0.984253 1.59287 1.64844C0.928681 2.31264 0.555542 3.21347 0.555542 4.15278L0.555542 14.0694C0.555542 14.5345 0.64715 14.9951 0.825135 15.4248C1.00312 15.8545 1.264 16.2449 1.59287 16.5738C2.25706 17.238 3.1579 17.6111 4.09721 17.6111H10.4722V4.15278C10.4722 3.68768 10.3806 3.22714 10.2026 2.79744C10.0246 2.36775 9.76375 1.97732 9.43488 1.64844C9.106 1.31957 8.71557 1.05869 8.28588 0.880708C7.85618 0.702722 7.39564 0.611115 6.93054 0.611115V0.611115ZM4.09721 14.0694H3.38888C3.20101 14.0694 3.02085 13.9948 2.88801 13.862C2.75517 13.7291 2.68054 13.549 2.68054 13.3611C2.68054 13.1733 2.75517 12.9931 2.88801 12.8602C3.02085 12.7274 3.20101 12.6528 3.38888 12.6528H4.09721C4.28507 12.6528 4.46524 12.7274 4.59808 12.8602C4.73091 12.9931 4.80554 13.1733 4.80554 13.3611C4.80554 13.549 4.73091 13.7291 4.59808 13.862C4.46524 13.9948 4.28507 14.0694 4.09721 14.0694ZM4.09721 11.2361H3.38888C3.20101 11.2361 3.02085 11.1615 2.88801 11.0286C2.75517 10.8958 2.68054 10.7156 2.68054 10.5278C2.68054 10.3399 2.75517 10.1598 2.88801 10.0269C3.02085 9.89408 3.20101 9.81945 3.38888 9.81945H4.09721C4.28507 9.81945 4.46524 9.89408 4.59808 10.0269C4.73091 10.1598 4.80554 10.3399 4.80554 10.5278C4.80554 10.7156 4.73091 10.8958 4.59808 11.0286C4.46524 11.1615 4.28507 11.2361 4.09721 11.2361ZM4.09721 8.40278H3.38888C3.20101 8.40278 3.02085 8.32815 2.88801 8.19531C2.75517 8.06248 2.68054 7.88231 2.68054 7.69445C2.68054 7.50659 2.75517 7.32642 2.88801 7.19358C3.02085 7.06074 3.20101 6.98611 3.38888 6.98611H4.09721C4.28507 6.98611 4.46524 7.06074 4.59808 7.19358C4.73091 7.32642 4.80554 7.50659 4.80554 7.69445C4.80554 7.88231 4.73091 8.06248 4.59808 8.19531C4.46524 8.32815 4.28507 8.40278 4.09721 8.40278ZM4.09721 5.56945H3.38888C3.20101 5.56945 3.02085 5.49482 2.88801 5.36198C2.75517 5.22914 2.68054 5.04898 2.68054 4.86111C2.68054 4.67325 2.75517 4.49309 2.88801 4.36025C3.02085 4.22741 3.20101 4.15278 3.38888 4.15278H4.09721C4.28507 4.15278 4.46524 4.22741 4.59808 4.36025C4.73091 4.49309 4.80554 4.67325 4.80554 4.86111C4.80554 5.04898 4.73091 5.22914 4.59808 5.36198C4.46524 5.49482 4.28507 5.56945 4.09721 5.56945ZM7.63888 14.0694H6.93054C6.74268 14.0694 6.56251 13.9948 6.42967 13.862C6.29684 13.7291 6.22221 13.549 6.22221 13.3611C6.22221 13.1733 6.29684 12.9931 6.42967 12.8602C6.56251 12.7274 6.74268 12.6528 6.93054 12.6528H7.63888C7.82674 12.6528 8.0069 12.7274 8.13974 12.8602C8.27258 12.9931 8.34721 13.1733 8.34721 13.3611C8.34721 13.549 8.27258 13.7291 8.13974 13.862C8.0069 13.9948 7.82674 14.0694 7.63888 14.0694ZM7.63888 11.2361H6.93054C6.74268 11.2361 6.56251 11.1615 6.42967 11.0286C6.29684 10.8958 6.22221 10.7156 6.22221 10.5278C6.22221 10.3399 6.29684 10.1598 6.42967 10.0269C6.56251 9.89408 6.74268 9.81945 6.93054 9.81945H7.63888C7.82674 9.81945 8.0069 9.89408 8.13974 10.0269C8.27258 10.1598 8.34721 10.3399 8.34721 10.5278C8.34721 10.7156 8.27258 10.8958 8.13974 11.0286C8.0069 11.1615 7.82674 11.2361 7.63888 11.2361ZM7.63888 8.40278H6.93054C6.74268 8.40278 6.56251 8.32815 6.42967 8.19531C6.29684 8.06248 6.22221 7.88231 6.22221 7.69445C6.22221 7.50659 6.29684 7.32642 6.42967 7.19358C6.56251 7.06074 6.74268 6.98611 6.93054 6.98611H7.63888C7.82674 6.98611 8.0069 7.06074 8.13974 7.19358C8.27258 7.32642 8.34721 7.50659 8.34721 7.69445C8.34721 7.88231 8.27258 8.06248 8.13974 8.19531C8.0069 8.32815 7.82674 8.40278 7.63888 8.40278ZM7.63888 5.56945H6.93054C6.74268 5.56945 6.56251 5.49482 6.42967 5.36198C6.29684 5.22914 6.22221 5.04898 6.22221 4.86111C6.22221 4.67325 6.29684 4.49309 6.42967 4.36025C6.56251 4.22741 6.74268 4.15278 6.93054 4.15278H7.63888C7.82674 4.15278 8.0069 4.22741 8.13974 4.36025C8.27258 4.49309 8.34721 4.67325 8.34721 4.86111C8.34721 5.04898 8.27258 5.22914 8.13974 5.36198C8.0069 5.49482 7.82674 5.56945 7.63888 5.56945ZM14.0139 4.15278H11.8889V17.6111H14.0139C14.9528 17.61 15.853 17.2365 16.517 16.5725C17.1809 15.9086 17.5544 15.0084 17.5555 14.0694V7.69445C17.5544 6.75548 17.1809 5.8553 16.517 5.19135C15.853 4.52741 14.9528 4.15391 14.0139 4.15278ZM14.7222 14.0694C14.5821 14.0694 14.4452 14.0279 14.3287 13.9501C14.2122 13.8722 14.1214 13.7616 14.0678 13.6322C14.0142 13.5028 14.0002 13.3603 14.0275 13.2229C14.0548 13.0855 14.1223 12.9593 14.2213 12.8602C14.3204 12.7612 14.4466 12.6937 14.584 12.6664C14.7214 12.6391 14.8638 12.6531 14.9933 12.7067C15.1227 12.7603 15.2333 12.8511 15.3112 12.9676C15.389 13.0841 15.4305 13.221 15.4305 13.3611C15.4305 13.549 15.3559 13.7291 15.2231 13.862C15.0902 13.9948 14.9101 14.0694 14.7222 14.0694ZM14.7222 11.2361C14.5821 11.2361 14.4452 11.1946 14.3287 11.1167C14.2122 11.0389 14.1214 10.9283 14.0678 10.7988C14.0142 10.6694 14.0002 10.527 14.0275 10.3896C14.0548 10.2522 14.1223 10.126 14.2213 10.0269C14.3204 9.92785 14.4466 9.86039 14.584 9.83306C14.7214 9.80573 14.8638 9.81975 14.9933 9.87337C15.1227 9.92698 15.2333 10.0178 15.3112 10.1343C15.389 10.2507 15.4305 10.3877 15.4305 10.5278C15.4305 10.7156 15.3559 10.8958 15.2231 11.0286C15.0902 11.1615 14.9101 11.2361 14.7222 11.2361ZM14.7222 8.40278C14.5821 8.40278 14.4452 8.36124 14.3287 8.28341C14.2122 8.20557 14.1214 8.09495 14.0678 7.96552C14.0142 7.83608 14.0002 7.69366 14.0275 7.55626C14.0548 7.41886 14.1223 7.29264 14.2213 7.19358C14.3204 7.09452 14.4466 7.02706 14.584 6.99972C14.7214 6.97239 14.8638 6.98642 14.9933 7.04003C15.1227 7.09365 15.2333 7.18443 15.3112 7.30092C15.389 7.4174 15.4305 7.55435 15.4305 7.69445C15.4305 7.88231 15.3559 8.06248 15.2231 8.19531C15.0902 8.32815 14.9101 8.40278 14.7222 8.40278Z" fill="white"/>
</svg>
