<svg width="20" height="20" viewBox="0 0 20 20" fill="none" xmlns="http://www.w3.org/2000/svg">
    <path d="M12.4999 6.66671H17.9499C17.659 5.89578 17.207 5.19577 16.6241 4.61339L13.7208 1.70839C13.1377 1.12617 12.4375 0.674486 11.6666 0.383392V5.83339C11.6666 6.29359 12.0397 6.66671 12.4999 6.66671Z"
          fill="#2F353D"/>
    <path d="M18.3133 8.33332H12.4999C11.1192 8.33332 9.99995 7.21402 9.99995 5.83332V0.02C9.86577 0.0108203 9.73163 0 9.59577 0H5.83327C3.53323 0.00277344 1.66936 1.86664 1.66663 4.16668V15.8334C1.66936 18.1334 3.53323 19.9973 5.83327 20H14.1666C16.4666 19.9973 18.3305 18.1334 18.3333 15.8333V8.7375C18.3333 8.60168 18.3224 8.4675 18.3133 8.33332Z"
          fill="#2F353D"/>
</svg>