<svg width="18" height="18" viewBox="0 0 18 18" fill="none" xmlns="http://www.w3.org/2000/svg">
<g clip-path="url(#clip0_1722_10389)">
<path d="M5.51388 0.611145H3.38888C1.82407 0.611145 0.555542 1.87967 0.555542 3.44448V5.56948C0.555542 7.13428 1.82407 8.40281 3.38888 8.40281H5.51388C7.07868 8.40281 8.34721 7.13428 8.34721 5.56948V3.44448C8.34721 1.87967 7.07868 0.611145 5.51388 0.611145Z" fill="white"/>
<path d="M14.7221 0.611145H12.5971C11.0323 0.611145 9.76373 1.87967 9.76373 3.44448V5.56948C9.76373 7.13429 11.0323 8.40282 12.5971 8.40282H14.7221C16.2869 8.40282 17.5554 7.13429 17.5554 5.56948V3.44448C17.5554 1.87967 16.2869 0.611145 14.7221 0.611145Z" fill="white"/>
<path d="M5.51388 9.81949H3.38888C1.82407 9.81949 0.555542 11.088 0.555542 12.6528V14.7778C0.555542 16.3426 1.82407 17.6112 3.38888 17.6112H5.51388C7.07868 17.6112 8.34721 16.3426 8.34721 14.7778V12.6528C8.34721 11.088 7.07868 9.81949 5.51388 9.81949Z" fill="white"/>
<path d="M14.7221 9.81949H12.5971C11.0323 9.81949 9.76373 11.088 9.76373 12.6528V14.7778C9.76373 16.3426 11.0323 17.6112 12.5971 17.6112H14.7221C16.2869 17.6112 17.5554 16.3426 17.5554 14.7778V12.6528C17.5554 11.088 16.2869 9.81949 14.7221 9.81949Z" fill="white"/>
</g>
<defs>
<clipPath id="clip0_1722_10389">
<rect width="17" height="17" fill="white" transform="translate(0.555542 0.611145)"/>
</clipPath>
</defs>
</svg>
