<svg width="20" height="20" viewBox="0 0 20 20" fill="none" xmlns="http://www.w3.org/2000/svg">
    <g clip-path="url(#clip0_4305_88)">
        <path d="M5.83328 10.0002C5.83344 9.18378 6.07495 8.38561 6.52745 7.70604L2.37078 3.54938C0.840303 5.35034 0 7.63678 0 10.0002C0 12.3636 0.840303 14.6501 2.37078 16.451L6.52745 12.2944C6.07495 11.6148 5.83344 10.8166 5.83328 10.0002Z"
              fill="#2F353D"/>
        <path d="M17.6292 3.54938L13.4725 7.70604C13.9251 8.38555 14.1667 9.18376 14.1667 10.0002C14.1667 10.8167 13.9251 11.6149 13.4725 12.2944L17.6292 16.451C19.1597 14.6501 20 12.3636 20 10.0002C20 7.63678 19.1597 5.35034 17.6292 3.54938Z"
              fill="#2F353D"/>
        <path d="M10 14.1663C9.18359 14.1661 8.38543 13.9246 7.70586 13.4721L3.54919 17.6288C5.35015 19.1593 7.6366 19.9996 10 19.9996C12.3635 19.9996 14.6499 19.1593 16.4509 17.6288L12.2942 13.4721C11.6146 13.9246 10.8165 14.1661 10 14.1663Z"
              fill="#2F353D"/>
        <path d="M10 5.83363C10.8165 5.83379 11.6146 6.0753 12.2942 6.5278L16.4509 2.37113C14.6499 0.840654 12.3635 0.000350952 10 0.000350952C7.6366 0.000350952 5.35015 0.840654 3.54919 2.37113L7.70586 6.5278C8.38543 6.0753 9.18359 5.83379 10 5.83363Z"
              fill="#2F353D"/>
    </g>
    <defs>
        <clipPath id="clip0_4305_88">
            <rect width="20" height="20" fill="white"/>
        </clipPath>
    </defs>
</svg>