<svg width="18" height="18" viewBox="0 0 18 18" fill="none" xmlns="http://www.w3.org/2000/svg">
<g clip-path="url(#clip0_1722_10432)">
<path d="M14.4921 2.1204C13.5946 1.37357 12.5522 0.82072 11.4305 0.496684C10.3088 0.172648 9.13218 0.08445 7.97472 0.237647C5.83347 0.515822 3.87835 1.59848 2.50633 3.26578C1.13431 4.93308 0.448256 7.06004 0.587458 9.21479C0.72666 11.3695 1.68069 13.3906 3.25583 14.8675C4.83097 16.3444 6.90914 17.1665 9.06839 17.1668H14.014C14.9529 17.1657 15.8531 16.7922 16.5171 16.1282C17.181 15.4643 17.5545 14.5641 17.5556 13.6251V8.17736V8.13273C17.4807 6.97492 17.1703 5.84457 16.6436 4.8108C16.1168 3.77703 15.3847 2.86157 14.4921 2.1204ZM6.2223 5.12515H9.05564C9.2435 5.12515 9.42367 5.19978 9.5565 5.33261C9.68934 5.46545 9.76397 5.64562 9.76397 5.83348C9.76397 6.02134 9.68934 6.20151 9.5565 6.33435C9.42367 6.46719 9.2435 6.54181 9.05564 6.54181H6.2223C6.03444 6.54181 5.85427 6.46719 5.72144 6.33435C5.5886 6.20151 5.51397 6.02134 5.51397 5.83348C5.51397 5.64562 5.5886 5.46545 5.72144 5.33261C5.85427 5.19978 6.03444 5.12515 6.2223 5.12515ZM11.889 12.2085H6.2223C6.03444 12.2085 5.85427 12.1339 5.72144 12.001C5.5886 11.8682 5.51397 11.688 5.51397 11.5001C5.51397 11.3123 5.5886 11.1321 5.72144 10.9993C5.85427 10.8664 6.03444 10.7918 6.2223 10.7918H11.889C12.0768 10.7918 12.257 10.8664 12.3898 10.9993C12.5227 11.1321 12.5973 11.3123 12.5973 11.5001C12.5973 11.688 12.5227 11.8682 12.3898 12.001C12.257 12.1339 12.0768 12.2085 11.889 12.2085ZM11.889 9.37515H6.2223C6.03444 9.37515 5.85427 9.30052 5.72144 9.16768C5.5886 9.03484 5.51397 8.85468 5.51397 8.66681C5.51397 8.47895 5.5886 8.29879 5.72144 8.16595C5.85427 8.03311 6.03444 7.95848 6.2223 7.95848H11.889C12.0768 7.95848 12.257 8.03311 12.3898 8.16595C12.5227 8.29879 12.5973 8.47895 12.5973 8.66681C12.5973 8.85468 12.5227 9.03484 12.3898 9.16768C12.257 9.30052 12.0768 9.37515 11.889 9.37515Z" fill="white"/>
</g>
<defs>
<clipPath id="clip0_1722_10432">
<rect width="17" height="17" fill="white" transform="translate(0.555542 0.166687)"/>
</clipPath>
</defs>
</svg>
