<svg width="18" height="18" viewBox="0 0 18 18" fill="none" xmlns="http://www.w3.org/2000/svg">
<g clip-path="url(#clip0_1722_10450)">
<path d="M1.49539 9.28356L4.01706 11.1252L3.05939 14.091C2.90463 14.551 2.90267 15.0487 3.0538 15.5099C3.20494 15.9711 3.50107 16.3711 3.89806 16.6502C4.28825 16.9384 4.76109 17.0927 5.24613 17.0903C5.73117 17.0879 6.20244 16.9288 6.58973 16.6368L9.05544 14.822L11.5219 16.6346C11.9113 16.9211 12.3816 17.0767 12.8651 17.0791C13.3486 17.0814 13.8204 16.9304 14.2126 16.6477C14.6049 16.3651 14.8974 15.9653 15.0481 15.5059C15.1989 15.0465 15.2 14.5511 15.0515 14.091L14.0938 11.1252L16.6155 9.28356C17.0044 8.99917 17.2936 8.59913 17.4416 8.14058C17.5897 7.68204 17.589 7.18844 17.4397 6.73029C17.2905 6.27214 17.0003 5.87288 16.6105 5.58953C16.2208 5.30618 15.7515 5.15324 15.2696 5.15256H12.1721L11.2321 2.22289C11.0843 1.76173 10.7939 1.35944 10.4027 1.07402C10.0115 0.788596 9.5397 0.634796 9.05544 0.634796C8.57117 0.634796 8.09942 0.788596 7.70821 1.07402C7.317 1.35944 7.02654 1.76173 6.87873 2.22289L5.93877 5.15256H2.84406C2.36221 5.15324 1.8929 5.30618 1.50317 5.58953C1.11344 5.87288 0.823213 6.27214 0.673954 6.73029C0.524694 7.18844 0.524034 7.68204 0.672066 8.14058C0.820099 8.59913 1.10925 8.99917 1.49823 9.28356H1.49539Z" fill="white"/>
</g>
<defs>
<clipPath id="clip0_1722_10450">
<rect width="17" height="17" fill="white" transform="translate(0.555542 0.5)"/>
</clipPath>
</defs>
</svg>
