<svg width="18" height="18" viewBox="0 0 18 18" fill="none" xmlns="http://www.w3.org/2000/svg">
<g clip-path="url(#clip0_1722_10424)">
<path d="M11.1806 5.72226H15.813C15.5658 5.06696 15.1816 4.47196 14.6861 3.97694L12.2183 1.50769C11.7227 1.0128 11.1275 0.628869 10.4722 0.381439V5.01394C10.4722 5.4051 10.7894 5.72226 11.1806 5.72226Z" fill="white"/>
<path d="M16.1219 7.13888H11.1806C10.007 7.13888 9.05555 6.18748 9.05555 5.01388V0.0725573C8.9415 0.0647545 8.82748 0.0555573 8.712 0.0555573H5.51387C3.55884 0.0579147 1.97455 1.6422 1.97223 3.59723V13.5139C1.97455 15.4689 3.55884 17.0532 5.51387 17.0556H12.5972C14.5522 17.0532 16.1365 15.4689 16.1389 13.5139V7.48243C16.1389 7.36698 16.1297 7.25293 16.1219 7.13888Z" fill="white"/>
</g>
<defs>
<clipPath id="clip0_1722_10424">
<rect width="17" height="17" fill="white" transform="translate(0.555542 0.0555573)"/>
</clipPath>
</defs>
</svg>
