<svg width="111" height="28" viewBox="0 0 111 28" fill="none" xmlns="http://www.w3.org/2000/svg">
    <g clip-path="url(#clip0_2873_7180)">
        <path d="M13.4757 27.4978C20.9181 27.4978 26.9514 21.4541 26.9514 13.9989C26.9514 6.54366 20.9181 0.5 13.4757 0.5C6.03327 0.5 0 6.54366 0 13.9989C0 21.4541 6.03327 27.4978 13.4757 27.4978Z"
              fill="#5898FF"/>
        <path d="M16.5632 3.5177H11.4673C11.1981 3.5177 10.9796 3.73657 10.9796 4.00628V6.34747C10.9796 6.61718 11.1981 6.83605 11.4673 6.83605H13.703C13.703 6.83605 13.8553 17.9296 13.703 20.178C13.661 20.7904 13.4337 21.5531 12.7562 21.8935C12.0124 22.2671 11.1451 22.1389 9.98425 22.0085C9.92687 22.0019 9.8739 22.0483 9.8739 22.1058V24.7631C9.8739 24.8051 9.90259 24.8449 9.94452 24.8582C11.2886 25.2694 12.2596 25.2782 13.917 24.9024C14.7226 24.7211 17.1061 23.6246 17.0796 20.3438C17.073 19.6164 17.0509 15.9753 17.0509 14.9495V4.00628C17.0509 3.73657 16.8324 3.5177 16.5632 3.5177Z"
              fill="white"/>
        <path d="M40.9368 20.6047C38.6328 20.6047 38.0413 19.4617 37.4874 18.9223H37.3594L36.8849 20.4013H34.8611V3.00702H37.4719L37.4741 9.60392H37.5116C38.1009 8.88321 38.7917 7.92153 40.9501 7.853C43.1791 7.78226 44.1634 8.79257 44.6467 9.30768C45.7877 10.5236 46.1541 12.5133 46.1541 14.1161C46.1563 17.7484 44.788 20.6047 40.9368 20.6047ZM40.2747 18.3077C41.173 18.3077 41.9278 18.1684 42.5325 17.4543C43.1372 16.7403 43.3512 15.4027 43.3512 13.9901C43.3512 12.7454 43.2056 11.8324 42.7399 11.1426C42.272 10.4529 41.5217 10.108 40.4822 10.108C39.9967 10.108 39.5045 10.2251 39.0035 10.4617C38.5026 10.6982 37.6308 11.346 37.5558 13.0218V14.8655C37.5558 16.6341 38.4231 17.8898 38.9241 18.0579C39.4273 18.2237 39.8775 18.3077 40.2747 18.3077Z"
              fill="white"/>
        <path d="M52.2939 20.262C51.5214 20.0255 50.7468 19.5722 50.1862 19.0173C49.6257 18.4624 48.2551 16.8066 48.5134 14.1957C48.6127 13.192 48.6237 10.8353 50.1686 9.34306C50.7336 8.79921 51.3361 8.35043 52.0357 8.0564C52.7353 7.76237 53.6004 7.71594 54.3706 7.71594C55.2159 7.71594 55.9618 7.86406 56.6085 8.15809C57.2551 8.45213 57.8002 8.85669 58.246 9.36738C58.6918 9.88028 59.0295 10.4971 59.2612 11.22C59.4908 11.9429 59.6077 12.7322 59.6077 13.5899C59.6077 13.8751 59.5967 14.1493 59.5724 14.4101C59.5503 14.671 59.5217 14.8854 59.4908 15.0535H51.2809C51.4354 16.2141 51.7421 17.0697 52.4351 17.6246C53.1259 18.1795 53.7593 18.3563 54.8208 18.374C56.3878 18.3983 58.438 17.6909 58.9456 17.3725V19.7911C58.3431 20.2311 55.7036 21.3033 52.2939 20.262ZM54.2338 9.84269C53.4503 9.84269 51.5016 10.2473 51.2787 12.9886H56.8645C56.8645 10.2473 55.0482 9.84269 54.2338 9.84269Z"
              fill="white"/>
        <path d="M62.2229 20.4013V8.01218H64.4872L64.6903 10.3534H64.7631C65.3833 9.34527 66.1888 7.55676 69.9958 7.82205L69.795 10.4086C69.3006 10.4374 65.6304 9.81395 64.9573 13.4352L65.0655 20.4013H62.2229Z"
              fill="white"/>
        <path d="M75.5706 20.7019C74.6194 20.7019 72.3507 20.4012 71.4502 19.9237L71.3973 17.5472C72.5537 17.9716 74.0434 18.4867 75.0542 18.5044C75.5375 18.5133 76.6476 18.7078 77.4024 18.1463C77.8283 17.8301 77.91 17.3769 77.8857 16.864C77.8416 15.8692 75.3279 15.1308 74.6305 14.8191C72.4235 14.0829 71.32 12.9289 71.3951 11.2443C71.4436 10.1522 71.6599 9.54863 72.4323 8.85888C73.2048 8.16912 74.4098 7.86183 75.8443 7.82424C77.9056 7.77118 79.8455 8.3902 80.3686 8.81245L79.5233 10.8773C79.2231 10.7181 77.4995 10.1853 76.4689 10.1124C75.255 10.0262 74.3634 10.1831 74.1648 10.7447C73.8823 11.5449 74.5554 12.0755 75.5596 12.4978C75.9899 12.6791 77.9034 13.4175 78.4286 13.6695C78.9517 13.9215 79.3688 14.2045 79.68 14.514C79.9912 14.8257 80.3023 15.1529 80.4259 15.5398C80.5495 15.9267 80.6091 16.3423 80.6091 16.8287C80.6091 17.3681 80.5032 17.9517 80.2957 18.4138C80.0883 18.8758 79.8124 19.2671 79.4129 19.612C79.0135 19.9569 78.3999 20.2023 77.8063 20.4035C77.217 20.6024 76.3431 20.7019 75.5706 20.7019Z"
              fill="white"/>
        <path d="M84.6677 20.8125C84.1689 20.8125 83.7584 20.6511 83.434 20.3305C83.1096 20.01 82.9485 19.601 82.9485 19.1058C82.9485 18.6105 83.1096 18.2016 83.434 17.881C83.7584 17.5604 84.1689 17.399 84.6677 17.399C85.1665 17.399 85.577 17.5604 85.9014 17.881C86.2258 18.2016 86.3869 18.6105 86.3869 19.1058C86.3869 19.601 86.2236 20.01 85.9014 20.3305C85.577 20.6533 85.1665 20.8125 84.6677 20.8125Z"
              fill="#5898FF"/>
        <path d="M103.495 20.6223C102.047 20.6223 101.032 20.1116 100.288 19.318C99.5403 18.5199 99.366 17.2973 99.366 15.6813V8.00995H102.133V15.4514C102.133 16.4617 102.306 17.1957 102.65 17.6599C102.994 18.122 103.729 18.3541 104.588 18.3541C105.177 18.3541 105.779 18.2126 106.234 17.9296C107.006 17.4499 107.558 16.2716 107.596 15.0004V8.01216H110.348V20.4013H108.15L107.929 18.7985H107.827C107.238 19.4882 106.916 19.7137 106.208 20.1249C105.499 20.5361 104.42 20.6223 103.495 20.6223Z"
              fill="#5898FF"/>
        <path d="M31.6279 11.4167C31.2991 10.6032 30.8599 9.91782 30.3126 9.3585C29.7653 8.79918 29.1297 8.3725 28.4058 8.07626C27.6819 7.78002 26.9337 7.6319 26.1613 7.6319C25.9627 7.6319 25.6956 7.63853 25.38 7.67169C25.8038 8.46977 26.1481 9.31429 26.4063 10.1964C26.4261 10.1964 26.4438 10.1942 26.4637 10.1942C27.3928 10.1942 28.1189 10.5589 28.6463 11.2863C29.1716 12.0158 29.4364 12.993 29.4364 14.22C29.4364 15.4315 29.1738 16.402 28.6463 17.1293C28.1211 17.8589 27.3928 18.2214 26.4637 18.2214C26.4019 18.2214 26.3423 18.2148 26.2805 18.2126C25.9958 19.0836 25.625 19.9127 25.177 20.6953C25.5787 20.7306 25.9119 20.7152 26.1613 20.7152C26.9337 20.7152 27.6819 20.5715 28.4058 20.2841C29.1297 19.9967 29.7653 19.5722 30.3126 19.0129C30.8599 18.4536 31.2969 17.7682 31.6279 16.9547C31.9568 16.1411 32.1223 15.2192 32.1223 14.1846C32.1223 13.1522 31.9568 12.2303 31.6279 11.4167Z"
              fill="white"/>
        <path d="M24.2809 17.1293C23.7557 16.402 23.4909 15.4315 23.4909 14.22C23.4909 12.993 23.7535 12.0136 24.2809 11.2863C24.7952 10.5744 25.5058 10.2119 26.4062 10.1964C26.148 9.31429 25.8037 8.46978 25.38 7.67169C24.4685 7.77118 23.1576 8.11163 21.9548 9.26344C20.293 10.8552 20.304 12.7211 20.2003 14.1846C20.0171 16.7712 21.3678 18.5752 21.9372 19.1124C23.2017 20.3084 24.3361 20.6201 25.177 20.6953C25.625 19.9127 25.9958 19.0814 26.2805 18.2126C25.4396 18.1662 24.7709 17.808 24.2809 17.1293Z"
              fill="white"/>
        <path d="M89.5317 20.4013V8.01218H91.7961L91.9991 10.3534H92.0719C92.6921 9.34527 93.4976 7.55676 97.3046 7.82205L97.1038 10.4086C96.6094 10.4374 92.9393 9.81395 92.2662 13.4352L92.3743 20.4013H89.5317Z"
              fill="#5898FF"/>
    </g>
    <defs>
        <clipPath id="clip0_2873_7180">
            <rect width="110.348" height="27" fill="white" transform="translate(0 0.5)"/>
        </clipPath>
    </defs>
</svg>