<svg width="22" height="22" viewBox="0 0 22 22" fill="none" xmlns="http://www.w3.org/2000/svg">
    <g clip-path="url(#clip0_4305_613)">
        <path d="M14.4375 19.25C14.4375 19.4323 14.3651 19.6072 14.2361 19.7361C14.1072 19.8651 13.9323 19.9375 13.75 19.9375H8.25C8.06766 19.9375 7.89279 19.8651 7.76386 19.7361C7.63493 19.6072 7.5625 19.4323 7.5625 19.25C7.5625 19.0677 7.63493 18.8928 7.76386 18.7639C7.89279 18.6349 8.06766 18.5625 8.25 18.5625H13.75C13.9323 18.5625 14.1072 18.6349 14.2361 18.7639C14.3651 18.8928 14.4375 19.0677 14.4375 19.25ZM19.0618 15.1198C18.584 14.2983 17.875 11.9737 17.875 8.9375C17.875 7.11414 17.1507 5.36545 15.8614 4.07614C14.572 2.78683 12.8234 2.0625 11 2.0625C9.17663 2.0625 7.42795 2.78683 6.13864 4.07614C4.84932 5.36545 4.125 7.11414 4.125 8.9375C4.125 11.9745 3.41515 14.2983 2.9382 15.1198C2.8164 15.3287 2.75183 15.566 2.751 15.8078C2.75017 16.0496 2.81311 16.2873 2.93347 16.497C3.05383 16.7067 3.22736 16.8809 3.43656 17.0022C3.64575 17.1234 3.88321 17.1873 4.125 17.1875H17.875C18.1167 17.1872 18.3541 17.1231 18.5631 17.0018C18.7722 16.8805 18.9456 16.7063 19.0659 16.4966C19.1861 16.2869 19.249 16.0493 19.2481 15.8076C19.2473 15.5659 19.1827 15.3286 19.0609 15.1198H19.0618Z"
              fill="white"/>
    </g>
    <defs>
        <clipPath id="clip0_4305_613">
            <rect width="22" height="22" fill="white"/>
        </clipPath>
    </defs>
</svg>