<svg width="22" height="22" viewBox="0 0 22 22" fill="none" xmlns="http://www.w3.org/2000/svg">
    <path d="M10.9899 0.916748C7.953 0.916748 5.49111 3.37918 5.49111 6.41675C5.49111 9.45431 7.953 11.9167 10.9899 11.9167C14.0268 11.9167 16.4887 9.45431 16.4887 6.41675C16.4887 3.37918 14.0268 0.916748 10.9899 0.916748Z"
          fill="white"/>
    <path d="M6.31517 13.1201C7.01389 12.8351 7.78077 13.0482 8.49058 13.3042C9.27473 13.5871 10.1265 13.7501 10.9898 13.7501C11.845 13.7501 12.6922 13.5901 13.4723 13.3122C14.1931 13.0554 14.9719 12.8438 15.6788 13.1364C16.883 13.6349 18.2379 14.6462 19.0125 15.8516C19.3734 16.4132 19.3157 17.1427 18.8761 17.6451C17.0214 19.7651 13.9878 21.0834 10.9899 21.0834C7.99144 21.0834 4.97867 19.7695 3.12176 17.6465C2.68225 17.144 2.62448 16.4145 2.9847 15.8524C3.76237 14.639 5.10565 13.6134 6.31517 13.1201Z"
          fill="white"/>
</svg>
