<svg width="14" height="14" viewBox="0 0 14 14" fill="none" xmlns="http://www.w3.org/2000/svg">
<g clip-path="url(#clip0_1833_5308)">
<path d="M13.726 12.8298L10.4099 9.51367C11.3136 8.40845 11.7579 6.99817 11.6509 5.57454C11.5439 4.15091 10.8939 2.82286 9.83521 1.86507C8.77653 0.90729 7.39021 0.393058 5.96302 0.428742C4.53583 0.464427 3.17694 1.0473 2.16745 2.05679C1.15795 3.06629 0.575083 4.42517 0.539399 5.85236C0.503715 7.27956 1.01795 8.66587 1.97573 9.72455C2.93351 10.7832 4.26157 11.4333 5.6852 11.5403C7.10883 11.6472 8.51911 11.2029 9.62433 10.2992L12.9404 13.6153C13.0452 13.7165 13.1856 13.7725 13.3312 13.7713C13.4769 13.77 13.6162 13.7116 13.7192 13.6086C13.8222 13.5056 13.8807 13.3662 13.8819 13.2206C13.8832 13.0749 13.8272 12.9346 13.726 12.8298ZM6.111 10.4448C5.23197 10.4448 4.37268 10.1841 3.6418 9.69576C2.91091 9.2074 2.34125 8.51327 2.00487 7.70116C1.66848 6.88904 1.58046 5.99541 1.75195 5.13327C1.92344 4.27113 2.34673 3.47921 2.9683 2.85764C3.58987 2.23608 4.38179 1.81278 5.24393 1.64129C6.10607 1.4698 6.9997 1.55782 7.81181 1.89421C8.62393 2.2306 9.31806 2.80025 9.80642 3.53114C10.2948 4.26202 10.5554 5.12131 10.5554 6.00034C10.5541 7.17867 10.0854 8.30837 9.25223 9.14158C8.41902 9.97478 7.28933 10.4435 6.111 10.4448Z" fill="#9098B4"/>
</g>
<defs>
<clipPath id="clip0_1833_5308">
<rect width="13.3333" height="13.3333" fill="white" transform="translate(0.555573 0.444397)"/>
</clipPath>
</defs>
</svg>
