<svg width="20" height="20" viewBox="0 0 20 20" fill="none" xmlns="http://www.w3.org/2000/svg">
    <g clip-path="url(#clip0_4305_617)">
        <path d="M5.83323 10.0001C5.8334 9.18372 6.07491 8.38555 6.5274 7.70598L2.37073 3.54932C0.840258 5.35027 -4.57764e-05 7.63672 -4.57764e-05 10.0001C-4.57764e-05 12.3636 0.840258 14.65 2.37073 16.451L6.5274 12.2943C6.07491 11.6147 5.8334 10.8166 5.83323 10.0001Z"
              fill="white"/>
        <path d="M17.6292 3.54932L13.4725 7.70598C13.9251 8.38549 14.1666 9.1837 14.1666 10.0001C14.1666 10.8166 13.9251 11.6148 13.4725 12.2943L17.6292 16.451C19.1596 14.65 20 12.3636 20 10.0001C20 7.63672 19.1596 5.35027 17.6292 3.54932Z"
              fill="white"/>
        <path d="M10 14.1663C9.18358 14.1662 8.38541 13.9247 7.70585 13.4722L3.54918 17.6288C5.35014 19.1593 7.63658 19.9996 10 19.9996C12.3634 19.9996 14.6499 19.1593 16.4508 17.6288L12.2942 13.4722C11.6146 13.9247 10.8164 14.1662 10 14.1663Z"
              fill="white"/>
        <path d="M10 5.83352C10.8164 5.83369 11.6146 6.0752 12.2942 6.52769L16.4508 2.37102C14.6499 0.840548 12.3634 0.000244141 10 0.000244141C7.63658 0.000244141 5.35014 0.840548 3.54918 2.37102L7.70585 6.52769C8.38541 6.0752 9.18358 5.83369 10 5.83352Z"
              fill="white"/>
    </g>
    <defs>
        <clipPath id="clip0_4305_617">
            <rect width="20" height="20" fill="white"/>
        </clipPath>
    </defs>
</svg>