<svg width="18" height="18" viewBox="0 0 18 18" fill="none" xmlns="http://www.w3.org/2000/svg">
<path d="M2.77783 10.6531L8.40283 5.02811C8.48122 4.94945 8.57436 4.88703 8.67692 4.84445C8.77948 4.80186 8.88944 4.77994 9.00049 4.77994C9.11154 4.77994 9.2215 4.80186 9.32406 4.84445C9.42662 4.88703 9.51976 4.94945 9.59815 5.02811L15.2231 10.6531C15.3817 10.8116 15.4707 11.0266 15.4707 11.2508C15.4707 11.4749 15.3817 11.6899 15.2231 11.8484C15.0646 12.0069 14.8497 12.096 14.6255 12.096C14.4013 12.096 14.1863 12.0069 14.0278 11.8484L8.99979 6.82037L3.97174 11.8491C3.81323 12.0076 3.59825 12.0967 3.37408 12.0967C3.14992 12.0967 2.93494 12.0076 2.77643 11.8491C2.61792 11.6906 2.52887 11.4756 2.52887 11.2515C2.52887 11.0273 2.61792 10.8123 2.77643 10.6538L2.77783 10.6531Z" fill="#2F353D"/>
</svg>
