<svg width="18" height="19" viewBox="0 0 18 19" fill="none" xmlns="http://www.w3.org/2000/svg">
  <path d="M2.77979 11.1531L8.40479 5.52811C8.48317 5.44945 8.57632 5.38703 8.67888 5.34445C8.78144 5.30186 8.89139 5.27994 9.00244 5.27994C9.11349 5.27994 9.22345 5.30186 9.32601 5.34445C9.42857 5.38703 9.52171 5.44945 9.6001 5.52811L15.2251 11.1531C15.3836 11.3116 15.4727 11.5266 15.4727 11.7508C15.4727 11.9749 15.3836 12.1899 15.2251 12.3484C15.0666 12.5069 14.8516 12.596 14.6274 12.596C14.4033 12.596 14.1883 12.5069 14.0298 12.3484L9.00174 7.32037L3.97369 12.3491C3.81519 12.5076 3.6002 12.5967 3.37604 12.5967C3.15187 12.5967 2.93689 12.5076 2.77838 12.3491C2.61987 12.1906 2.53082 11.9756 2.53082 11.7515C2.53082 11.5273 2.61987 11.3123 2.77838 11.1538L2.77979 11.1531Z" fill="#5898FF" />
</svg>