<svg width="8" height="15" viewBox="0 0 8 15" fill="none" xmlns="http://www.w3.org/2000/svg">
<path d="M0.635449 0.608199C0.521236 0.655481 0.423609 0.735569 0.354913 0.838335C0.286217 0.941101 0.249537 1.06193 0.249511 1.18554L0.249512 13.6855C0.249415 13.8092 0.286017 13.9302 0.354687 14.033C0.423356 14.1359 0.521003 14.2161 0.635268 14.2634C0.749532 14.3108 0.875276 14.3232 0.996579 14.299C1.11788 14.2748 1.22929 14.2152 1.3167 14.1277L7.5667 7.87773C7.62481 7.81968 7.67091 7.75075 7.70236 7.67488C7.73381 7.59901 7.75 7.51768 7.75 7.43554C7.75 7.35341 7.73381 7.27208 7.70236 7.1962C7.67091 7.12033 7.62481 7.0514 7.5667 6.99335L1.3167 0.743355C1.22924 0.655976 1.11784 0.596496 0.996576 0.572437C0.875313 0.54838 0.749639 0.560825 0.635449 0.608199Z" fill="#9098B4"/>
</svg>
