<svg width="50" height="50" viewBox="0 0 50 50" fill="none" xmlns="http://www.w3.org/2000/svg">
<rect width="50" height="50" transform="matrix(-1 0 0 1 50 0)" fill="white"/>
<path d="M28.125 31.125V19.4896C28.1262 19.2827 28.0657 19.0801 27.9514 18.9077C27.837 18.7353 27.6739 18.6009 27.4828 18.5215C27.2917 18.4422 27.0813 18.4215 26.8784 18.4622C26.6756 18.5029 26.4894 18.6031 26.3437 18.75L20.5312 24.573C20.3372 24.7681 20.2283 25.0321 20.2283 25.3073C20.2283 25.5825 20.3372 25.8465 20.5312 26.0417L26.3437 31.8646C26.4894 32.0115 26.6756 32.1117 26.8784 32.1524C27.0813 32.1931 27.2917 32.1725 27.4828 32.0931C27.6739 32.0138 27.837 31.8793 27.9514 31.7069C28.0657 31.5345 28.1262 31.3319 28.125 31.125Z" fill="#9098B4"/>
</svg>
