<svg width="80" height="80" viewBox="0 0 80 80" fill="none" xmlns="http://www.w3.org/2000/svg">
<rect width="80" height="80" rx="40" fill="#F9FAFC"/>
<path d="M44.2741 47.9253C44.3664 48.0668 44.4187 48.2305 44.4256 48.3992C44.4324 48.568 44.3936 48.7354 44.3132 48.8839C44.2328 49.0324 44.1137 49.1564 43.9686 49.2428C43.8236 49.3293 43.6578 49.3749 43.489 49.3749H26.1991C26.0302 49.3749 25.8645 49.3293 25.7194 49.2428C25.5743 49.1564 25.4553 49.0324 25.3749 48.8839C25.2944 48.7354 25.2556 48.568 25.2625 48.3992C25.2694 48.2305 25.3217 48.0668 25.4139 47.9253C26.7336 45.894 28.6747 44.3439 30.9475 43.5062C29.6911 42.6697 28.7371 41.451 28.2268 40.0305C27.7165 38.6099 27.6769 37.0628 28.1138 35.6179C28.5508 34.1731 29.4411 32.9072 30.6531 32.0075C31.8652 31.1078 33.3346 30.6221 34.844 30.6221C36.3535 30.6221 37.8229 31.1078 39.0349 32.0075C40.247 32.9072 41.1373 34.1731 41.5742 35.6179C42.0112 37.0628 41.9716 38.6099 41.4613 40.0305C40.9509 41.451 39.997 42.6697 38.7405 43.5062C41.0134 44.3439 42.9545 45.894 44.2741 47.9253ZM54.5761 47.9077C53.2561 45.885 51.3193 44.3415 49.053 43.5062C50.5364 42.507 51.5832 40.9801 51.9804 39.2363C52.3777 37.4924 52.0955 35.6628 51.1912 34.1197C50.287 32.5766 48.8287 31.4361 47.1133 30.9303C45.3978 30.4246 43.554 30.5915 41.9573 31.3972C41.8963 31.4287 41.8429 31.4733 41.801 31.5277C41.759 31.5822 41.7296 31.6452 41.7147 31.7123C41.6999 31.7793 41.6999 31.8489 41.7149 31.9159C41.7299 31.983 41.7594 32.0459 41.8014 32.1003C42.9888 33.5813 43.6706 35.4036 43.7472 37.3003C43.8237 39.1969 43.2909 41.0683 42.2268 42.6402C42.1581 42.7429 42.1326 42.8686 42.1561 42.99C42.1796 43.1114 42.2501 43.2185 42.3522 43.2882C43.7396 44.2565 44.9273 45.4832 45.8503 46.9011C46.2225 47.4712 46.3746 48.1572 46.278 48.8312C46.2671 48.8982 46.271 48.9668 46.2892 49.0322C46.3075 49.0976 46.3398 49.1583 46.3838 49.21C46.4278 49.2617 46.4826 49.3033 46.5442 49.3317C46.6059 49.3602 46.673 49.375 46.7409 49.3749H53.8073C54.0137 49.375 54.2144 49.3069 54.3782 49.1813C54.542 49.0556 54.6598 48.8794 54.7132 48.68C54.7458 48.5489 54.7504 48.4123 54.7268 48.2793C54.7032 48.1462 54.6518 48.0196 54.5761 47.9077Z" fill="#5898FF"/>
</svg>
