<svg width="222" height="222" viewBox="0 0 222 222" fill="none" xmlns="http://www.w3.org/2000/svg">
<rect width="222" height="222" rx="10" fill="#F4F6F8"/>
<path d="M100.356 107.953H97.0359C96.9412 107.408 96.7666 106.926 96.5121 106.506C96.2576 106.08 95.9409 105.719 95.5621 105.423C95.1834 105.127 94.7513 104.905 94.266 104.757C93.7866 104.603 93.2687 104.526 92.7124 104.526C91.724 104.526 90.848 104.775 90.0845 105.272C89.321 105.763 88.7232 106.485 88.2912 107.438C87.8591 108.385 87.6431 109.542 87.6431 110.909C87.6431 112.3 87.8591 113.472 88.2912 114.425C88.7292 115.372 89.3269 116.088 90.0845 116.573C90.848 117.053 91.721 117.292 92.7035 117.292C93.248 117.292 93.757 117.221 94.2305 117.079C94.7099 116.931 95.139 116.715 95.5178 116.431C95.9025 116.147 96.225 115.798 96.4854 115.384C96.7518 114.969 96.9353 114.496 97.0359 113.963L100.356 113.981C100.232 114.845 99.9626 115.656 99.5483 116.413C99.1399 117.171 98.6043 117.84 97.9414 118.42C97.2785 118.994 96.5032 119.444 95.6154 119.769C94.7276 120.089 93.7422 120.249 92.6591 120.249C91.0611 120.249 89.6347 119.879 88.38 119.139C87.1252 118.399 86.1368 117.331 85.4148 115.934C84.6927 114.537 84.3317 112.862 84.3317 110.909C84.3317 108.95 84.6957 107.275 85.4237 105.884C86.1516 104.487 87.143 103.419 88.3977 102.679C89.6525 101.94 91.0729 101.57 92.6591 101.57C93.6712 101.57 94.6122 101.712 95.4822 101.996C96.3523 102.28 97.1276 102.697 97.8082 103.248C98.4889 103.792 99.0482 104.461 99.4862 105.254C99.93 106.041 100.22 106.941 100.356 107.953ZM118.207 101.818V120H114.94V104.553H106.986V120H103.719V101.818H118.207ZM124.482 120H120.966L127.367 101.818H131.433L137.843 120H134.327L129.471 105.547H129.329L124.482 120ZM124.597 112.871H134.185V115.517H124.597V112.871Z" fill="#9098B4"/>
</svg>
