<svg width="25" height="25" viewBox="0 0 25 25" fill="none" xmlns="http://www.w3.org/2000/svg">
    <path d="M24.9344 2.26566C24.9344 2.26566 24.9344 2.27682 24.9344 2.28241L18.4385 23.7084C18.3402 24.0564 18.1378 24.3661 17.8585 24.5957C17.5792 24.8254 17.2363 24.9641 16.8759 24.9933C16.8246 24.9978 16.7732 25 16.7219 25C16.3841 25.001 16.0531 24.9054 15.7679 24.7245C15.4828 24.5435 15.2553 24.2847 15.1124 23.9786L11.0497 15.6399C11.009 15.5563 10.9954 15.4622 11.0109 15.3705C11.0263 15.2789 11.0699 15.1943 11.1356 15.1287L17.6003 8.66311C17.7607 8.49427 17.8488 8.26945 17.8458 8.03658C17.8428 7.80371 17.749 7.58122 17.5843 7.41655C17.4197 7.25187 17.1972 7.15804 16.9644 7.15506C16.7315 7.15208 16.5067 7.24018 16.3379 7.40059L9.86991 13.8661C9.80424 13.9319 9.7197 13.9755 9.62807 13.9909C9.53643 14.0063 9.44227 13.9927 9.35872 13.9521L1.01336 9.88991C0.687024 9.73333 0.415965 9.48127 0.236102 9.16713C0.056239 8.85299 -0.0239355 8.4916 0.00620289 8.13086C0.0363413 7.77012 0.17537 7.42705 0.404864 7.14712C0.634359 6.8672 0.943486 6.66362 1.29128 6.56337L22.7144 0.0665728H22.7312C23.0362 -0.0191342 23.3585 -0.0221388 23.6651 0.0578671C23.9716 0.137873 24.2514 0.298009 24.4757 0.521845C24.6999 0.745681 24.8606 1.02516 24.9412 1.3316C25.0218 1.63805 25.0195 1.96043 24.9344 2.26566Z" fill="#5898FF" />
</svg>