<svg width="30" height="30" viewBox="0 0 30 30" fill="none" xmlns="http://www.w3.org/2000/svg">
<rect width="30" height="30" rx="15" fill="#EFF5FF"/>
<path d="M7.17969 14.46C7.17969 14.86 7.34635 15.1667 7.67969 15.38L14.3797 19.84C14.553 19.96 14.7397 20.0267 14.9397 20.04C15.1397 20.0533 15.333 20.0067 15.5197 19.9C15.7064 19.7933 15.853 19.6533 15.9597 19.48C16.0664 19.3067 16.1197 19.12 16.1197 18.92V16.68C17.5597 16.68 18.853 17.0933 19.9997 17.92C21.1464 18.7467 21.953 19.82 22.4197 21.14C22.6864 20.3933 22.8197 19.6533 22.8197 18.92C22.8197 17.7067 22.5197 16.5867 21.9197 15.56C21.3197 14.5333 20.5064 13.72 19.4797 13.12C18.453 12.52 17.333 12.22 16.1197 12.22V9.98001C16.1197 9.78001 16.0664 9.59334 15.9597 9.42001C15.853 9.24668 15.7064 9.10668 15.5197 9.00001C15.333 8.89334 15.1397 8.84668 14.9397 8.86001C14.7397 8.87334 14.553 8.94001 14.3797 9.06001L7.67969 13.52C7.34635 13.7333 7.17969 14.0467 7.17969 14.46Z" fill="#5898FF"/>
</svg>
