<svg width="15" height="16" viewBox="0 0 15 16" fill="none" xmlns="http://www.w3.org/2000/svg">
<path d="M12.5189 6.45641L7.83141 11.1439C7.78788 11.1875 7.73618 11.2221 7.67928 11.2457C7.62237 11.2692 7.56137 11.2814 7.49977 11.2814C7.43817 11.2814 7.37717 11.2692 7.32027 11.2457C7.26336 11.2221 7.21167 11.1875 7.16813 11.1439L2.48063 6.45641C2.39268 6.36846 2.34326 6.24916 2.34326 6.12477C2.34326 6.00038 2.39268 5.88109 2.48063 5.79313C2.56859 5.70517 2.68788 5.65576 2.81227 5.65576C2.93666 5.65576 3.05596 5.70517 3.14391 5.79313L7.49977 10.1496L11.8556 5.79313C11.8992 5.74958 11.9509 5.71503 12.0078 5.69146C12.0647 5.66789 12.1257 5.65576 12.1873 5.65576C12.2489 5.65576 12.3099 5.66789 12.3668 5.69146C12.4237 5.71503 12.4754 5.74958 12.5189 5.79313C12.5625 5.83668 12.597 5.88839 12.6206 5.94529C12.6442 6.00219 12.6563 6.06318 12.6563 6.12477C12.6563 6.18636 12.6442 6.24735 12.6206 6.30426C12.597 6.36116 12.5625 6.41286 12.5189 6.45641Z" fill="#5898FF"/>
</svg>
