<svg width="18" height="19" viewBox="0 0 18 19" fill="none" xmlns="http://www.w3.org/2000/svg">
    <path d="M17.6208 16.6802C17.8622 16.935 17.9979 17.2807 17.9979 17.6411C17.9979 18.0015 17.8622 18.3471 17.6208 18.602C17.3793 18.8568 17.0518 19 16.7104 19C16.3689 19 16.0415 18.8568 15.8 18.602L9 11.4224L2.19785 18.5997C1.9564 18.8546 1.62893 18.9977 1.28747 18.9977C0.946013 18.9977 0.61854 18.8546 0.377092 18.5997C0.135644 18.3449 5.08813e-09 17.9992 0 17.6388C-5.08813e-09 17.2784 0.135644 16.9328 0.377092 16.6779L7.17924 9.50057L0.379234 2.32095C0.137786 2.0661 0.00214212 1.72046 0.00214212 1.36005C0.00214212 0.999641 0.137786 0.653995 0.379234 0.399148C0.620682 0.144302 0.948155 0.00113028 1.28961 0.00113028C1.63107 0.00113028 1.95855 0.144302 2.19999 0.399148L9 7.57877L15.8021 0.398017C16.0436 0.143171 16.3711 -6.00439e-09 16.7125 0C17.054 6.00439e-09 17.3815 0.143171 17.6229 0.398017C17.8644 0.652864 18 0.99851 18 1.35892C18 1.71932 17.8644 2.06497 17.6229 2.31982L10.8208 9.50057L17.6208 16.6802Z" fill="#5898FF" />
</svg>