<svg width="18" height="18" viewBox="0 0 18 18" fill="none" xmlns="http://www.w3.org/2000/svg">
    <path d="M15.2222 7.34738L9.59717 12.9724C9.51878 13.051 9.42564 13.1135 9.32308 13.156C9.22052 13.1986 9.11056 13.2205 8.99951 13.2205C8.88846 13.2205 8.7785 13.1986 8.67594 13.156C8.57338 13.1135 8.48024 13.051 8.40185 12.9724L2.77685 7.34738C2.61835 7.18887 2.5293 6.97389 2.5293 6.74973C2.5293 6.52556 2.61835 6.31058 2.77685 6.15207C2.93536 5.99356 3.15035 5.90451 3.37451 5.90451C3.59868 5.90451 3.81366 5.99356 3.97217 6.15207L9.00021 11.1801L14.0283 6.15137C14.1868 5.99286 14.4018 5.90381 14.6259 5.90381C14.8501 5.90381 15.0651 5.99286 15.2236 6.15137C15.3821 6.30988 15.4711 6.52486 15.4711 6.74902C15.4711 6.97319 15.3821 7.18817 15.2236 7.34668L15.2222 7.34738Z" fill="#2F353D"/>
</svg>
