<svg width="19" height="18" viewBox="0 0 19 18" fill="none" xmlns="http://www.w3.org/2000/svg">
    <path d="M15.5552 7.34738L9.93017 12.9724C9.85179 13.051 9.75864 13.1135 9.65608 13.156C9.55352 13.1986 9.44357 13.2205 9.33252 13.2205C9.22147 13.2205 9.11151 13.1986 9.00895 13.156C8.90639 13.1135 8.81325 13.051 8.73486 12.9724L3.10986 7.34738C2.95135 7.18887 2.8623 6.97389 2.8623 6.74973C2.8623 6.52556 2.95135 6.31058 3.10986 6.15207C3.26837 5.99356 3.48335 5.90451 3.70752 5.90451C3.93168 5.90451 4.14667 5.99356 4.30517 6.15207L9.33322 11.1801L14.3613 6.15137C14.5198 5.99286 14.7348 5.90381 14.9589 5.90381C15.1831 5.90381 15.3981 5.99286 15.5566 6.15137C15.7151 6.30987 15.8041 6.52486 15.8041 6.74902C15.8041 6.97319 15.7151 7.18817 15.5566 7.34668L15.5552 7.34738Z" fill="#5898FF"/>
</svg>
