<svg width="40" height="40" viewBox="0 0 40 40" fill="none" xmlns="http://www.w3.org/2000/svg">
<rect width="40" height="40" fill="white"/>
<path d="M19.5 22.6738C21.2529 22.6738 22.6738 21.2529 22.6738 19.5C22.6738 17.7471 21.2529 16.3262 19.5 16.3262C17.7471 16.3262 16.3262 17.7471 16.3262 19.5C16.3262 21.2529 17.7471 22.6738 19.5 22.6738Z" fill="#9098B4"/>
<path d="M28.8262 22.6738C30.579 22.6738 32 21.2529 32 19.5C32 17.7471 30.579 16.3262 28.8262 16.3262C27.0733 16.3262 25.6523 17.7471 25.6523 19.5C25.6523 21.2529 27.0733 22.6738 28.8262 22.6738Z" fill="#9098B4"/>
<path d="M10.1738 22.6738C11.9267 22.6738 13.3477 21.2529 13.3477 19.5C13.3477 17.7471 11.9267 16.3262 10.1738 16.3262C8.42097 16.3262 7 17.7471 7 19.5C7 21.2529 8.42097 22.6738 10.1738 22.6738Z" fill="#9098B4"/>
</svg>
