<svg width="18" height="18" viewBox="0 0 18 18" fill="none" xmlns="http://www.w3.org/2000/svg">
  <path d="M8.71875 13.5C8.71875 13.7238 8.62986 13.9384 8.47162 14.0966C8.31339 14.2549 8.09878 14.3438 7.875 14.3438H2.8125C2.58872 14.3438 2.37411 14.2549 2.21588 14.0966C2.05764 13.9384 1.96875 13.7238 1.96875 13.5C1.96875 13.2762 2.05764 13.0616 2.21588 12.9034C2.37411 12.7451 2.58872 12.6562 2.8125 12.6562H7.875C8.09878 12.6562 8.31339 12.7451 8.47162 12.9034C8.62986 13.0616 8.71875 13.2762 8.71875 13.5ZM2.8125 5.34375H15.1875C15.4113 5.34375 15.6259 5.25486 15.7841 5.09662C15.9424 4.93839 16.0312 4.72378 16.0312 4.5C16.0312 4.27622 15.9424 4.06161 15.7841 3.90338C15.6259 3.74514 15.4113 3.65625 15.1875 3.65625H2.8125C2.58872 3.65625 2.37411 3.74514 2.21588 3.90338C2.05764 4.06161 1.96875 4.27622 1.96875 4.5C1.96875 4.72378 2.05764 4.93839 2.21588 5.09662C2.37411 5.25486 2.58872 5.34375 2.8125 5.34375ZM2.8125 9.84375H6.75C6.97378 9.84375 7.18839 9.75485 7.34662 9.59662C7.50486 9.43839 7.59375 9.22378 7.59375 9C7.59375 8.77622 7.50486 8.56161 7.34662 8.40338C7.18839 8.24514 6.97378 8.15625 6.75 8.15625H2.8125C2.58872 8.15625 2.37411 8.24514 2.21588 8.40338C2.05764 8.56161 1.96875 8.77622 1.96875 9C1.96875 9.22378 2.05764 9.43839 2.21588 9.59662C2.37411 9.75485 2.58872 9.84375 2.8125 9.84375ZM17.7188 10.125C17.7188 11.3203 17.0487 12.4847 15.7275 13.5858C15.1555 14.0596 14.5355 14.4722 13.8776 14.817C13.7604 14.8756 13.6311 14.9062 13.5 14.9062C13.3689 14.9062 13.2396 14.8756 13.1224 14.817C12.4645 14.4722 11.8445 14.0596 11.2725 13.5858C9.95133 12.4847 9.28125 11.3203 9.28125 10.125C9.28156 9.6365 9.42322 9.15852 9.68913 8.74873C9.95504 8.33895 10.3339 8.01486 10.7799 7.81557C11.2259 7.61628 11.72 7.55031 12.2027 7.6256C12.6853 7.7009 13.1359 7.91425 13.5 8.23992C13.8641 7.91425 14.3147 7.7009 14.7973 7.6256C15.28 7.55031 15.7741 7.61628 16.2201 7.81557C16.6661 8.01486 17.045 8.33895 17.3109 8.74873C17.5768 9.15852 17.7184 9.6365 17.7188 10.125ZM16.0312 10.125C16.0312 9.90122 15.9424 9.68661 15.7841 9.52838C15.6259 9.37015 15.4113 9.28125 15.1875 9.28125C14.9637 9.28125 14.7491 9.37015 14.5909 9.52838C14.4326 9.68661 14.3438 9.90122 14.3438 10.125C14.3438 10.3488 14.2549 10.5634 14.0966 10.7216C13.9384 10.8799 13.7238 10.9688 13.5 10.9688C13.2762 10.9688 13.0616 10.8799 12.9034 10.7216C12.7451 10.5634 12.6562 10.3488 12.6562 10.125C12.6562 9.90122 12.5674 9.68661 12.4091 9.52838C12.2509 9.37015 12.0363 9.28125 11.8125 9.28125C11.5887 9.28125 11.3741 9.37015 11.2159 9.52838C11.0576 9.68661 10.9688 9.90122 10.9688 10.125C10.9688 11.3365 12.5754 12.5459 13.5 13.0985C14.4239 12.5466 16.0312 11.3365 16.0312 10.125Z" fill="#9098B4" />
</svg>