<svg width="20" height="21" viewBox="0 0 20 21" fill="none" xmlns="http://www.w3.org/2000/svg">
  <path d="M2.5 6.75024C2.5 6.58448 2.56585 6.42551 2.68306 6.3083C2.80027 6.19109 2.95924 6.12524 3.125 6.12524H6.02891C6.16362 5.67397 6.44038 5.27822 6.81803 4.99684C7.19568 4.71547 7.65405 4.56348 8.125 4.56348C8.59595 4.56348 9.05432 4.71547 9.43197 4.99684C9.80962 5.27822 10.0864 5.67397 10.2211 6.12524H16.875C17.0408 6.12524 17.1997 6.19109 17.3169 6.3083C17.4342 6.42551 17.5 6.58448 17.5 6.75024C17.5 6.916 17.4342 7.07497 17.3169 7.19218C17.1997 7.30939 17.0408 7.37524 16.875 7.37524H10.2211C10.0864 7.82651 9.80962 8.22225 9.43197 8.50363C9.05432 8.78501 8.59595 8.937 8.125 8.937C7.65405 8.937 7.19568 8.78501 6.81803 8.50363C6.44038 8.22225 6.16362 7.82651 6.02891 7.37524H3.125C2.95924 7.37524 2.80027 7.30939 2.68306 7.19218C2.56585 7.07497 2.5 6.916 2.5 6.75024ZM16.875 13.6252H15.2211C15.0864 13.174 14.8096 12.7782 14.432 12.4968C14.0543 12.2155 13.5959 12.0635 13.125 12.0635C12.6541 12.0635 12.1957 12.2155 11.818 12.4968C11.4404 12.7782 11.1636 13.174 11.0289 13.6252H3.125C2.95924 13.6252 2.80027 13.6911 2.68306 13.8083C2.56585 13.9255 2.5 14.0845 2.5 14.2502C2.5 14.416 2.56585 14.575 2.68306 14.6922C2.80027 14.8094 2.95924 14.8752 3.125 14.8752H11.0289C11.1636 15.3265 11.4404 15.7223 11.818 16.0036C12.1957 16.285 12.6541 16.437 13.125 16.437C13.5959 16.437 14.0543 16.285 14.432 16.0036C14.8096 15.7223 15.0864 15.3265 15.2211 14.8752H16.875C17.0408 14.8752 17.1997 14.8094 17.3169 14.6922C17.4342 14.575 17.5 14.416 17.5 14.2502C17.5 14.0845 17.4342 13.9255 17.3169 13.8083C17.1997 13.6911 17.0408 13.6252 16.875 13.6252Z" fill="#5898FF" />
</svg>