<svg width="25" height="21" viewBox="0 0 25 21" fill="none" xmlns="http://www.w3.org/2000/svg">
<path d="M23.4109 18.9221H21.8748V7.98456C21.8748 7.57016 21.7101 7.17273 21.4171 6.8797C21.1241 6.58668 20.7267 6.42206 20.3123 6.42206H16.0154C15.9118 6.42206 15.8124 6.46321 15.7392 6.53647C15.6659 6.60972 15.6248 6.70908 15.6248 6.81268V18.9221H14.0623V1.7746C14.0648 1.53122 14.012 1.29044 13.9078 1.07049C13.8036 0.850544 13.6507 0.657189 13.4607 0.505064C13.2017 0.303147 12.8857 0.187961 12.5575 0.175865C12.2294 0.163769 11.9057 0.255378 11.6326 0.437682L3.82008 5.64081C3.60576 5.7838 3.43013 5.97756 3.30881 6.20485C3.1875 6.43214 3.12427 6.6859 3.12476 6.94354V18.9221H1.58863C1.38674 18.9191 1.19121 18.9927 1.04138 19.128C0.891543 19.2633 0.798517 19.4504 0.781013 19.6515C0.773918 19.7584 0.78887 19.8656 0.824942 19.9664C0.861014 20.0673 0.917435 20.1596 0.9907 20.2377C1.06397 20.3159 1.15251 20.3781 1.25083 20.4205C1.34916 20.463 1.45516 20.4848 1.56226 20.4846H23.4373C23.5444 20.4848 23.6504 20.463 23.7487 20.4205C23.847 20.3781 23.9356 20.3159 24.0088 20.2377C24.0821 20.1596 24.1385 20.0673 24.1746 19.9664C24.2107 19.8656 24.2256 19.7584 24.2185 19.6515C24.201 19.4504 24.108 19.2633 23.9581 19.128C23.8083 18.9927 23.6128 18.9191 23.4109 18.9221ZM7.42164 16.5783C7.42187 16.6854 7.40009 16.7914 7.35763 16.8897C7.31517 16.9881 7.25295 17.0766 7.17483 17.1499C7.09671 17.2231 7.00436 17.2796 6.90352 17.3156C6.80268 17.3517 6.6955 17.3667 6.58863 17.3596C6.38731 17.342 6.20011 17.2489 6.06474 17.0988C5.92938 16.9488 5.85591 16.753 5.85914 16.551V15.0422C5.85639 14.8403 5.93005 14.6449 6.06534 14.4952C6.20064 14.3454 6.38757 14.2523 6.58863 14.2346C6.6955 14.2275 6.80268 14.2424 6.90352 14.2785C7.00436 14.3146 7.09671 14.371 7.17483 14.4442C7.25295 14.5175 7.31517 14.6061 7.35763 14.7044C7.40009 14.8027 7.42187 14.9087 7.42164 15.0158V16.5783ZM7.42164 11.1096C7.42187 11.2167 7.40009 11.3227 7.35763 11.421C7.31517 11.5193 7.25295 11.6079 7.17483 11.6811C7.09671 11.7544 7.00436 11.8108 6.90352 11.8469C6.80268 11.8829 6.6955 11.8979 6.58863 11.8908C6.3874 11.8731 6.20033 11.7798 6.06501 11.6298C5.92969 11.4798 5.85614 11.2842 5.85914 11.0822V9.57342C5.85639 9.3716 5.93005 9.1762 6.06534 9.02641C6.20064 8.87662 6.38757 8.78353 6.58863 8.76581C6.6955 8.75871 6.80268 8.77366 6.90352 8.80974C7.00436 8.84581 7.09671 8.90223 7.17483 8.97549C7.25295 9.04876 7.31517 9.1373 7.35763 9.23563C7.40009 9.33395 7.42187 9.43996 7.42164 9.54706V11.1096ZM11.3279 16.5783C11.3281 16.6854 11.3063 16.7914 11.2639 16.8897C11.2214 16.9881 11.1592 17.0766 11.0811 17.1499C11.003 17.2231 10.9106 17.2796 10.8098 17.3156C10.7089 17.3517 10.6017 17.3667 10.4949 17.3596C10.2939 17.3421 10.107 17.2492 9.97166 17.0996C9.83635 16.9499 9.76266 16.7546 9.76539 16.5529V15.0422C9.76289 14.8405 9.83666 14.6454 9.97193 14.4958C10.1072 14.3462 10.294 14.2532 10.4949 14.2355C10.6017 14.2284 10.7089 14.2434 10.8098 14.2795C10.9106 14.3155 11.003 14.372 11.0811 14.4452C11.1592 14.5185 11.2214 14.607 11.2639 14.7054C11.3063 14.8037 11.3281 14.9097 11.3279 15.0168V16.5783ZM11.3279 11.1096C11.3281 11.2167 11.3063 11.3227 11.2639 11.421C11.2214 11.5193 11.1592 11.6079 11.0811 11.6811C11.003 11.7544 10.9106 11.8108 10.8098 11.8469C10.7089 11.8829 10.6017 11.8979 10.4949 11.8908C10.294 11.8731 10.1072 11.7801 9.97193 11.6306C9.83666 11.481 9.76289 11.2858 9.76539 11.0842V9.57342C9.76289 9.37177 9.83666 9.17661 9.97193 9.02703C10.1072 8.87745 10.294 8.7845 10.4949 8.76678C10.6017 8.75969 10.7089 8.77464 10.8098 8.81071C10.9106 8.84678 11.003 8.9032 11.0811 8.97647C11.1592 9.04974 11.2214 9.13828 11.2639 9.2366C11.3063 9.33493 11.3281 9.44093 11.3279 9.54803V11.1096Z" fill="white"/>
</svg>
