<svg xmlns="http://www.w3.org/2000/svg" width="20" height="21" viewBox="0 0 20 21" fill="none">
    <g clip-path="url(#clip0_1235_3660)">
        <path d="M1.10551 10.4431L4.07217 12.6097L2.94551 16.0989C2.76343 16.6401 2.76113 17.2256 2.93893 17.7682C3.11673 18.3107 3.46513 18.7813 3.93217 19.1097C4.39122 19.4487 4.9475 19.6303 5.51813 19.6275C6.08877 19.6246 6.64321 19.4375 7.09884 19.0939L9.99967 16.9589L12.9013 19.0914C13.3596 19.4285 13.9128 19.6115 14.4816 19.6143C15.0505 19.6171 15.6055 19.4394 16.067 19.1068C16.5285 18.7743 16.8726 18.3039 17.0499 17.7635C17.2272 17.223 17.2286 16.6402 17.0538 16.0989L15.9272 12.6097L18.8938 10.4431C19.3515 10.1085 19.6916 9.63787 19.8658 9.0984C20.04 8.55894 20.0392 7.97823 19.8636 7.43923C19.688 6.90024 19.3465 6.43052 18.888 6.09717C18.4295 5.76381 17.8774 5.58389 17.3105 5.58308H13.6663L12.5605 2.13641C12.3866 1.59388 12.0449 1.12059 11.5846 0.784798C11.1244 0.449008 10.5694 0.268066 9.99967 0.268066C9.42995 0.268066 8.87495 0.449008 8.4147 0.784798C7.95445 1.12059 7.61274 1.59388 7.43884 2.13641L6.33301 5.58308H2.69217C2.12529 5.58389 1.57317 5.76381 1.11466 6.09717C0.656146 6.43052 0.314706 6.90024 0.139107 7.43923C-0.0364925 7.97823 -0.0372697 8.55894 0.136886 9.0984C0.311042 9.63787 0.651223 10.1085 1.10884 10.4431H1.10551Z"
              fill="white"/>
    </g>
    <defs>
        <clipPath id="clip0_1235_3660">
            <rect width="20" height="20" fill="white" transform="translate(0 0.109375)"/>
        </clipPath>
    </defs>
</svg>