<svg width="55" height="55" viewBox="0 0 55 55" fill="none" xmlns="http://www.w3.org/2000/svg">
    <rect x="21.4482" y="0.293335" width="52.6375" height="41.2519" rx="20.6259" transform="rotate(30 21.4482 0.293335)" fill="#5898FF" />
    <path d="M27.3436 17.9863H23.7021C23.5097 17.9863 23.3536 18.1367 23.3536 18.3219V19.93C23.3536 20.1152 23.5097 20.2655 23.7021 20.2655H25.2997C25.2997 20.2655 25.4085 27.8852 25.2997 29.4294C25.2697 29.85 25.1073 30.3739 24.6231 30.6078C24.0917 30.8644 23.4719 30.7763 22.6423 30.6867C22.6013 30.6822 22.5635 30.714 22.5635 30.7535V32.5787C22.5635 32.6076 22.584 32.6349 22.6139 32.644C23.5744 32.9264 24.2683 32.9325 25.4527 32.6744C26.0283 32.5499 27.7316 31.7967 27.7126 29.5433C27.7079 29.0437 27.6921 26.5428 27.6921 25.8383V18.3219C27.6921 18.1367 27.536 17.9863 27.3436 17.9863Z" fill="white" />
</svg>