<svg width="21" height="18" viewBox="0 0 21 18" fill="none" xmlns="http://www.w3.org/2000/svg">
<path d="M19.0938 0.515625H1.90625C1.49185 0.515625 1.09442 0.680245 0.801396 0.973271C0.50837 1.2663 0.34375 1.66372 0.34375 2.07812V16.1406C0.34375 16.555 0.50837 16.9525 0.801396 17.2455C1.09442 17.5385 1.49185 17.7031 1.90625 17.7031H19.0938C19.5082 17.7031 19.9056 17.5385 20.1986 17.2455C20.4916 16.9525 20.6562 16.555 20.6562 16.1406V2.07812C20.6562 1.66372 20.4916 1.2663 20.1986 0.973271C19.9056 0.680245 19.5082 0.515625 19.0938 0.515625ZM17.5312 13.7969C17.7385 13.7969 17.9372 13.8792 18.0837 14.0257C18.2302 14.1722 18.3125 14.3709 18.3125 14.5781C18.3125 14.7853 18.2302 14.984 18.0837 15.1306C17.9372 15.2771 17.7385 15.3594 17.5312 15.3594H3.46875C3.26155 15.3594 3.06284 15.2771 2.91632 15.1306C2.76981 14.984 2.6875 14.7853 2.6875 14.5781V3.64062C2.6875 3.43342 2.76981 3.23471 2.91632 3.0882C3.06284 2.94169 3.26155 2.85938 3.46875 2.85938C3.67595 2.85938 3.87466 2.94169 4.02118 3.0882C4.16769 3.23471 4.25 3.43342 4.25 3.64062V9.78516L7.65625 6.94629C7.78569 6.83843 7.94653 6.7753 8.11477 6.76632C8.28302 6.75735 8.44967 6.803 8.58984 6.89648L12.7891 9.69824L17.0283 6.16504C17.1876 6.03243 17.393 5.96853 17.5994 5.98739C17.8058 6.00626 17.9963 6.10634 18.1289 6.26562C18.2615 6.42491 18.3254 6.63035 18.3066 6.83675C18.2877 7.04315 18.1876 7.2336 18.0283 7.36621L13.3408 11.2725C13.2114 11.3803 13.0505 11.4435 12.8823 11.4524C12.714 11.4614 12.5474 11.4157 12.4072 11.3223L8.20801 8.52051L4.25 11.8193V13.7969H17.5312Z" fill="white"/>
</svg>
