<svg xmlns="http://www.w3.org/2000/svg" width="20" height="21" viewBox="0 0 20 21" fill="none">
    <g clip-path="url(#clip0_1235_3646)">
        <path d="M16.3958 2.40793C15.34 1.52931 14.1136 0.878897 12.794 0.497679C11.4743 0.11646 10.09 0.0126974 8.72831 0.192929C6.2092 0.520194 3.90905 1.79391 2.29492 3.75544C0.68078 5.71697 -0.126349 8.21928 0.0374187 10.7543C0.201186 13.2893 1.32357 15.6669 3.17668 17.4045C5.02978 19.142 7.4747 20.1092 10.015 20.1096H15.8333C16.938 20.1083 17.997 19.6689 18.7781 18.8877C19.5592 18.1066 19.9987 17.0476 20 15.9429V9.53376V9.48126C19.9118 8.11913 19.5467 6.78931 18.927 5.57311C18.3073 4.35691 17.446 3.27989 16.3958 2.40793ZM6.66665 5.94293H9.99998C10.221 5.94293 10.433 6.03073 10.5892 6.18701C10.7455 6.34329 10.8333 6.55525 10.8333 6.77626C10.8333 6.99728 10.7455 7.20924 10.5892 7.36552C10.433 7.5218 10.221 7.6096 9.99998 7.6096H6.66665C6.44563 7.6096 6.23367 7.5218 6.07739 7.36552C5.92111 7.20924 5.83331 6.99728 5.83331 6.77626C5.83331 6.55525 5.92111 6.34329 6.07739 6.18701C6.23367 6.03073 6.44563 5.94293 6.66665 5.94293ZM13.3333 14.2763H6.66665C6.44563 14.2763 6.23367 14.1885 6.07739 14.0322C5.92111 13.8759 5.83331 13.6639 5.83331 13.4429C5.83331 13.2219 5.92111 13.01 6.07739 12.8537C6.23367 12.6974 6.44563 12.6096 6.66665 12.6096H13.3333C13.5543 12.6096 13.7663 12.6974 13.9226 12.8537C14.0789 13.01 14.1666 13.2219 14.1666 13.4429C14.1666 13.6639 14.0789 13.8759 13.9226 14.0322C13.7663 14.1885 13.5543 14.2763 13.3333 14.2763ZM13.3333 10.9429H6.66665C6.44563 10.9429 6.23367 10.8551 6.07739 10.6989C5.92111 10.5426 5.83331 10.3306 5.83331 10.1096C5.83331 9.88858 5.92111 9.67662 6.07739 9.52034C6.23367 9.36406 6.44563 9.27626 6.66665 9.27626H13.3333C13.5543 9.27626 13.7663 9.36406 13.9226 9.52034C14.0789 9.67662 14.1666 9.88858 14.1666 10.1096C14.1666 10.3306 14.0789 10.5426 13.9226 10.6989C13.7663 10.8551 13.5543 10.9429 13.3333 10.9429Z"
              fill="white"/>
    </g>
    <defs>
        <clipPath id="clip0_1235_3646">
            <rect width="20" height="20" fill="white" transform="translate(0 0.109375)"/>
        </clipPath>
    </defs>
</svg>