<svg xmlns="http://www.w3.org/2000/svg" width="20" height="21" viewBox="0 0 20 21" fill="none">
    <g clip-path="url(#clip0_1235_3624)">
        <path d="M15.8333 3.44271H14.9167C14.7233 2.50222 14.2115 1.65716 13.4677 1.04997C12.7239 0.442783 11.7935 0.110587 10.8333 0.109375L9.16667 0.109375C8.2065 0.110587 7.2761 0.442783 6.53229 1.04997C5.78848 1.65716 5.27675 2.50222 5.08333 3.44271H4.16667C3.062 3.44403 2.00296 3.88344 1.22185 4.66456C0.440735 5.44567 0.00132321 6.50471 0 7.60938L0 10.1094H20V7.60938C19.9987 6.50471 19.5593 5.44567 18.7782 4.66456C17.997 3.88344 16.938 3.44403 15.8333 3.44271ZM6.82 3.44271C6.99174 2.95695 7.30936 2.53612 7.72942 2.23778C8.14948 1.93944 8.65145 1.77818 9.16667 1.77604H10.8333C11.3485 1.77818 11.8505 1.93944 12.2706 2.23778C12.6906 2.53612 13.0083 2.95695 13.18 3.44271H6.82Z"
              fill="white"/>
        <path d="M10.8333 12.6092C10.8333 12.8302 10.7455 13.0422 10.5893 13.1985C10.433 13.3547 10.221 13.4425 10 13.4425C9.77899 13.4425 9.56702 13.3547 9.41074 13.1985C9.25446 13.0422 9.16667 12.8302 9.16667 12.6092V11.7759H0V15.9425C0.00132321 17.0472 0.440735 18.1062 1.22185 18.8873C2.00296 19.6685 3.062 20.1079 4.16667 20.1092H15.8333C16.938 20.1079 17.997 19.6685 18.7782 18.8873C19.5593 18.1062 19.9987 17.0472 20 15.9425V11.7759H10.8333V12.6092Z"
              fill="white"/>
    </g>
    <defs>
        <clipPath id="clip0_1235_3624">
            <rect width="20" height="20" fill="white" transform="translate(0 0.109375)"/>
        </clipPath>
    </defs>
</svg>