<svg width="19" height="22" viewBox="0 0 19 22" fill="none" xmlns="http://www.w3.org/2000/svg">
<path d="M17.8652 6.65039L12.3965 1.18164C12.3239 1.10911 12.2377 1.0516 12.1429 1.01239C12.048 0.973184 11.9464 0.953045 11.8438 0.953125H2.46875C2.05435 0.953125 1.65692 1.11775 1.3639 1.41077C1.07087 1.7038 0.90625 2.10122 0.90625 2.51563V19.7031C0.90625 20.1175 1.07087 20.515 1.3639 20.808C1.65692 21.101 2.05435 21.2656 2.46875 21.2656H16.5312C16.9457 21.2656 17.3431 21.101 17.6361 20.808C17.9291 20.515 18.0938 20.1175 18.0938 19.7031V7.20312C18.0938 7.1005 18.0737 6.99886 18.0345 6.90402C17.9953 6.80918 17.9378 6.723 17.8652 6.65039ZM12.625 15.7969H6.375C6.1678 15.7969 5.96909 15.7146 5.82257 15.5681C5.67606 15.4215 5.59375 15.2228 5.59375 15.0156C5.59375 14.8084 5.67606 14.6097 5.82257 14.4632C5.96909 14.3167 6.1678 14.2344 6.375 14.2344H12.625C12.8322 14.2344 13.0309 14.3167 13.1774 14.4632C13.3239 14.6097 13.4062 14.8084 13.4062 15.0156C13.4062 15.2228 13.3239 15.4215 13.1774 15.5681C13.0309 15.7146 12.8322 15.7969 12.625 15.7969ZM12.625 12.6719H6.375C6.1678 12.6719 5.96909 12.5896 5.82257 12.4431C5.67606 12.2965 5.59375 12.0978 5.59375 11.8906C5.59375 11.6834 5.67606 11.4847 5.82257 11.3382C5.96909 11.1917 6.1678 11.1094 6.375 11.1094H12.625C12.8322 11.1094 13.0309 11.1917 13.1774 11.3382C13.3239 11.4847 13.4062 11.6834 13.4062 11.8906C13.4062 12.0978 13.3239 12.2965 13.1774 12.4431C13.0309 12.5896 12.8322 12.6719 12.625 12.6719ZM11.8438 7.20312V2.90625L16.1406 7.20312H11.8438Z" fill="white"/>
</svg>
