<svg xmlns="http://www.w3.org/2000/svg" width="20" height="21" viewBox="0 0 20 21" fill="none">
    <g clip-path="url(#clip0_1235_3629)">
        <path d="M19.1663 13.4429C18.9453 13.4429 18.7334 13.5307 18.5771 13.6869C18.4208 13.8432 18.333 14.0552 18.333 14.2762V15.9429C18.333 16.6059 18.0696 17.2418 17.6008 17.7106C17.1319 18.1795 16.496 18.4429 15.833 18.4429H14.1663C13.9453 18.4429 13.7334 18.5307 13.5771 18.6869C13.4208 18.8432 13.333 19.0552 13.333 19.2762C13.333 19.4972 13.4208 19.7092 13.5771 19.8654C13.7334 20.0217 13.9453 20.1095 14.1663 20.1095H15.833C16.9377 20.1082 17.9967 19.6688 18.7778 18.8877C19.5589 18.1066 19.9983 17.0475 19.9997 15.9429V14.2762C19.9997 14.0552 19.9119 13.8432 19.7556 13.6869C19.5993 13.5307 19.3873 13.4429 19.1663 13.4429Z"
              fill="white"/>
        <path d="M0.833333 6.77604C1.05435 6.77604 1.26631 6.68824 1.42259 6.53196C1.57887 6.37568 1.66667 6.16372 1.66667 5.94271V4.27604C1.66667 3.613 1.93006 2.97712 2.3989 2.50827C2.86774 2.03943 3.50363 1.77604 4.16667 1.77604H5.83333C6.05435 1.77604 6.26631 1.68824 6.42259 1.53196C6.57887 1.37568 6.66667 1.16372 6.66667 0.942708C6.66667 0.721695 6.57887 0.509733 6.42259 0.353453C6.26631 0.197172 6.05435 0.109375 5.83333 0.109375L4.16667 0.109375C3.062 0.110698 2.00296 0.55011 1.22185 1.33122C0.440735 2.11234 0.00132321 3.17138 0 4.27604L0 5.94271C0 6.16372 0.0877974 6.37568 0.244078 6.53196C0.400358 6.68824 0.61232 6.77604 0.833333 6.77604Z"
              fill="white"/>
        <path d="M5.83333 18.4429H4.16667C3.50363 18.4429 2.86774 18.1795 2.3989 17.7106C1.93006 17.2418 1.66667 16.6059 1.66667 15.9429V14.2762C1.66667 14.0552 1.57887 13.8432 1.42259 13.6869C1.26631 13.5307 1.05435 13.4429 0.833333 13.4429C0.61232 13.4429 0.400358 13.5307 0.244078 13.6869C0.0877974 13.8432 0 14.0552 0 14.2762L0 15.9429C0.00132321 17.0475 0.440735 18.1066 1.22185 18.8877C2.00296 19.6688 3.062 20.1082 4.16667 20.1095H5.83333C6.05435 20.1095 6.26631 20.0217 6.42259 19.8654C6.57887 19.7092 6.66667 19.4972 6.66667 19.2762C6.66667 19.0552 6.57887 18.8432 6.42259 18.6869C6.26631 18.5307 6.05435 18.4429 5.83333 18.4429Z"
              fill="white"/>
        <path d="M15.833 0.109375H14.1663C13.9453 0.109375 13.7334 0.197172 13.5771 0.353453C13.4208 0.509733 13.333 0.721695 13.333 0.942708C13.333 1.16372 13.4208 1.37568 13.5771 1.53196C13.7334 1.68824 13.9453 1.77604 14.1663 1.77604H15.833C16.496 1.77604 17.1319 2.03943 17.6008 2.50827C18.0696 2.97712 18.333 3.613 18.333 4.27604V5.94271C18.333 6.16372 18.4208 6.37568 18.5771 6.53196C18.7334 6.68824 18.9453 6.77604 19.1663 6.77604C19.3873 6.77604 19.5993 6.68824 19.7556 6.53196C19.9119 6.37568 19.9997 6.16372 19.9997 5.94271V4.27604C19.9983 3.17138 19.5589 2.11234 18.7778 1.33122C17.9967 0.55011 16.9377 0.110698 15.833 0.109375V0.109375Z"
              fill="white"/>
        <path d="M10.0003 9.27604C11.8413 9.27604 13.3336 7.78366 13.3336 5.94271C13.3336 4.10176 11.8413 2.60938 10.0003 2.60938C8.15937 2.60938 6.66699 4.10176 6.66699 5.94271C6.66699 7.78366 8.15937 9.27604 10.0003 9.27604Z"
              fill="white"/>
        <path d="M9.16699 10.9429C7.84132 10.9442 6.57032 11.4714 5.63292 12.4088C4.69553 13.3462 4.16832 14.6172 4.16699 15.9429C4.16699 16.1639 4.25479 16.3758 4.41107 16.5321C4.56735 16.6884 4.77931 16.7762 5.00033 16.7762H15.0003C15.2213 16.7762 15.4333 16.6884 15.5896 16.5321C15.7459 16.3758 15.8337 16.1639 15.8337 15.9429C15.8323 14.6172 15.3051 13.3462 14.3677 12.4088C13.4303 11.4714 12.1593 10.9442 10.8337 10.9429H9.16699Z"
              fill="white"/>
    </g>
    <defs>
        <clipPath id="clip0_1235_3629">
            <rect width="20" height="20" fill="white" transform="translate(0 0.109375)"/>
        </clipPath>
    </defs>
</svg>