<svg xmlns="http://www.w3.org/2000/svg" width="20" height="20" viewBox="0 0 20 20" fill="none">
    <g clip-path="url(#clip0_1235_3665)">
        <path d="M5.83328 10.0001C5.83344 9.18372 6.07495 8.38555 6.52745 7.70598L2.37078 3.54932C0.840303 5.35027 0 7.63672 0 10.0001C0 12.3636 0.840303 14.65 2.37078 16.451L6.52745 12.2943C6.07495 11.6147 5.83344 10.8166 5.83328 10.0001Z"
              fill="white"/>
        <path d="M17.6293 3.54932L13.4727 7.70598C13.9253 8.38549 14.1668 9.1837 14.1668 10.0001C14.1668 10.8166 13.9253 11.6148 13.4727 12.2943L17.6293 16.451C19.1598 14.65 20.0001 12.3636 20.0001 10.0001C20.0001 7.63672 19.1598 5.35027 17.6293 3.54932Z"
              fill="white"/>
        <path d="M9.99966 14.1663C9.18323 14.1662 8.38506 13.9247 7.70549 13.4722L3.54883 17.6288C5.34979 19.1593 7.63623 19.9996 9.99966 19.9996C12.3631 19.9996 14.6495 19.1593 16.4505 17.6288L12.2938 13.4722C11.6143 13.9247 10.8161 14.1662 9.99966 14.1663Z"
              fill="white"/>
        <path d="M9.99966 5.83377C10.8161 5.83393 11.6143 6.07544 12.2938 6.52794L16.4505 2.37127C14.6495 0.840792 12.3631 0.000488281 9.99966 0.000488281C7.63623 0.000488281 5.34979 0.840792 3.54883 2.37127L7.70549 6.52794C8.38506 6.07544 9.18323 5.83393 9.99966 5.83377Z"
              fill="white"/>
    </g>
    <defs>
        <clipPath id="clip0_1235_3665">
            <rect width="20" height="20" fill="white"/>
        </clipPath>
    </defs>
</svg>