<svg width="19" height="20" viewBox="0 0 19 20" fill="none" xmlns="http://www.w3.org/2000/svg">
<path d="M18.875 2.29688V5.03125C18.875 5.23845 18.7927 5.43716 18.6462 5.58368C18.4997 5.73019 18.301 5.8125 18.0938 5.8125C17.8865 5.8125 17.6878 5.73019 17.5413 5.58368C17.3948 5.43716 17.3125 5.23845 17.3125 5.03125V2.29688H14.5781C14.3709 2.29688 14.1722 2.21456 14.0257 2.06805C13.8792 1.92154 13.7969 1.72283 13.7969 1.51562C13.7969 1.30842 13.8792 1.10971 14.0257 0.963198C14.1722 0.816685 14.3709 0.734375 14.5781 0.734375H17.3125C17.7269 0.734375 18.1243 0.898995 18.4174 1.19202C18.7104 1.48505 18.875 1.88247 18.875 2.29688ZM18.0938 14.4062C17.8865 14.4062 17.6878 14.4886 17.5413 14.6351C17.3948 14.7816 17.3125 14.9803 17.3125 15.1875V17.9219H14.5781C14.3709 17.9219 14.1722 18.0042 14.0257 18.1507C13.8792 18.2972 13.7969 18.4959 13.7969 18.7031C13.7969 18.9103 13.8792 19.109 14.0257 19.2556C14.1722 19.4021 14.3709 19.4844 14.5781 19.4844H17.3125C17.7269 19.4844 18.1243 19.3198 18.4174 19.0267C18.7104 18.7337 18.875 18.3363 18.875 17.9219V15.1875C18.875 14.9803 18.7927 14.7816 18.6462 14.6351C18.4997 14.4886 18.301 14.4062 18.0938 14.4062ZM4.42188 17.9219H1.6875V15.1875C1.6875 14.9803 1.60519 14.7816 1.45868 14.6351C1.31216 14.4886 1.11345 14.4062 0.90625 14.4062C0.69905 14.4062 0.500336 14.4886 0.353823 14.6351C0.20731 14.7816 0.125 14.9803 0.125 15.1875V17.9219C0.125 18.3363 0.28962 18.7337 0.582646 19.0267C0.875671 19.3198 1.2731 19.4844 1.6875 19.4844H4.42188C4.62908 19.4844 4.82779 19.4021 4.9743 19.2556C5.12081 19.109 5.20312 18.9103 5.20312 18.7031C5.20312 18.4959 5.12081 18.2972 4.9743 18.1507C4.82779 18.0042 4.62908 17.9219 4.42188 17.9219ZM0.90625 5.8125C1.11345 5.8125 1.31216 5.73019 1.45868 5.58368C1.60519 5.43716 1.6875 5.23845 1.6875 5.03125V2.29688H4.42188C4.62908 2.29688 4.82779 2.21456 4.9743 2.06805C5.12081 1.92154 5.20312 1.72283 5.20312 1.51562C5.20312 1.30842 5.12081 1.10971 4.9743 0.963198C4.82779 0.816685 4.62908 0.734375 4.42188 0.734375H1.6875C1.2731 0.734375 0.875671 0.898995 0.582646 1.19202C0.28962 1.48505 0.125 1.88247 0.125 2.29688V5.03125C0.125 5.23845 0.20731 5.43716 0.353823 5.58368C0.500336 5.73019 0.69905 5.8125 0.90625 5.8125ZM6.86328 11.4287C5.80203 11.8891 4.8796 12.619 4.1875 13.5459C4.10017 13.662 4.04692 13.8001 4.03374 13.9447C4.02056 14.0894 4.04797 14.2349 4.11289 14.3648C4.1778 14.4947 4.27766 14.604 4.40125 14.6803C4.52483 14.7567 4.66725 14.797 4.8125 14.7969H14.1875C14.3328 14.797 14.4752 14.7567 14.5988 14.6803C14.7223 14.604 14.8222 14.4947 14.8871 14.3648C14.952 14.2349 14.9794 14.0894 14.9663 13.9447C14.9531 13.8001 14.8998 13.662 14.8125 13.5459C14.1204 12.619 13.198 11.8891 12.1367 11.4287C12.7184 10.8976 13.126 10.203 13.3059 9.43613C13.4858 8.66924 13.4297 7.86588 13.1449 7.13147C12.86 6.39706 12.3598 5.76591 11.7099 5.32087C11.0599 4.87583 10.2906 4.63768 9.50293 4.63768C8.71522 4.63768 7.94591 4.87583 7.29597 5.32087C6.64603 5.76591 6.14582 6.39706 5.86099 7.13147C5.57616 7.86588 5.52002 8.66924 5.69993 9.43613C5.87985 10.203 6.28741 10.8976 6.86914 11.4287H6.86328Z" fill="white"/>
</svg>
