<svg width="20" height="21" viewBox="0 0 20 21" fill="none" xmlns="http://www.w3.org/2000/svg">
    <g clip-path="url(#clip0_1235_3650)">
        <path d="M7.5 0.109375H4.16667C3.0616 0.109375 2.00179 0.548362 1.22039 1.32976C0.438987 2.11117 0 3.17097 0 4.27604L0 15.9427C0 16.4899 0.107774 17.0317 0.317169 17.5372C0.526563 18.0427 0.833478 18.5021 1.22039 18.889C2.00179 19.6704 3.0616 20.1094 4.16667 20.1094H11.6667V4.27604C11.6667 3.72887 11.5589 3.18705 11.3495 2.68153C11.1401 2.176 10.8332 1.71667 10.4463 1.32976C10.0594 0.942853 9.60004 0.635938 9.09451 0.426544C8.58899 0.217149 8.04717 0.109375 7.5 0.109375V0.109375ZM4.16667 15.9427H3.33333C3.11232 15.9427 2.90036 15.8549 2.74408 15.6986C2.5878 15.5424 2.5 15.3304 2.5 15.1094C2.5 14.8884 2.5878 14.6764 2.74408 14.5201C2.90036 14.3638 3.11232 14.276 3.33333 14.276H4.16667C4.38768 14.276 4.59964 14.3638 4.75592 14.5201C4.9122 14.6764 5 14.8884 5 15.1094C5 15.3304 4.9122 15.5424 4.75592 15.6986C4.59964 15.8549 4.38768 15.9427 4.16667 15.9427ZM4.16667 12.6094H3.33333C3.11232 12.6094 2.90036 12.5216 2.74408 12.3653C2.5878 12.209 2.5 11.9971 2.5 11.776C2.5 11.555 2.5878 11.3431 2.74408 11.1868C2.90036 11.0305 3.11232 10.9427 3.33333 10.9427H4.16667C4.38768 10.9427 4.59964 11.0305 4.75592 11.1868C4.9122 11.3431 5 11.555 5 11.776C5 11.9971 4.9122 12.209 4.75592 12.3653C4.59964 12.5216 4.38768 12.6094 4.16667 12.6094ZM4.16667 9.27604H3.33333C3.11232 9.27604 2.90036 9.18824 2.74408 9.03196C2.5878 8.87568 2.5 8.66372 2.5 8.44271C2.5 8.22169 2.5878 8.00973 2.74408 7.85345C2.90036 7.69717 3.11232 7.60938 3.33333 7.60938H4.16667C4.38768 7.60938 4.59964 7.69717 4.75592 7.85345C4.9122 8.00973 5 8.22169 5 8.44271C5 8.66372 4.9122 8.87568 4.75592 9.03196C4.59964 9.18824 4.38768 9.27604 4.16667 9.27604ZM4.16667 5.94271H3.33333C3.11232 5.94271 2.90036 5.85491 2.74408 5.69863C2.5878 5.54235 2.5 5.33039 2.5 5.10938C2.5 4.88836 2.5878 4.6764 2.74408 4.52012C2.90036 4.36384 3.11232 4.27604 3.33333 4.27604H4.16667C4.38768 4.27604 4.59964 4.36384 4.75592 4.52012C4.9122 4.6764 5 4.88836 5 5.10938C5 5.33039 4.9122 5.54235 4.75592 5.69863C4.59964 5.85491 4.38768 5.94271 4.16667 5.94271ZM8.33333 15.9427H7.5C7.27899 15.9427 7.06702 15.8549 6.91074 15.6986C6.75446 15.5424 6.66667 15.3304 6.66667 15.1094C6.66667 14.8884 6.75446 14.6764 6.91074 14.5201C7.06702 14.3638 7.27899 14.276 7.5 14.276H8.33333C8.55435 14.276 8.76631 14.3638 8.92259 14.5201C9.07887 14.6764 9.16667 14.8884 9.16667 15.1094C9.16667 15.3304 9.07887 15.5424 8.92259 15.6986C8.76631 15.8549 8.55435 15.9427 8.33333 15.9427ZM8.33333 12.6094H7.5C7.27899 12.6094 7.06702 12.5216 6.91074 12.3653C6.75446 12.209 6.66667 11.9971 6.66667 11.776C6.66667 11.555 6.75446 11.3431 6.91074 11.1868C7.06702 11.0305 7.27899 10.9427 7.5 10.9427H8.33333C8.55435 10.9427 8.76631 11.0305 8.92259 11.1868C9.07887 11.3431 9.16667 11.555 9.16667 11.776C9.16667 11.9971 9.07887 12.209 8.92259 12.3653C8.76631 12.5216 8.55435 12.6094 8.33333 12.6094ZM8.33333 9.27604H7.5C7.27899 9.27604 7.06702 9.18824 6.91074 9.03196C6.75446 8.87568 6.66667 8.66372 6.66667 8.44271C6.66667 8.22169 6.75446 8.00973 6.91074 7.85345C7.06702 7.69717 7.27899 7.60938 7.5 7.60938H8.33333C8.55435 7.60938 8.76631 7.69717 8.92259 7.85345C9.07887 8.00973 9.16667 8.22169 9.16667 8.44271C9.16667 8.66372 9.07887 8.87568 8.92259 9.03196C8.76631 9.18824 8.55435 9.27604 8.33333 9.27604ZM8.33333 5.94271H7.5C7.27899 5.94271 7.06702 5.85491 6.91074 5.69863C6.75446 5.54235 6.66667 5.33039 6.66667 5.10938C6.66667 4.88836 6.75446 4.6764 6.91074 4.52012C7.06702 4.36384 7.27899 4.27604 7.5 4.27604H8.33333C8.55435 4.27604 8.76631 4.36384 8.92259 4.52012C9.07887 4.6764 9.16667 4.88836 9.16667 5.10938C9.16667 5.33039 9.07887 5.54235 8.92259 5.69863C8.76631 5.85491 8.55435 5.94271 8.33333 5.94271ZM15.8333 4.27604H13.3333V20.1094H15.8333C16.938 20.1081 17.997 19.6686 18.7782 18.8875C19.5593 18.1064 19.9987 17.0474 20 15.9427V8.44271C19.9987 7.33805 19.5593 6.27901 18.7782 5.49789C17.997 4.71678 16.938 4.27736 15.8333 4.27604ZM16.6667 15.9427C16.5018 15.9427 16.3407 15.8938 16.2037 15.8023C16.0667 15.7107 15.9598 15.5805 15.8968 15.4283C15.8337 15.276 15.8172 15.1084 15.8493 14.9468C15.8815 14.7851 15.9609 14.6367 16.0774 14.5201C16.194 14.4036 16.3424 14.3242 16.5041 14.2921C16.6657 14.2599 16.8333 14.2764 16.9856 14.3395C17.1378 14.4025 17.268 14.5094 17.3596 14.6464C17.4511 14.7834 17.5 14.9446 17.5 15.1094C17.5 15.3304 17.4122 15.5424 17.2559 15.6986C17.0996 15.8549 16.8877 15.9427 16.6667 15.9427ZM16.6667 12.6094C16.5018 12.6094 16.3407 12.5605 16.2037 12.4689C16.0667 12.3774 15.9598 12.2472 15.8968 12.0949C15.8337 11.9427 15.8172 11.7751 15.8493 11.6135C15.8815 11.4518 15.9609 11.3033 16.0774 11.1868C16.194 11.0702 16.3424 10.9909 16.5041 10.9587C16.6657 10.9266 16.8333 10.9431 16.9856 11.0061C17.1378 11.0692 17.268 11.176 17.3596 11.3131C17.4511 11.4501 17.5 11.6112 17.5 11.776C17.5 11.9971 17.4122 12.209 17.2559 12.3653C17.0996 12.5216 16.8877 12.6094 16.6667 12.6094ZM16.6667 9.27604C16.5018 9.27604 16.3407 9.22717 16.2037 9.1356C16.0667 9.04403 15.9598 8.91388 15.8968 8.76161C15.8337 8.60934 15.8172 8.44178 15.8493 8.28013C15.8815 8.11848 15.9609 7.97 16.0774 7.85345C16.194 7.73691 16.3424 7.65754 16.5041 7.62539C16.6657 7.59323 16.8333 7.60974 16.9856 7.67281C17.1378 7.73588 17.268 7.84269 17.3596 7.97973C17.4511 8.11677 17.5 8.27789 17.5 8.44271C17.5 8.66372 17.4122 8.87568 17.2559 9.03196C17.0996 9.18824 16.8877 9.27604 16.6667 9.27604Z"
              fill="white"/>
    </g>
    <defs>
        <clipPath id="clip0_1235_3650">
            <rect width="20" height="20" fill="white" transform="translate(0 0.109375)"/>
        </clipPath>
    </defs>
</svg>
