<svg width="20" height="21" viewBox="0 0 20 21" fill="none" xmlns="http://www.w3.org/2000/svg">
<path d="M9.89062 0.953125C7.30149 0.955968 4.81922 1.98576 2.98843 3.81655C1.15763 5.64734 0.127843 8.12962 0.125 10.7188V18.9541C0.125517 19.3598 0.286908 19.7487 0.573778 20.0356C0.860647 20.3225 1.24958 20.4839 1.65527 20.4844H9.89062C12.4806 20.4844 14.9646 19.4555 16.796 17.6241C18.6274 15.7927 19.6562 13.3088 19.6562 10.7188C19.6562 8.12875 18.6274 5.64482 16.796 3.81341C14.9646 1.982 12.4806 0.953125 9.89062 0.953125ZM12.625 13.4531H6.375C6.1678 13.4531 5.96909 13.3708 5.82257 13.2243C5.67606 13.0778 5.59375 12.8791 5.59375 12.6719C5.59375 12.4647 5.67606 12.266 5.82257 12.1194C5.96909 11.9729 6.1678 11.8906 6.375 11.8906H12.625C12.8322 11.8906 13.0309 11.9729 13.1774 12.1194C13.3239 12.266 13.4062 12.4647 13.4062 12.6719C13.4062 12.8791 13.3239 13.0778 13.1774 13.2243C13.0309 13.3708 12.8322 13.4531 12.625 13.4531ZM12.625 10.3281H6.375C6.1678 10.3281 5.96909 10.2458 5.82257 10.0993C5.67606 9.95279 5.59375 9.75408 5.59375 9.54688C5.59375 9.33967 5.67606 9.14096 5.82257 8.99445C5.96909 8.84794 6.1678 8.76562 6.375 8.76562H12.625C12.8322 8.76562 13.0309 8.84794 13.1774 8.99445C13.3239 9.14096 13.4062 9.33967 13.4062 9.54688C13.4062 9.75408 13.3239 9.95279 13.1774 10.0993C13.0309 10.2458 12.8322 10.3281 12.625 10.3281Z" fill="white"/>
</svg>
