<svg xmlns="http://www.w3.org/2000/svg" width="20" height="21" viewBox="0 0 20 21" fill="none">
    <g clip-path="url(#clip0_1235_3641)">
        <path d="M0 15.9429C0.00132321 17.0475 0.440735 18.1066 1.22185 18.8877C2.00296 19.6688 3.062 20.1082 4.16667 20.1095H15.8333C16.938 20.1082 17.997 19.6688 18.7782 18.8877C19.5593 18.1066 19.9987 17.0475 20 15.9429V8.44287H0V15.9429ZM14.1667 12.1929C14.4139 12.1929 14.6556 12.2662 14.8611 12.4035C15.0667 12.5409 15.2269 12.7361 15.3215 12.9645C15.4161 13.1929 15.4409 13.4443 15.3926 13.6867C15.3444 13.9292 15.2254 14.1519 15.0505 14.3268C14.8757 14.5016 14.653 14.6206 14.4105 14.6689C14.1681 14.7171 13.9167 14.6923 13.6883 14.5977C13.4599 14.5031 13.2647 14.3429 13.1273 14.1373C12.99 13.9318 12.9167 13.6901 12.9167 13.4429C12.9167 13.1114 13.0484 12.7934 13.2828 12.559C13.5172 12.3246 13.8351 12.1929 14.1667 12.1929ZM10 12.1929C10.2472 12.1929 10.4889 12.2662 10.6945 12.4035C10.9 12.5409 11.0602 12.7361 11.1548 12.9645C11.2495 13.1929 11.2742 13.4443 11.226 13.6867C11.1777 13.9292 11.0587 14.1519 10.8839 14.3268C10.7091 14.5016 10.4863 14.6206 10.2439 14.6689C10.0014 14.7171 9.75005 14.6923 9.52165 14.5977C9.29324 14.5031 9.09801 14.3429 8.96066 14.1373C8.82331 13.9318 8.75 13.6901 8.75 13.4429C8.75 13.1114 8.8817 12.7934 9.11612 12.559C9.35054 12.3246 9.66848 12.1929 10 12.1929ZM5.83333 12.1929C6.08056 12.1929 6.32223 12.2662 6.5278 12.4035C6.73336 12.5409 6.89357 12.7361 6.98818 12.9645C7.08279 13.1929 7.10755 13.4443 7.05931 13.6867C7.01108 13.9292 6.89203 14.1519 6.71722 14.3268C6.5424 14.5016 6.31967 14.6206 6.0772 14.6689C5.83472 14.7171 5.58339 14.6923 5.35498 14.5977C5.12657 14.5031 4.93135 14.3429 4.794 14.1373C4.65664 13.9318 4.58333 13.6901 4.58333 13.4429C4.58333 13.1114 4.71503 12.7934 4.94945 12.559C5.18387 12.3246 5.50181 12.1929 5.83333 12.1929Z"
              fill="white"/>
        <path d="M15.8333 1.77604H15V0.942708C15 0.721695 14.9122 0.509733 14.7559 0.353453C14.5996 0.197172 14.3877 0.109375 14.1667 0.109375C13.9457 0.109375 13.7337 0.197172 13.5774 0.353453C13.4211 0.509733 13.3333 0.721695 13.3333 0.942708V1.77604H6.66667V0.942708C6.66667 0.721695 6.57887 0.509733 6.42259 0.353453C6.26631 0.197172 6.05435 0.109375 5.83333 0.109375C5.61232 0.109375 5.40036 0.197172 5.24408 0.353453C5.0878 0.509733 5 0.721695 5 0.942708V1.77604H4.16667C3.062 1.77736 2.00296 2.21678 1.22185 2.99789C0.440735 3.77901 0.00132321 4.83805 0 5.94271L0 6.77604H20V5.94271C19.9987 4.83805 19.5593 3.77901 18.7782 2.99789C17.997 2.21678 16.938 1.77736 15.8333 1.77604Z"
              fill="white"/>
    </g>
    <defs>
        <clipPath id="clip0_1235_3641">
            <rect width="20" height="20" fill="white" transform="translate(0 0.109375)"/>
        </clipPath>
    </defs>
</svg>