<svg width="19" height="21" viewBox="0 0 19 21" fill="none" xmlns="http://www.w3.org/2000/svg">
<path d="M17.3125 1.73438H14.9688V0.953125C14.9688 0.745925 14.8864 0.547211 14.7399 0.400698C14.5934 0.254185 14.3947 0.171875 14.1875 0.171875C13.9803 0.171875 13.7816 0.254185 13.6351 0.400698C13.4886 0.547211 13.4062 0.745925 13.4062 0.953125V1.73438H5.59375V0.953125C5.59375 0.745925 5.51144 0.547211 5.36493 0.400698C5.21841 0.254185 5.0197 0.171875 4.8125 0.171875C4.6053 0.171875 4.40659 0.254185 4.26007 0.400698C4.11356 0.547211 4.03125 0.745925 4.03125 0.953125V1.73438H1.6875C1.2731 1.73438 0.875671 1.899 0.582646 2.19202C0.28962 2.48505 0.125 2.88247 0.125 3.29688V18.9219C0.125 19.3363 0.28962 19.7337 0.582646 20.0267C0.875671 20.3198 1.2731 20.4844 1.6875 20.4844H17.3125C17.7269 20.4844 18.1243 20.3198 18.4174 20.0267C18.7104 19.7337 18.875 19.3363 18.875 18.9219V3.29688C18.875 2.88247 18.7104 2.48505 18.4174 2.19202C18.1243 1.899 17.7269 1.73438 17.3125 1.73438ZM13.5684 11.6621L8.88086 16.3496C8.8083 16.4222 8.72214 16.4799 8.6273 16.5192C8.53245 16.5585 8.43079 16.5787 8.32812 16.5787C8.22546 16.5787 8.1238 16.5585 8.02895 16.5192C7.93411 16.4799 7.84795 16.4222 7.77539 16.3496L5.43164 14.0059C5.28505 13.8593 5.20269 13.6604 5.20269 13.4531C5.20269 13.2458 5.28505 13.047 5.43164 12.9004C5.57823 12.7538 5.77706 12.6714 5.98438 12.6714C6.19169 12.6714 6.39052 12.7538 6.53711 12.9004L8.32812 14.6924L12.4629 10.5566C12.5355 10.4841 12.6216 10.4265 12.7165 10.3872C12.8113 10.3479 12.913 10.3277 13.0156 10.3277C13.1183 10.3277 13.2199 10.3479 13.3148 10.3872C13.4096 10.4265 13.4958 10.4841 13.5684 10.5566C13.6409 10.6292 13.6985 10.7154 13.7378 10.8102C13.7771 10.9051 13.7973 11.0067 13.7973 11.1094C13.7973 11.212 13.7771 11.3137 13.7378 11.4085C13.6985 11.5034 13.6409 11.5895 13.5684 11.6621ZM1.6875 6.42188V3.29688H4.03125V4.07812C4.03125 4.28533 4.11356 4.48404 4.26007 4.63055C4.40659 4.77706 4.6053 4.85938 4.8125 4.85938C5.0197 4.85938 5.21841 4.77706 5.36493 4.63055C5.51144 4.48404 5.59375 4.28533 5.59375 4.07812V3.29688H13.4062V4.07812C13.4062 4.28533 13.4886 4.48404 13.6351 4.63055C13.7816 4.77706 13.9803 4.85938 14.1875 4.85938C14.3947 4.85938 14.5934 4.77706 14.7399 4.63055C14.8864 4.48404 14.9688 4.28533 14.9688 4.07812V3.29688H17.3125V6.42188H1.6875Z" fill="white"/>
</svg>
