<svg width="19" height="18" viewBox="0 0 19 18" fill="none" xmlns="http://www.w3.org/2000/svg">
<path d="M8.71875 2.07812V6.76562C8.71875 7.18003 8.55413 7.57745 8.2611 7.87048C7.96808 8.1635 7.57065 8.32812 7.15625 8.32812H2.46875C2.05435 8.32812 1.65692 8.1635 1.3639 7.87048C1.07087 7.57745 0.90625 7.18003 0.90625 6.76562V2.07812C0.90625 1.66372 1.07087 1.2663 1.3639 0.973271C1.65692 0.680245 2.05435 0.515625 2.46875 0.515625H7.15625C7.57065 0.515625 7.96808 0.680245 8.2611 0.973271C8.55413 1.2663 8.71875 1.66372 8.71875 2.07812ZM16.5312 0.515625H11.8438C11.4293 0.515625 11.0319 0.680245 10.7389 0.973271C10.4459 1.2663 10.2812 1.66372 10.2812 2.07812V6.76562C10.2812 7.18003 10.4459 7.57745 10.7389 7.87048C11.0319 8.1635 11.4293 8.32812 11.8438 8.32812H16.5312C16.9457 8.32812 17.3431 8.1635 17.6361 7.87048C17.9291 7.57745 18.0938 7.18003 18.0938 6.76562V2.07812C18.0938 1.66372 17.9291 1.2663 17.6361 0.973271C17.3431 0.680245 16.9457 0.515625 16.5312 0.515625ZM7.15625 9.89062H2.46875C2.05435 9.89062 1.65692 10.0552 1.3639 10.3483C1.07087 10.6413 0.90625 11.0387 0.90625 11.4531V16.1406C0.90625 16.555 1.07087 16.9525 1.3639 17.2455C1.65692 17.5385 2.05435 17.7031 2.46875 17.7031H7.15625C7.57065 17.7031 7.96808 17.5385 8.2611 17.2455C8.55413 16.9525 8.71875 16.555 8.71875 16.1406V11.4531C8.71875 11.0387 8.55413 10.6413 8.2611 10.3483C7.96808 10.0552 7.57065 9.89062 7.15625 9.89062ZM16.5312 9.89062H11.8438C11.4293 9.89062 11.0319 10.0552 10.7389 10.3483C10.4459 10.6413 10.2812 11.0387 10.2812 11.4531V16.1406C10.2812 16.555 10.4459 16.9525 10.7389 17.2455C11.0319 17.5385 11.4293 17.7031 11.8438 17.7031H16.5312C16.9457 17.7031 17.3431 17.5385 17.6361 17.2455C17.9291 16.9525 18.0938 16.555 18.0938 16.1406V11.4531C18.0938 11.0387 17.9291 10.6413 17.6361 10.3483C17.3431 10.0552 16.9457 9.89062 16.5312 9.89062Z" fill="white"/>
</svg>
