<svg xmlns="http://www.w3.org/2000/svg" width="18" height="21" viewBox="0 0 18 21" fill="none">
    <path d="M11.5003 6.776H16.9503C16.6594 6.00506 16.2074 5.30506 15.6245 4.72268L12.7212 1.81768C12.1381 1.23545 11.4379 0.78377 10.667 0.492676V5.94268C10.667 6.40287 11.0401 6.776 11.5003 6.776Z"
          fill="white"/>
    <path d="M17.3136 8.44269H11.5003C10.1196 8.44269 9.00031 7.3234 9.00031 5.9427V0.129375C8.86613 0.120195 8.73199 0.109375 8.59613 0.109375H4.83363C2.53359 0.112148 0.669727 1.97602 0.666992 4.27605V15.9427C0.669727 18.2427 2.53359 20.1066 4.83363 20.1094H13.167C15.467 20.1066 17.3309 18.2427 17.3336 15.9427V8.84687C17.3336 8.71105 17.3228 8.57687 17.3136 8.44269Z"
          fill="white"/>
</svg>