<svg xmlns="http://www.w3.org/2000/svg" width="20" height="21" viewBox="0 0 20 21" fill="none">
    <g clip-path="url(#clip0_1235_3617)">
        <path d="M5.83333 0.109375H3.33333C1.49238 0.109375 0 1.60176 0 3.44271V5.94271C0 7.78366 1.49238 9.27604 3.33333 9.27604H5.83333C7.67428 9.27604 9.16667 7.78366 9.16667 5.94271V3.44271C9.16667 1.60176 7.67428 0.109375 5.83333 0.109375Z"
              fill="white"/>
        <path d="M16.6663 0.109375H14.1663C12.3254 0.109375 10.833 1.60176 10.833 3.44271V5.94271C10.833 7.78366 12.3254 9.27605 14.1663 9.27605H16.6663C18.5073 9.27605 19.9997 7.78366 19.9997 5.94271V3.44271C19.9997 1.60176 18.5073 0.109375 16.6663 0.109375Z"
              fill="white"/>
        <path d="M5.83333 10.9429H3.33333C1.49238 10.9429 0 12.4353 0 14.2762V16.7762C0 18.6172 1.49238 20.1096 3.33333 20.1096H5.83333C7.67428 20.1096 9.16667 18.6172 9.16667 16.7762V14.2762C9.16667 12.4353 7.67428 10.9429 5.83333 10.9429Z"
              fill="white"/>
        <path d="M16.6663 10.9429H14.1663C12.3254 10.9429 10.833 12.4353 10.833 14.2762V16.7762C10.833 18.6172 12.3254 20.1096 14.1663 20.1096H16.6663C18.5073 20.1096 19.9997 18.6172 19.9997 16.7762V14.2762C19.9997 12.4353 18.5073 10.9429 16.6663 10.9429Z"
              fill="white"/>
    </g>
    <defs>
        <clipPath id="clip0_1235_3617">
            <rect width="20" height="20" fill="white" transform="translate(0 0.109375)"/>
        </clipPath>
    </defs>
</svg>