<svg width="74" height="74" viewBox="0 0 74 74" fill="none" xmlns="http://www.w3.org/2000/svg">
    <rect x="27.9263" y="0.317139" width="69.9319" height="54.8055" rx="27.4027" transform="rotate(30 27.9263 0.317139)" fill="#2f353d" />
    <path d="M35.7589 23.8234H30.921C30.6653 23.8234 30.4579 24.0231 30.4579 24.2692V26.4056C30.4579 26.6517 30.6653 26.8514 30.921 26.8514H33.0434C33.0434 26.8514 33.188 36.9745 33.0434 39.0262C33.0036 39.585 32.7878 40.281 32.1446 40.5917C31.4385 40.9326 30.6151 40.8156 29.513 40.6966C29.4585 40.6905 29.4082 40.7329 29.4082 40.7853V43.2102C29.4082 43.2485 29.4354 43.2848 29.4753 43.2969C30.7513 43.6722 31.6732 43.6802 33.2467 43.3373C34.0114 43.1719 36.2743 42.1713 36.2492 39.1775C36.2429 38.5138 36.2219 35.1912 36.2219 34.2551V24.2692C36.2219 24.0231 36.0145 23.8234 35.7589 23.8234Z" fill="white" />
</svg>