<svg width="23" height="20" viewBox="0 0 23 20" fill="none" xmlns="http://www.w3.org/2000/svg">
<path d="M22.4375 6.67969C22.4375 13.5156 12.3018 19.0488 11.8701 19.2773C11.7563 19.3385 11.6292 19.3706 11.5 19.3706C11.3708 19.3706 11.2436 19.3385 11.1299 19.2773C10.6982 19.0488 0.5625 13.5156 0.5625 6.67969C0.564309 5.07444 1.20279 3.53546 2.33788 2.40038C3.47296 1.26529 5.01194 0.626809 6.61719 0.625C8.63379 0.625 10.3994 1.49219 11.5 2.95801C12.6006 1.49219 14.3662 0.625 16.3828 0.625C17.9881 0.626809 19.527 1.26529 20.6621 2.40038C21.7972 3.53546 22.4357 5.07444 22.4375 6.67969Z" fill="white"/>
</svg>
