<svg width="21" height="20" viewBox="0 0 21 20" fill="none" xmlns="http://www.w3.org/2000/svg">
<path d="M19.0938 4.07812H15.1875V3.29688C15.1875 2.67527 14.9406 2.07913 14.501 1.63959C14.0615 1.20006 13.4654 0.953125 12.8438 0.953125H8.15625C7.53465 0.953125 6.93851 1.20006 6.49897 1.63959C6.05943 2.07913 5.8125 2.67527 5.8125 3.29688V4.07812H1.90625C1.49185 4.07812 1.09442 4.24274 0.801396 4.53577C0.50837 4.8288 0.34375 5.22622 0.34375 5.64062V18.1406C0.34375 18.555 0.50837 18.9525 0.801396 19.2455C1.09442 19.5385 1.49185 19.7031 1.90625 19.7031H19.0938C19.5082 19.7031 19.9056 19.5385 20.1986 19.2455C20.4916 18.9525 20.6562 18.555 20.6562 18.1406V5.64062C20.6562 5.22622 20.4916 4.8288 20.1986 4.53577C19.9056 4.24274 19.5082 4.07812 19.0938 4.07812ZM7.375 3.29688C7.375 3.08967 7.45731 2.89096 7.60382 2.74445C7.75034 2.59794 7.94905 2.51562 8.15625 2.51562H12.8438C13.051 2.51562 13.2497 2.59794 13.3962 2.74445C13.5427 2.89096 13.625 3.08967 13.625 3.29688V4.07812H7.375V3.29688ZM19.0938 5.64062V12.6719H1.90625V5.64062H19.0938Z" fill="white"/>
</svg>
