<svg width="108" height="37" viewBox="0 0 108 37" fill="none" xmlns="http://www.w3.org/2000/svg">
<path d="M18.0547 36.1094C28.026 36.1094 36.1094 28.026 36.1094 18.0547C36.1094 8.08337 28.026 0 18.0547 0C8.08337 0 0 8.08337 0 18.0547C0 28.026 8.08337 36.1094 18.0547 36.1094Z" fill="#5898FF"/>
<path d="M22.1913 4.03613H15.3639C15.0031 4.03613 14.7104 4.32886 14.7104 4.6896V7.82094C14.7104 8.18168 15.0031 8.47441 15.3639 8.47441H18.3592C18.3592 8.47441 18.5632 23.312 18.3592 26.3192C18.303 27.1382 17.9984 28.1583 17.0907 28.6137C16.0942 29.1134 14.9322 28.9419 13.3768 28.7675C13.3 28.7586 13.229 28.8207 13.229 28.8976V32.4517C13.229 32.5079 13.2674 32.5611 13.3236 32.5789C15.1244 33.1289 16.4254 33.1407 18.646 32.638C19.7253 32.3956 22.9187 30.9289 22.8832 26.5409C22.8743 25.5681 22.8448 20.6981 22.8448 19.3262V4.6896C22.8448 4.32886 22.552 4.03613 22.1913 4.03613Z" fill="white"/>
<path d="M54.8473 26.8898C51.7603 26.8898 50.9679 25.3611 50.2257 24.6396H50.0542L49.4185 26.6177H46.707V3.35303H50.205L50.208 12.1764H50.2582C51.0477 11.2124 51.9732 9.92617 54.8651 9.83451C57.8515 9.73989 59.1703 11.0912 59.8178 11.7801C61.3465 13.4064 61.8374 16.0676 61.8374 18.2113C61.8403 23.0695 60.0071 26.8898 54.8473 26.8898ZM53.9603 23.8176C55.1637 23.8176 56.175 23.6313 56.9851 22.6762C57.7953 21.7212 58.0821 19.9322 58.0821 18.0428C58.0821 16.3781 57.887 15.1569 57.2631 14.2343C56.6362 13.3118 55.6309 12.8505 54.2382 12.8505C53.5877 12.8505 52.9283 13.0072 52.2571 13.3236C51.5859 13.64 50.4179 14.5064 50.3174 16.7477V19.2137C50.3174 21.5792 51.4794 23.2587 52.1506 23.4835C52.8248 23.7052 53.428 23.8176 53.9603 23.8176Z" fill="white"/>
<path d="M70.0631 26.4317C69.0282 26.1153 67.9904 25.5091 67.2393 24.7669C66.4883 24.0248 64.6521 21.8101 64.998 18.318C65.1311 16.9756 65.1458 13.8235 67.2157 11.8276C67.9726 11.1002 68.7799 10.5 69.7172 10.1067C70.6545 9.71346 71.8136 9.65137 72.8456 9.65137C73.978 9.65137 74.9775 9.84948 75.8438 10.2427C76.7102 10.636 77.4406 11.1771 78.0378 11.8602C78.6351 12.5462 79.0875 13.3711 79.398 14.338C79.7055 15.3049 79.8622 16.3605 79.8622 17.5078C79.8622 17.8892 79.8474 18.2559 79.8149 18.6048C79.7854 18.9537 79.7469 19.2405 79.7055 19.4652H68.7059C68.9129 21.0176 69.3239 22.1619 70.2524 22.9041C71.1779 23.6463 72.0265 23.8828 73.4488 23.9065C75.5481 23.939 78.2951 22.9928 78.9752 22.567V25.8018C78.1679 26.3903 74.6315 27.8243 70.0631 26.4317ZM72.6622 12.4959C71.6125 12.4959 69.0016 13.037 68.703 16.7035H76.1868C76.1868 13.037 73.7533 12.4959 72.6622 12.4959Z" fill="white"/>
<path d="M83.3662 26.6179V10.0476H86.4L86.672 13.1789H86.7696C87.6005 11.8306 88.6797 9.43846 93.7803 9.79328L93.5113 13.2528C92.8489 13.2913 87.9316 12.4574 87.0298 17.3008L87.1747 26.6179H83.3662Z" fill="white"/>
<path d="M101.249 27.0201C99.9747 27.0201 96.935 26.618 95.7286 25.9793L95.6577 22.8006C97.2071 23.3683 99.203 24.0573 100.557 24.081C101.205 24.0928 102.692 24.353 103.703 23.6019C104.274 23.1791 104.383 22.5729 104.351 21.8869C104.292 20.5563 100.924 19.5688 99.9895 19.1518C97.0326 18.1672 95.5542 16.6237 95.6547 14.3706C95.7198 12.9099 96.0095 12.1026 97.0444 11.1801C98.0794 10.2575 99.6938 9.84654 101.616 9.79627C104.377 9.7253 106.977 10.5532 107.677 11.118L106.545 13.8797C106.143 13.6668 103.833 12.9542 102.453 12.8566C100.826 12.7413 99.6317 12.9513 99.3656 13.7023C98.9871 14.7727 99.889 15.4823 101.234 16.0471C101.811 16.2896 104.375 17.2772 105.078 17.6143C105.779 17.9513 106.338 18.3298 106.755 18.7438C107.172 19.1607 107.589 19.5983 107.754 20.1158C107.92 20.6332 108 21.1891 108 21.8396C108 22.5611 107.858 23.3417 107.58 23.9597C107.302 24.5777 106.932 25.1011 106.397 25.5623C105.862 26.0236 105.04 26.3518 104.244 26.6209C103.455 26.887 102.284 27.0201 101.249 27.0201Z" fill="white"/>
<path d="M42.3749 14.6012C41.9343 13.5131 41.3459 12.5965 40.6126 11.8484C39.8793 11.1003 39.0277 10.5296 38.0578 10.1334C37.088 9.73717 36.0856 9.53906 35.0507 9.53906C34.7846 9.53906 34.4268 9.54793 34.004 9.59229C34.5717 10.6597 35.033 11.7892 35.3789 12.969C35.4055 12.969 35.4292 12.9661 35.4558 12.9661C36.7006 12.9661 37.6735 13.454 38.3801 14.4268C39.0839 15.4026 39.4387 16.7095 39.4387 18.3506C39.4387 19.9709 39.0868 21.269 38.3801 22.2418C37.6764 23.2176 36.7006 23.7025 35.4558 23.7025C35.373 23.7025 35.2932 23.6936 35.2104 23.6907C34.8289 24.8557 34.3322 25.9645 33.7319 27.0113C34.2701 27.0586 34.7166 27.0379 35.0507 27.0379C36.0856 27.0379 37.088 26.8457 38.0578 26.4613C39.0277 26.0769 39.8793 25.5092 40.6126 24.7611C41.3459 24.013 41.9314 23.0964 42.3749 22.0082C42.8155 20.9201 43.0372 19.6871 43.0372 18.3033C43.0372 16.9224 42.8155 15.6894 42.3749 14.6012Z" fill="white"/>
<path d="M32.5315 22.2418C31.8277 21.269 31.4729 19.9709 31.4729 18.3506C31.4729 16.7095 31.8248 15.3996 32.5315 14.4268C33.2204 13.4747 34.1725 12.9897 35.3789 12.969C35.033 11.7892 34.5717 10.6597 34.004 9.59229C32.7828 9.72534 31.0264 10.1807 29.4149 11.7212C27.1884 13.8502 27.2032 16.3458 27.0642 18.3033C26.8188 21.7628 28.6284 24.1756 29.3913 24.8941C31.0856 26.4938 32.6054 26.9107 33.732 27.0113C34.3322 25.9645 34.829 24.8527 35.2104 23.6907C34.0838 23.6286 33.1879 23.1496 32.5315 22.2418Z" fill="white"/>
</svg>
