<svg width="148" height="36" viewBox="0 0 148 36" fill="none" xmlns="http://www.w3.org/2000/svg">
<path d="M18.0738 35.9971C28.0556 35.9971 36.1475 27.9388 36.1475 17.9985C36.1475 8.05821 28.0556 0 18.0738 0C8.0919 0 0 8.05821 0 17.9985C0 27.9388 8.0919 35.9971 18.0738 35.9971Z" fill="#5898FF"/>
<path d="M22.2149 4.02344H15.3803C15.0192 4.02344 14.7261 4.31526 14.7261 4.67487V7.79647C14.7261 8.15608 15.0192 8.4479 15.3803 8.4479H18.3788C18.3788 8.4479 18.583 23.2394 18.3788 26.2371C18.3225 27.0537 18.0176 28.0706 17.1089 28.5245C16.1114 29.0227 14.9481 28.8517 13.3912 28.6778C13.3142 28.669 13.2432 28.7309 13.2432 28.8075V32.3506C13.2432 32.4066 13.2816 32.4597 13.3379 32.4774C15.1405 33.0257 16.4429 33.0374 18.6659 32.5363C19.7463 32.2946 22.9431 30.8326 22.9076 26.4582C22.8987 25.4884 22.8691 20.6336 22.8691 19.2659V4.67487C22.8691 4.31526 22.576 4.02344 22.2149 4.02344Z" fill="white"/>
<path d="M54.9047 26.8063C51.8145 26.8063 51.0212 25.2823 50.2783 24.5631H50.1066L49.4702 26.5351H46.7559V3.34277H50.2575L50.2605 12.1386H50.3108C51.1011 11.1777 52.0276 9.89546 54.9225 9.80408C57.9121 9.70976 59.2323 11.0568 59.8805 11.7437C61.4108 13.3649 61.9022 16.0178 61.9022 18.1549C61.9051 22.9979 60.0699 26.8063 54.9047 26.8063ZM54.0167 23.7437C55.2215 23.7437 56.2338 23.558 57.0448 22.6059C57.8559 21.6538 58.143 19.8704 58.143 17.9868C58.143 16.3273 57.9476 15.1099 57.3231 14.1902C56.6955 13.2706 55.6891 12.8107 54.295 12.8107C53.6438 12.8107 52.9837 12.9669 52.3118 13.2823C51.6399 13.5977 50.4707 14.4614 50.37 16.6958V19.1541C50.37 21.5123 51.5333 23.1865 52.2052 23.4106C52.8801 23.6316 53.4839 23.7437 54.0167 23.7437Z" fill="white"/>
<path d="M70.1369 26.3492C69.1009 26.0338 68.0619 25.4295 67.3101 24.6896C66.5582 23.9498 64.7201 21.742 65.0664 18.2607C65.1996 16.9225 65.2144 13.7803 67.2864 11.7906C68.0442 11.0655 68.8522 10.4671 69.7906 10.075C70.7289 9.683 71.8892 9.62109 72.9222 9.62109C74.0559 9.62109 75.0564 9.81859 75.9237 10.2106C76.791 10.6027 77.5221 11.1421 78.12 11.823C78.7179 12.5069 79.1708 13.3293 79.4816 14.2932C79.7894 15.2571 79.9463 16.3094 79.9463 17.4531C79.9463 17.8333 79.9315 18.1988 79.899 18.5467C79.8694 18.8945 79.8309 19.1804 79.7894 19.4044H68.7782C68.9854 20.952 69.3969 22.0927 70.3263 22.8326C71.2528 23.5725 72.1023 23.8083 73.5261 23.8319C75.6277 23.8643 78.3775 22.921 79.0583 22.4966V25.7213C78.2502 26.3079 74.7101 27.7375 70.1369 26.3492ZM72.7387 12.4568C71.6879 12.4568 69.0742 12.9962 68.7753 16.6513H76.267C76.267 12.9962 73.831 12.4568 72.7387 12.4568Z" fill="white"/>
<path d="M83.4541 26.5352V10.0164H86.4911L86.7634 13.138H86.8611C87.6928 11.7939 88.7732 9.40918 93.8792 9.7629L93.6099 13.2117C92.9468 13.25 88.0243 12.4188 87.1215 17.2471L87.2666 26.5352H83.4541Z" fill="white"/>
<path d="M101.356 26.9357C100.08 26.9357 97.0375 26.5348 95.8298 25.8981L95.7587 22.7294C97.3098 23.2953 99.3078 23.9821 100.663 24.0057C101.312 24.0175 102.801 24.2769 103.813 23.5282C104.384 23.1067 104.494 22.5024 104.461 21.8186C104.402 20.4921 101.031 19.5076 100.095 19.0919C97.1351 18.1104 95.6551 16.5717 95.7558 14.3256C95.8209 12.8694 96.111 12.0647 97.147 11.145C98.183 10.2253 99.7991 9.8156 101.723 9.76549C104.488 9.69475 107.09 10.5201 107.791 11.0831L106.657 13.8362C106.255 13.624 103.943 12.9136 102.561 12.8163C100.933 12.7014 99.737 12.9107 99.4706 13.6594C99.0917 14.7264 99.9945 15.4339 101.341 15.9969C101.919 16.2386 104.485 17.2231 105.189 17.5592C105.891 17.8952 106.45 18.2725 106.868 18.6852C107.285 19.1008 107.702 19.537 107.868 20.0529C108.034 20.5687 108.114 21.1229 108.114 21.7714C108.114 22.4906 107.972 23.2688 107.693 23.8849C107.415 24.5009 107.045 25.0227 106.509 25.4825C105.974 25.9424 105.151 26.2695 104.355 26.5378C103.564 26.8031 102.392 26.9357 101.356 26.9357Z" fill="white"/>
<path d="M113.558 27.0834C112.889 27.0834 112.338 26.8683 111.903 26.4408C111.468 26.0134 111.252 25.4681 111.252 24.8078C111.252 24.1476 111.468 23.6022 111.903 23.1748C112.338 22.7474 112.889 22.5322 113.558 22.5322C114.227 22.5322 114.777 22.7474 115.212 23.1748C115.648 23.6022 115.864 24.1476 115.864 24.8078C115.864 25.4681 115.645 26.0134 115.212 26.4408C114.777 26.8712 114.227 27.0834 113.558 27.0834Z" fill="#5898FF"/>
<path d="M138.81 26.8297C136.868 26.8297 135.506 26.1488 134.509 25.0906C133.505 24.0264 133.271 22.3964 133.271 20.2416V10.0132H136.983V19.9351C136.983 21.2822 137.214 22.2608 137.676 22.8798C138.138 23.4959 139.123 23.8054 140.275 23.8054C141.065 23.8054 141.873 23.6167 142.483 23.2394C143.519 22.5998 144.259 21.0287 144.309 19.3337V10.0161H148V26.5349H145.052L144.756 24.3979H144.62C143.83 25.3175 143.398 25.6182 142.447 26.1665C141.497 26.7147 140.05 26.8297 138.81 26.8297Z" fill="#5898FF"/>
<path d="M42.4197 14.5557C41.9786 13.471 41.3896 12.5572 40.6555 11.8114C39.9214 11.0657 39.0689 10.4968 38.0981 10.1018C37.1272 9.70677 36.1237 9.50928 35.0877 9.50928C34.8213 9.50928 34.4632 9.51812 34.0399 9.56234C34.6082 10.6264 35.07 11.7525 35.4163 12.9286C35.4429 12.9286 35.4666 12.9256 35.4933 12.9256C36.7394 12.9256 37.7133 13.412 38.4207 14.3818C39.1252 15.3545 39.4804 16.6574 39.4804 18.2934C39.4804 19.9087 39.1281 21.2027 38.4207 22.1725C37.7162 23.1452 36.7394 23.6287 35.4933 23.6287C35.4104 23.6287 35.3305 23.6198 35.2476 23.6169C34.8657 24.7783 34.3685 25.8836 33.7676 26.9271C34.3063 26.9743 34.7533 26.9536 35.0877 26.9536C36.1237 26.9536 37.1272 26.762 38.0981 26.3788C39.0689 25.9956 39.9214 25.4297 40.6555 24.6839C41.3896 23.9382 41.9757 23.0244 42.4197 21.9396C42.8607 20.8549 43.0827 19.6257 43.0827 18.2462C43.0827 16.8696 42.8607 15.6405 42.4197 14.5557Z" fill="white"/>
<path d="M32.5661 22.1727C31.8616 21.2029 31.5064 19.9089 31.5064 18.2935C31.5064 16.6576 31.8586 15.3517 32.5661 14.382C33.2557 13.4328 34.2089 12.9494 35.4165 12.9287C35.0702 11.7526 34.6085 10.6266 34.0401 9.5625C32.8177 9.69515 31.0594 10.1491 29.4462 11.6848C27.2173 13.8072 27.2321 16.295 27.093 18.2464C26.8473 21.6951 28.6589 24.1005 29.4225 24.8167C31.1186 26.4114 32.6401 26.8271 33.7678 26.9273C34.3687 25.8838 34.866 24.7755 35.2478 23.617C34.1201 23.5551 33.2232 23.0776 32.5661 22.1727Z" fill="white"/>
<path d="M120.081 26.5352V10.0164H123.118L123.39 13.138H123.488C124.32 11.7939 125.4 9.40918 130.506 9.7629L130.237 13.2117C129.574 13.25 124.651 12.4188 123.748 17.2471L123.894 26.5352H120.081Z" fill="#5898FF"/>
</svg>
