<svg width="20" height="21" viewBox="0 0 20 21" fill="none" xmlns="http://www.w3.org/2000/svg">
  <path d="M18.5344 12.367V12.3592C18.533 12.3533 18.5312 12.3476 18.5289 12.342C18.477 12.2005 18.4168 12.0622 18.3484 11.9279L15.1008 4.54669C15.0695 4.4756 15.0253 4.41095 14.9703 4.35607C14.7381 4.12386 14.4625 3.93966 14.1592 3.81399C13.8558 3.68832 13.5307 3.62363 13.2023 3.62363C12.874 3.62363 12.5488 3.68832 12.2455 3.81399C11.9421 3.93966 11.6665 4.12386 11.4344 4.35607C11.3176 4.473 11.2518 4.63142 11.2516 4.79669V6.74982H8.75155V4.79669C8.75162 4.71459 8.7355 4.63328 8.70414 4.55741C8.67277 4.48154 8.62676 4.41259 8.56874 4.35451C8.33658 4.1223 8.06096 3.9381 7.75761 3.81243C7.45426 3.68675 7.12912 3.62207 6.80077 3.62207C6.47242 3.62207 6.14728 3.68675 5.84393 3.81243C5.54058 3.9381 5.26495 4.1223 5.0328 4.35451C4.97784 4.40939 4.9336 4.47403 4.90233 4.54513L1.6578 11.9279C1.58946 12.0622 1.52919 12.2005 1.47733 12.342C1.47516 12.3474 1.47333 12.3528 1.47186 12.3584C1.47186 12.3584 1.47186 12.3647 1.47186 12.367C1.1492 13.2993 1.20693 14.3212 1.63254 15.2113C2.05814 16.1013 2.81735 16.7877 3.74561 17.1219C4.67387 17.456 5.69641 17.4109 6.59162 16.9962C7.48683 16.5816 8.18259 15.8309 8.52811 14.9068C8.68025 14.4918 8.75698 14.0528 8.75468 13.6108V7.99982H11.2547V13.6115C11.2524 14.0536 11.3291 14.4925 11.4812 14.9076C11.8268 15.8317 12.5225 16.5824 13.4177 16.997C14.3129 17.4116 15.3355 17.4568 16.2637 17.1227C17.192 16.7885 17.9512 16.1021 18.3768 15.212C18.8024 14.322 18.8602 13.3001 18.5375 12.3678L18.5344 12.367ZM7.35077 14.4764C7.11998 15.0922 6.65582 15.5923 6.05889 15.8683C5.46195 16.1442 4.78031 16.1739 4.16166 15.9508C3.54302 15.7277 3.03719 15.2698 2.7538 14.6763C2.47041 14.0829 2.43227 13.4017 2.64764 12.7803L2.78905 12.4576C3.04895 11.9636 3.46672 11.5708 3.97579 11.3417C4.48486 11.1127 5.05594 11.0606 5.59804 11.1938C6.14014 11.327 6.62207 11.6378 6.96704 12.0766C7.31201 12.5155 7.50018 13.0572 7.50155 13.6154V13.6248C7.5015 13.9163 7.45047 14.2056 7.35077 14.4795V14.4764ZM15.8609 15.974C15.483 16.1124 15.0773 16.1574 14.6783 16.1054C14.2792 16.0534 13.8986 15.9058 13.5689 15.6751C13.2391 15.4445 12.9698 15.1377 12.784 14.7807C12.5982 14.4238 12.5013 14.0272 12.5015 13.6248V13.6162C12.5036 13.0583 12.6923 12.517 13.0375 12.0787C13.3827 11.6404 13.8646 11.3301 14.4066 11.1973C14.9485 11.0645 15.5193 11.1168 16.028 11.3459C16.5368 11.575 16.9543 11.9677 17.2141 12.4615L17.3555 12.7842C17.5778 13.4055 17.5454 14.0895 17.2654 14.687C16.9855 15.2846 16.4806 15.7472 15.8609 15.974Z" fill="#2F353D" />
</svg>