<svg width="20" height="20" viewBox="0 0 20 20" fill="none" xmlns="http://www.w3.org/2000/svg">
<g clip-path="url(#clip0_1392_13848)">
<path d="M10.8335 0.833413C10.8335 0.612399 10.9213 0.400438 11.0775 0.244157C11.2338 0.087877 11.4458 7.95858e-05 11.6668 7.95858e-05C13.8762 0.00250592 15.9944 0.881259 17.5567 2.44354C19.1189 4.00581 19.9977 6.12402 20.0001 8.33341C20.0001 8.55443 19.9123 8.76639 19.756 8.92267C19.5998 9.07895 19.3878 9.16675 19.1668 9.16675C18.9458 9.16675 18.7338 9.07895 18.5775 8.92267C18.4213 8.76639 18.3335 8.55443 18.3335 8.33341C18.3315 6.56591 17.6285 4.87137 16.3786 3.62156C15.1288 2.37175 13.4343 1.66873 11.6668 1.66675C11.4458 1.66675 11.2338 1.57895 11.0775 1.42267C10.9213 1.26639 10.8335 1.05443 10.8335 0.833413ZM11.6668 5.00008C12.5509 5.00008 13.3987 5.35127 14.0238 5.97639C14.6489 6.60151 15.0001 7.44936 15.0001 8.33341C15.0001 8.55443 15.0879 8.76639 15.2442 8.92267C15.4005 9.07895 15.6125 9.16675 15.8335 9.16675C16.0545 9.16675 16.2664 9.07895 16.4227 8.92267C16.579 8.76639 16.6668 8.55443 16.6668 8.33341C16.6655 7.00774 16.1383 5.73674 15.2009 4.79934C14.2635 3.86195 12.9925 3.33474 11.6668 3.33341C11.4458 3.33341 11.2338 3.42121 11.0775 3.57749C10.9213 3.73377 10.8335 3.94573 10.8335 4.16675C10.8335 4.38776 10.9213 4.59972 11.0775 4.756C11.2338 4.91228 11.4458 5.00008 11.6668 5.00008ZM19.2443 13.9492C19.7272 14.4335 19.9984 15.0895 19.9984 15.7734C19.9984 16.4573 19.7272 17.1133 19.2443 17.5976L18.486 18.4717C11.661 25.0059 -4.94734 8.40175 1.48598 1.55508L2.44431 0.721746C2.92912 0.252311 3.57926 -0.00737952 4.25407 -0.00114138C4.92887 0.00509676 5.5741 0.276762 6.05014 0.75508C6.07598 0.780913 7.62014 2.78675 7.62014 2.78675C8.07833 3.2681 8.33339 3.90752 8.33231 4.57208C8.33122 5.23664 8.07407 5.87522 7.61431 6.35508L6.64931 7.56841C7.18335 8.86601 7.96853 10.0453 8.95973 11.0385C9.95093 12.0317 11.1286 12.8193 12.4251 13.3559L13.646 12.3851C14.1259 11.9257 14.7644 11.6688 15.4287 11.6679C16.0931 11.667 16.7323 11.922 17.2135 12.3801C17.2135 12.3801 19.2185 13.9234 19.2443 13.9492ZM18.0976 15.1609C18.0976 15.1609 16.1035 13.6267 16.0776 13.6009C15.906 13.4307 15.674 13.3352 15.4322 13.3352C15.1905 13.3352 14.9585 13.4307 14.7868 13.6009C14.7643 13.6242 13.0835 14.9634 13.0835 14.9634C12.9702 15.0536 12.8354 15.1127 12.6923 15.1349C12.5493 15.1571 12.4029 15.1417 12.2676 15.0901C10.588 14.4647 9.06242 13.4857 7.79417 12.2193C6.52592 10.9529 5.54465 9.42877 4.91681 7.75008C4.86114 7.61296 4.84299 7.46349 4.86423 7.31703C4.88547 7.17057 4.94532 7.03241 5.03764 6.91675C5.03764 6.91675 6.37681 5.23508 6.39931 5.21341C6.56953 5.04173 6.66504 4.80976 6.66504 4.568C6.66504 4.32623 6.56953 4.09426 6.39931 3.92258C6.37348 3.89758 4.83931 1.90175 4.83931 1.90175C4.66506 1.7455 4.43765 1.66183 4.20369 1.66787C3.96972 1.67391 3.74693 1.76922 3.58098 1.93425L2.62265 2.76758C-2.07901 8.42091 12.3135 22.0151 17.2676 17.3334L18.0268 16.4584C18.2047 16.2936 18.3115 16.0661 18.3248 15.824C18.338 15.5819 18.2565 15.3441 18.0976 15.1609Z" fill="#5898FF"/>
</g>
<defs>
<clipPath id="clip0_1392_13848">
<rect width="20" height="20" fill="white"/>
</clipPath>
</defs>
</svg>
