<svg width="21" height="20" viewBox="0 0 21 20" fill="none" xmlns="http://www.w3.org/2000/svg">
    <path d="M19.8211 9.74688C19.7937 9.68516 19.132 8.21719 17.6609 6.74609C15.7008 4.78594 13.225 3.75 10.5 3.75C7.77499 3.75 5.29921 4.78594 3.33905 6.74609C1.86796 8.21719 1.20312 9.6875 1.1789 9.74688C1.14336 9.82681 1.125 9.91331 1.125 10.0008C1.125 10.0883 1.14336 10.1748 1.1789 10.2547C1.20624 10.3164 1.86796 11.7836 3.33905 13.2547C5.29921 15.2141 7.77499 16.25 10.5 16.25C13.225 16.25 15.7008 15.2141 17.6609 13.2547C19.132 11.7836 19.7937 10.3164 19.8211 10.2547C19.8566 10.1748 19.875 10.0883 19.875 10.0008C19.875 9.91331 19.8566 9.82681 19.8211 9.74688ZM10.5 13.125C9.88193 13.125 9.27774 12.9417 8.76383 12.5983C8.24993 12.255 7.84939 11.7669 7.61287 11.1959C7.37634 10.6249 7.31446 9.99653 7.43504 9.39034C7.55562 8.78415 7.85324 8.22733 8.29028 7.79029C8.72732 7.35325 9.28414 7.05562 9.89033 6.93505C10.4965 6.81447 11.1249 6.87635 11.6959 7.11288C12.2669 7.3494 12.755 7.74994 13.0983 8.26384C13.4417 8.77775 13.625 9.38193 13.625 10C13.625 10.8288 13.2958 11.6237 12.7097 12.2097C12.1236 12.7958 11.3288 13.125 10.5 13.125Z" fill="#9098B4" />
</svg>