<svg width="20" height="21" viewBox="0 0 20 21" fill="none" xmlns="http://www.w3.org/2000/svg">
<path d="M16.875 5.81278H14.8484C15.1384 5.39098 15.2996 4.89402 15.3125 4.38231C15.3241 3.99249 15.2558 3.60443 15.1119 3.24195C14.968 2.87947 14.7516 2.55024 14.4758 2.27447C14.2 1.99871 13.8708 1.78224 13.5083 1.63835C13.1459 1.49447 12.7578 1.42622 12.368 1.43778C12.0079 1.44547 11.6533 1.52751 11.3265 1.67876C10.9997 1.83001 10.7076 2.0472 10.4688 2.31669C10.2925 2.51768 10.1356 2.73478 10 2.96513C9.86439 2.73478 9.70745 2.51768 9.53125 2.31669C9.29236 2.0472 9.00032 1.83001 8.67349 1.67876C8.34666 1.52751 7.99208 1.44547 7.63203 1.43778C7.24221 1.42622 6.85415 1.49447 6.49167 1.63835C6.12919 1.78224 5.79996 1.99871 5.52419 2.27447C5.24843 2.55024 5.03195 2.87947 4.88807 3.24195C4.74419 3.60443 4.67593 3.99249 4.6875 4.38231C4.70036 4.89402 4.86158 5.39098 5.15156 5.81278H3.125C2.7106 5.81278 2.31317 5.9774 2.02015 6.27043C1.72712 6.56345 1.5625 6.96088 1.5625 7.37528V9.87528C1.56243 10.2355 1.68681 10.5847 1.91459 10.8637C2.14238 11.1427 2.45957 11.3345 2.8125 11.4065V16.1253C2.8125 16.5397 2.97712 16.9371 3.27015 17.2301C3.56317 17.5232 3.9606 17.6878 4.375 17.6878H15.625C16.0394 17.6878 16.4368 17.5232 16.7299 17.2301C17.0229 16.9371 17.1875 16.5397 17.1875 16.1253V11.4065C17.5404 11.3345 17.8576 11.1427 18.0854 10.8637C18.3132 10.5847 18.4376 10.2355 18.4375 9.87528V7.37528C18.4375 6.96088 18.2729 6.56345 17.9799 6.27043C17.6868 5.9774 17.2894 5.81278 16.875 5.81278ZM16.5625 9.56278H10.9375V7.68778H16.5625V9.56278ZM11.875 3.56044C11.9442 3.48368 12.0284 3.42206 12.1225 3.37944C12.2167 3.33682 12.3186 3.31413 12.4219 3.31278H12.4492C12.5814 3.31241 12.7124 3.33863 12.8342 3.38988C12.9561 3.44114 13.0664 3.51638 13.1586 3.61113C13.2508 3.70588 13.323 3.81821 13.3709 3.94143C13.4188 4.06466 13.4415 4.19626 13.4375 4.32841C13.4362 4.43171 13.4135 4.53362 13.3708 4.62773C13.3282 4.72185 13.2666 4.80613 13.1898 4.87528C12.6508 5.35341 11.7641 5.59872 11.0312 5.71591C11.1484 4.98622 11.3938 4.0995 11.875 3.56044ZM6.85156 3.60184C7.03701 3.41839 7.2868 3.31466 7.54766 3.31278H7.57812C7.68143 3.31413 7.78334 3.33682 7.87745 3.37944C7.97157 3.42206 8.05585 3.48368 8.125 3.56044C8.60313 4.0995 8.84844 4.98544 8.96484 5.71747C8.23828 5.5995 7.34375 5.35419 6.81016 4.87528C6.7334 4.80613 6.67178 4.72185 6.62916 4.62773C6.58654 4.53362 6.56384 4.43171 6.5625 4.32841C6.55904 4.19405 6.58288 4.06038 6.63256 3.9355C6.68225 3.81062 6.75675 3.69711 6.85156 3.60184ZM3.4375 7.68778H9.0625V9.56278H3.4375V7.68778ZM4.6875 11.4378H9.0625V15.8128H4.6875V11.4378ZM10.9375 15.8128V11.4378H15.3125V15.8128H10.9375Z" fill="#FF6B00"/>
</svg>
