<svg width="18" height="18" viewBox="0 0 30 30" fill="none" xmlns="http://www.w3.org/2000/svg">
<path d="M15 7.5C10.2012 7.5 6.46289 10.3594 1.875 15C5.82422 18.9668 9.14062 22.5 15 22.5C20.8535 22.5 25.1602 18.0234 28.125 15.082C25.0898 11.6367 20.7891 7.5 15 7.5ZM15 20.3496C12.1055 20.3496 9.75 17.9473 9.75 15C9.75 12.0469 12.1055 9.65039 15 9.65039C17.8945 9.65039 20.25 12.0527 20.25 15C20.25 17.9531 17.8945 20.3496 15 20.3496Z" fill="#9098B4"/>
<path d="M15 13.125C15 12.6621 15.1699 12.2402 15.4453 11.9121C15.2988 11.8887 15.1523 11.877 15 11.877C13.3125 11.877 11.9355 13.2773 11.9355 15C11.9355 16.7227 13.3125 18.123 15 18.123C16.6875 18.123 18.0645 16.7227 18.0645 15C18.0645 14.8652 18.0527 14.7305 18.041 14.5957C17.7187 14.8477 17.3203 15 16.8809 15C15.8379 15 15 14.1621 15 13.125Z" fill="#9098B4"/>
</svg>
