<svg width="15" height="15" viewBox="0 0 25 25" fill="none" xmlns="http://www.w3.org/2000/svg">
<path d="M23.1512 1.84743C22.9168 1.61309 22.599 1.48145 22.2675 1.48145C21.936 1.48145 21.6182 1.61309 21.3838 1.84743L1.85 21.3837C1.73061 21.499 1.63538 21.6369 1.56987 21.7894C1.50436 21.9419 1.46988 22.106 1.46844 22.2719C1.46699 22.4379 1.49862 22.6025 1.56147 22.7561C1.62432 22.9097 1.71714 23.0493 1.83451 23.1667C1.95187 23.284 2.09144 23.3769 2.24506 23.4397C2.39868 23.5026 2.56328 23.5342 2.72925 23.5327C2.89523 23.5313 3.05925 23.4968 3.21176 23.4313C3.36426 23.3658 3.50219 23.2706 3.6175 23.1512L23.15 3.61493C23.3843 3.38052 23.516 3.06263 23.516 2.73118C23.516 2.39972 23.3856 2.08184 23.1512 1.84743ZM3.885 16.8724L7.085 13.6724C6.99376 13.2882 6.94637 12.8948 6.94375 12.4999C6.94375 9.52618 9.43125 7.11368 12.5 7.11368C12.8575 7.11368 13.205 7.15368 13.5438 7.21618L15.0475 5.71368C14.2055 5.57418 13.3535 5.50311 12.5 5.50118C4.3 5.49993 0 11.5387 0 12.4999C0 13.0287 1.32125 15.1137 3.885 16.8724ZM21.1188 8.13118L17.9163 11.3312C18.0025 11.7087 18.055 12.0974 18.055 12.4999C18.055 15.4737 15.5687 17.8837 12.5 17.8837C12.145 17.8837 11.8 17.8437 11.4637 17.7824L9.95875 19.2862C10.7613 19.4162 11.6037 19.4987 12.5 19.4987C20.7 19.4987 25 13.4574 25 12.4999C25 11.9699 23.68 9.88743 21.1188 8.13118Z" fill="black"/>
</svg>
