<svg width="21" height="20" viewBox="0 0 21 20" fill="none" xmlns="http://www.w3.org/2000/svg">
    <g clip-path="url(#clip0_7447_15699)">
        <path d="M13.3507 15.2835C13.4122 15.3778 13.4471 15.487 13.4517 15.5995C13.4563 15.712 13.4304 15.8236 13.3768 15.9226C13.3231 16.0216 13.2438 16.1043 13.1471 16.1619C13.0503 16.2195 12.9398 16.2499 12.8273 16.2499H1.3007C1.18812 16.2499 1.07764 16.2195 0.980916 16.1619C0.884196 16.1043 0.804834 16.0216 0.751216 15.9226C0.697598 15.8236 0.671714 15.712 0.6763 15.5995C0.680886 15.487 0.71577 15.3778 0.777267 15.2835C1.65704 13.9293 2.95109 12.8959 4.46633 12.3374C3.62867 11.7798 2.99271 10.9674 2.6525 10.0203C2.31229 9.07325 2.28588 8.04185 2.57718 7.07862C2.86849 6.1154 3.46204 5.27149 4.27006 4.67169C5.07808 4.07189 6.05768 3.74805 7.06399 3.74805C8.0703 3.74805 9.04989 4.07189 9.85791 4.67169C10.6659 5.27149 11.2595 6.1154 11.5508 7.07862C11.8421 8.04185 11.8157 9.07325 11.4755 10.0203C11.1353 10.9674 10.4993 11.7798 9.66164 12.3374C11.1769 12.8959 12.4709 13.9293 13.3507 15.2835ZM20.2187 15.2718C19.3387 13.9233 18.0475 12.8943 16.5366 12.3374C17.5255 11.6713 18.2234 10.6534 18.4883 9.49084C18.7531 8.3283 18.5649 7.10853 17.9621 6.07981C17.3593 5.0511 16.3871 4.29076 15.2435 3.95357C14.0998 3.61637 12.8707 3.72766 11.8062 4.26479C11.7655 4.28581 11.7299 4.31552 11.7019 4.35182C11.674 4.38811 11.6544 4.43011 11.6444 4.47483C11.6345 4.51956 11.6346 4.56592 11.6446 4.61062C11.6546 4.65533 11.6743 4.69729 11.7023 4.73354C12.4938 5.72089 12.9484 6.93576 12.9994 8.20019C13.0504 9.46463 12.6953 10.7122 11.9859 11.7601C11.94 11.8286 11.9231 11.9124 11.9387 11.9933C11.9544 12.0742 12.0014 12.1457 12.0695 12.1921C12.9944 12.8377 13.7862 13.6554 14.4015 14.6007C14.6496 14.9808 14.751 15.4381 14.6866 15.8874C14.6794 15.9321 14.682 15.9779 14.6941 16.0215C14.7063 16.0651 14.7278 16.1055 14.7572 16.14C14.7865 16.1745 14.823 16.2022 14.8641 16.2212C14.9052 16.2401 14.95 16.25 14.9952 16.2499H19.7062C19.8438 16.25 19.9776 16.2046 20.0868 16.1208C20.196 16.0371 20.2745 15.9196 20.3101 15.7867C20.3318 15.6992 20.3349 15.6082 20.3191 15.5195C20.3034 15.4308 20.2692 15.3464 20.2187 15.2718Z" fill="#9098B4" />
    </g>
    <defs>
        <clipPath id="clip0_7447_15699">
            <rect width="20" height="20" fill="white" transform="translate(0.5)" />
        </clipPath>
    </defs>
</svg>