<svg width="40" height="40" viewBox="0 0 40 40" fill="none" xmlns="http://www.w3.org/2000/svg">
<rect width="40" height="40" rx="20" fill="#EFF5FF"/>
<path d="M27.8125 20C27.8125 20.2486 27.7137 20.4871 27.5379 20.6629C27.3621 20.8387 27.1236 20.9375 26.875 20.9375H20.9375V26.875C20.9375 27.1236 20.8387 27.3621 20.6629 27.5379C20.4871 27.7137 20.2486 27.8125 20 27.8125C19.7514 27.8125 19.5129 27.7137 19.3371 27.5379C19.1613 27.3621 19.0625 27.1236 19.0625 26.875V20.9375H13.125C12.8764 20.9375 12.6379 20.8387 12.4621 20.6629C12.2863 20.4871 12.1875 20.2486 12.1875 20C12.1875 19.7514 12.2863 19.5129 12.4621 19.3371C12.6379 19.1613 12.8764 19.0625 13.125 19.0625H19.0625V13.125C19.0625 12.8764 19.1613 12.6379 19.3371 12.4621C19.5129 12.2863 19.7514 12.1875 20 12.1875C20.2486 12.1875 20.4871 12.2863 20.6629 12.4621C20.8387 12.6379 20.9375 12.8764 20.9375 13.125V19.0625H26.875C27.1236 19.0625 27.3621 19.1613 27.5379 19.3371C27.7137 19.5129 27.8125 19.7514 27.8125 20Z" fill="#5898FF"/>
</svg>
