<svg width="22" height="22" viewBox="0 0 22 22" fill="none" xmlns="http://www.w3.org/2000/svg">
<g id="profile">
<g id="profile_2">
<path d="M10.99 0.916504C7.95314 0.916504 5.49125 3.37894 5.49125 6.4165C5.49125 9.45407 7.95314 11.9165 10.99 11.9165C14.0269 11.9165 16.4888 9.45407 16.4888 6.4165C16.4888 3.37894 14.0269 0.916504 10.99 0.916504Z" fill="#9098B4"/>
<path d="M6.31531 13.1199C7.01403 12.8349 7.7809 13.0479 8.49072 13.304C9.27487 13.5869 10.1266 13.7498 10.99 13.7498C11.8451 13.7498 12.6924 13.5899 13.4725 13.3119C14.1932 13.0551 14.972 12.8435 15.679 13.1362C16.8832 13.6346 18.238 14.646 19.0126 15.8513C19.3735 16.4129 19.3158 17.1425 18.8763 17.6449C17.0215 19.7649 13.9879 21.0832 10.99 21.0832C7.99158 21.0832 4.9788 19.7693 3.12189 17.6462C2.68238 17.1437 2.62461 16.4143 2.98484 15.8522C3.7625 14.6387 5.10579 13.6132 6.31531 13.1199Z" fill="#9098B4"/>
</g>
</g>
</svg>
