<svg width="20" height="20" viewBox="0 0 20 20" fill="none" xmlns="http://www.w3.org/2000/svg">
<rect width="20" height="20" rx="5" fill="#00AF8F"/>
<path d="M10.1566 5C7.7445 5 6.50439 6.34748 6.50439 7.857C6.50439 9.37994 7.41757 10.1215 9.10766 10.5525L10.3341 10.8626C11.5472 11.1723 12.1055 11.4556 12.1055 12.1022C12.1055 13.0054 11.1242 13.3289 10.2929 13.3289C8.91649 13.3289 8.11211 12.7355 7.60824 11.9273L6 12.8031C6.85827 14.3663 8.43956 15 10.0478 15C11.7653 15 14 14.2857 14 11.9273C14 10.0947 12.528 9.50171 11.0154 9.13788L10.0071 8.89532C8.98513 8.65277 8.38515 8.35603 8.38515 7.74964C8.38515 6.73866 9.639 6.60396 10.0478 6.60396C11.5604 6.60396 12.0648 7.53392 12.3236 7.97878L13.9049 7.04881C12.7594 5.24305 11.0154 5 10.1566 5Z" fill="white"/>
</svg>
