<svg width="20" height="21" viewBox="0 0 20 21" fill="none" xmlns="http://www.w3.org/2000/svg">
<g clip-path="url(#clip0_1492_11432)">
<path d="M16.8748 10.6041C16.8779 10.4916 16.8779 10.3791 16.8748 10.2666L18.0404 8.81034C18.1015 8.73388 18.1438 8.64413 18.1639 8.54833C18.184 8.45253 18.1813 8.35334 18.156 8.25878C17.9646 7.54061 17.6788 6.85101 17.306 6.20799C17.2572 6.12387 17.1894 6.05231 17.108 5.999C17.0266 5.9457 16.9339 5.91213 16.8373 5.90096L14.9842 5.69471C14.9071 5.61346 14.829 5.53534 14.7498 5.46034L14.531 3.60253C14.5198 3.50582 14.4861 3.41307 14.4327 3.33169C14.3792 3.25031 14.3075 3.18253 14.2232 3.13378C13.5803 2.76131 12.8906 2.476 12.1724 2.28534C12.0779 2.26007 11.9787 2.25737 11.8829 2.27746C11.7871 2.29754 11.6973 2.33984 11.6209 2.40096L10.1685 3.56034C10.056 3.56034 9.94354 3.56034 9.83104 3.56034L8.37479 2.39706C8.29833 2.33594 8.20859 2.29363 8.11278 2.27355C8.01698 2.25347 7.9178 2.25617 7.82323 2.28143C7.10506 2.47286 6.41546 2.75868 5.77245 3.13143C5.68832 3.18028 5.61676 3.24809 5.56346 3.32947C5.51015 3.41085 5.47658 3.50354 5.46542 3.60018L5.25917 5.45643C5.17792 5.53404 5.09979 5.61216 5.02479 5.69081L3.16698 5.90409C3.07027 5.91534 2.97753 5.94903 2.89614 6.00247C2.81476 6.05591 2.74699 6.12763 2.69823 6.2119C2.32584 6.855 2.04029 7.54459 1.84901 8.26268C1.82385 8.35731 1.82128 8.45653 1.8415 8.55233C1.86172 8.64814 1.90416 8.73785 1.96542 8.81424L3.12479 10.2666C3.12479 10.3791 3.12479 10.4916 3.12479 10.6041L1.96151 12.0603C1.90039 12.1368 1.85809 12.2265 1.838 12.3223C1.81792 12.4182 1.82062 12.5173 1.84589 12.6119C2.03731 13.3301 2.32314 14.0197 2.69589 14.6627C2.74473 14.7468 2.81255 14.8184 2.89392 14.8717C2.9753 14.925 3.068 14.9585 3.16464 14.9697L5.01776 15.176C5.09536 15.2572 5.17349 15.3353 5.25214 15.4103L5.46854 17.2682C5.47979 17.3649 5.51348 17.4576 5.56692 17.539C5.62037 17.6204 5.69208 17.6881 5.77635 17.7369C6.41945 18.1093 7.10904 18.3948 7.82714 18.5861C7.92176 18.6113 8.02098 18.6139 8.11679 18.5936C8.21259 18.5734 8.30231 18.531 8.3787 18.4697L9.83104 17.3103C9.94354 17.3135 10.056 17.3135 10.1685 17.3103L11.6248 18.476C11.7013 18.5371 11.791 18.5794 11.8868 18.5995C11.9826 18.6196 12.0818 18.6169 12.1764 18.5916C12.8946 18.4005 13.5843 18.1147 14.2271 17.7416C14.3113 17.6927 14.3828 17.6249 14.4361 17.5436C14.4894 17.4622 14.523 17.3695 14.5342 17.2728L14.7404 15.4197C14.8217 15.3426 14.8998 15.2645 14.9748 15.1853L16.8326 14.9666C16.9293 14.9553 17.0221 14.9216 17.1034 14.8682C17.1848 14.8148 17.2526 14.743 17.3014 14.6588C17.6737 14.0157 17.9593 13.3261 18.1506 12.608C18.1757 12.5134 18.1783 12.4142 18.1581 12.3183C18.1379 12.2225 18.0954 12.1328 18.0342 12.0564L16.8748 10.6041ZM9.99979 13.5603C9.38172 13.5603 8.77754 13.3771 8.26363 13.0337C7.74973 12.6903 7.34919 12.2022 7.11267 11.6312C6.87614 11.0602 6.81426 10.4319 6.93484 9.82568C7.05542 9.21949 7.35304 8.66267 7.79008 8.22563C8.22712 7.78859 8.78394 7.49096 9.39013 7.37038C9.99633 7.24981 10.6247 7.31169 11.1957 7.54821C11.7667 7.78474 12.2548 8.18528 12.5981 8.69918C12.9415 9.21309 13.1248 9.81727 13.1248 10.4353C13.1248 11.2641 12.7956 12.059 12.2095 12.645C11.6234 13.2311 10.8286 13.5603 9.99979 13.5603Z" fill="#9098B4"/>
</g>
<defs>
<clipPath id="clip0_1492_11432">
<rect width="20" height="20" fill="white" transform="translate(0 0.435547)"/>
</clipPath>
</defs>
</svg>
