<svg width="60" height="56" viewBox="0 0 60 56" fill="none" xmlns="http://www.w3.org/2000/svg">
<g filter="url(#filter0_d_2986_12057)">
<path d="M8 5H53C55.7614 5 58 7.23858 58 10V46C58 48.7614 55.7614 51 53 51H8V5Z" fill="white"/>
<path d="M24.339 33C25.0283 34.1963 26.5569 34.6073 27.7533 33.918C27.7541 33.9176 27.7549 33.9171 27.7557 33.9166L28.1265 33.7025C28.8265 34.3014 29.6311 34.7658 30.4998 35.0725V35.5C30.4998 36.8807 31.6191 38 32.9998 38C34.3805 38 35.4998 36.8807 35.4998 35.5V35.0725C36.3687 34.7654 37.1733 34.3004 37.8732 33.7008L38.2457 33.9158C39.4423 34.6062 40.972 34.1958 41.6623 32.9991C42.3527 31.8025 41.9423 30.2728 40.7457 29.5825L40.3757 29.3691C40.5422 28.4629 40.5422 27.5338 40.3757 26.6275L40.7457 26.4141C41.9423 25.7238 42.3527 24.1941 41.6623 22.9975C40.972 21.8009 39.4423 21.3904 38.2457 22.0808L37.8748 22.295C37.1741 21.6968 36.369 21.2332 35.4998 20.9275V20.5C35.4998 19.1193 34.3805 18 32.9998 18C31.6191 18 30.4998 19.1193 30.4998 20.5V20.9275C29.631 21.2346 28.8264 21.6996 28.1265 22.2992L27.754 22.0834C26.5574 21.393 25.0277 21.8034 24.3373 23C23.647 24.1966 24.0574 25.7263 25.254 26.4167L25.624 26.63C25.4575 27.5363 25.4575 28.4654 25.624 29.3717L25.254 29.585C24.0607 30.2772 23.6516 31.8039 24.339 33ZM32.9998 24.6667C34.8408 24.6667 36.3332 26.1591 36.3332 28C36.3332 29.8409 34.8408 31.3333 32.9998 31.3333C31.1589 31.3333 29.6665 29.8409 29.6665 28C29.6665 26.1591 31.1589 24.6667 32.9998 24.6667Z" fill="#9098B4"/>
</g>
<defs>
<filter id="filter0_d_2986_12057" x="0" y="0" width="60" height="56" filterUnits="userSpaceOnUse" color-interpolation-filters="sRGB">
<feFlood flood-opacity="0" result="BackgroundImageFix"/>
<feColorMatrix in="SourceAlpha" type="matrix" values="0 0 0 0 0 0 0 0 0 0 0 0 0 0 0 0 0 0 127 0" result="hardAlpha"/>
<feOffset dx="-3"/>
<feGaussianBlur stdDeviation="2.5"/>
<feComposite in2="hardAlpha" operator="out"/>
<feColorMatrix type="matrix" values="0 0 0 0 0 0 0 0 0 0 0 0 0 0 0 0 0 0 0.05 0"/>
<feBlend mode="normal" in2="BackgroundImageFix" result="effect1_dropShadow_2986_12057"/>
<feBlend mode="normal" in="SourceGraphic" in2="effect1_dropShadow_2986_12057" result="shape"/>
</filter>
</defs>
</svg>
