<svg width="76" height="75" viewBox="0 0 76 75" fill="none" xmlns="http://www.w3.org/2000/svg">
    <path d="M37.873 7.03129C21.5576 7.28031 8.22162 20.5342 7.86713 36.8584C7.74298 42.3491 9.112 47.7705 11.8281 52.544C11.9348 52.7306 12.0907 52.8842 12.2789 52.9881C12.467 53.092 12.6801 53.1422 12.8949 53.1331C13.1096 53.1241 13.3177 53.0561 13.4964 52.9367C13.6751 52.8173 13.8176 52.651 13.9081 52.4561C16.1085 47.7828 17.2461 42.6801 17.2392 37.5147C17.234 34.3508 17.9429 31.2266 19.313 28.3748C20.6831 25.523 22.6791 23.0172 25.1523 21.044C25.3949 20.8543 25.6724 20.7143 25.9691 20.6319C26.2658 20.5495 26.5758 20.5263 26.8815 20.5637C27.1871 20.6011 27.4824 20.6984 27.7505 20.8499C28.0185 21.0014 28.2541 21.2042 28.4438 21.4468C28.6335 21.6894 28.7735 21.967 28.8559 22.2636C28.9383 22.5603 28.9615 22.8704 28.9241 23.176C28.8867 23.4816 28.7894 23.7769 28.6379 24.045C28.4864 24.3131 28.2835 24.5487 28.041 24.7383C26.129 26.2743 24.5871 28.2207 23.5292 30.4333C22.4713 32.6459 21.9246 35.0681 21.9296 37.5206C21.9374 44.5568 20.0717 51.4683 16.5244 57.545C16.3929 57.7682 16.3391 58.0288 16.3714 58.2859C16.4037 58.543 16.5204 58.7821 16.7031 58.9659C17.289 59.5518 17.9013 60.1377 18.5341 60.6709C18.6638 60.7799 18.8156 60.8594 18.979 60.9041C19.1424 60.9487 19.3135 60.9574 19.4805 60.9296C19.6476 60.9017 19.8067 60.838 19.9467 60.7428C20.0868 60.6476 20.2046 60.5231 20.2919 60.378C22.8855 56.0723 24.7273 51.3565 25.7382 46.4327C25.8622 45.8235 26.223 45.2885 26.7414 44.9454C27.2598 44.6023 27.8932 44.4791 28.5024 44.6031C29.1116 44.727 29.6465 45.0879 29.9897 45.6062C30.3328 46.1246 30.4559 46.7581 30.332 47.3672C29.1987 52.9231 27.1101 58.2402 24.1591 63.0821C24.0759 63.2197 24.0219 63.373 24.0005 63.5325C23.9791 63.6919 23.9907 63.854 24.0347 64.0087C24.0787 64.1635 24.154 64.3075 24.2561 64.4318C24.3581 64.5562 24.4847 64.6582 24.6279 64.7315C25.3515 65.0977 26.0927 65.4375 26.8456 65.7481C27.1056 65.8595 27.3971 65.8731 27.6663 65.7864C27.9356 65.6997 28.1644 65.5186 28.3105 65.2764C33.3437 56.9161 35.9997 47.3406 35.9921 37.5821C35.9861 36.9804 36.2072 36.3986 36.6112 35.9528C37.0152 35.507 37.5725 35.2299 38.1718 35.1768C38.4931 35.1543 38.8156 35.1982 39.1192 35.3058C39.4228 35.4135 39.7009 35.5825 39.9362 35.8025C40.1715 36.0224 40.359 36.2885 40.4869 36.5841C40.6148 36.8797 40.6804 37.1985 40.6796 37.5206C40.6912 47.4842 38.1484 57.2844 33.2939 65.9854C33.2004 66.152 33.1492 66.339 33.1445 66.53C33.1398 66.721 33.1819 66.9102 33.2672 67.0812C33.3524 67.2522 33.4781 67.3998 33.6334 67.5111C33.7887 67.6224 33.9688 67.694 34.1581 67.7198C35.0468 67.8428 35.9462 67.9268 36.8564 67.9717C37.0752 67.9799 37.2919 67.9265 37.4819 67.8178C37.672 67.7091 37.8277 67.5492 37.9316 67.3565C42.804 58.2425 45.3576 48.0691 45.3671 37.7344C45.3818 33.8526 42.3496 30.5596 38.4706 30.4864C37.5375 30.4685 36.6101 30.6366 35.7426 30.9808C34.875 31.325 34.0847 31.8385 33.4177 32.4914C32.7507 33.1442 32.2203 33.9233 31.8575 34.7832C31.4947 35.6432 31.3068 36.5667 31.3046 37.5C31.3003 38.0853 31.0799 38.6484 30.6857 39.081C30.2914 39.5136 29.7513 39.7853 29.1689 39.8438C28.8441 39.8727 28.5168 39.8336 28.208 39.7288C27.8992 39.6241 27.6156 39.456 27.3754 39.2354C27.1353 39.0148 26.9438 38.7466 26.8132 38.4477C26.6826 38.1489 26.6158 37.8261 26.6171 37.5C26.617 35.9507 26.9242 34.4167 27.5208 32.9869C28.1174 31.557 28.9916 30.2596 30.0929 29.1698C31.1941 28.08 32.5005 27.2194 33.9366 26.6378C35.3726 26.0561 36.9097 25.765 38.4589 25.7813C44.9042 25.8487 50.0839 31.3975 50.0517 37.8399C50.0231 47.3958 47.9744 56.8376 44.04 65.5459C43.9506 65.7465 43.9193 65.9682 43.9498 66.1857C43.9803 66.4032 44.0713 66.6077 44.2124 66.776C44.3535 66.9443 44.539 67.0695 44.7478 67.1375C44.9567 67.2054 45.1804 67.2133 45.3935 67.1602C46.4099 66.9192 47.4132 66.6259 48.3994 66.2813C48.5531 66.2268 48.6937 66.1407 48.8122 66.0288C48.9308 65.9168 49.0246 65.7813 49.0878 65.6309C50.4521 62.3977 51.5763 59.0684 52.4511 55.67C52.5281 55.3718 52.663 55.0917 52.8482 54.8457C53.0334 54.5997 53.2652 54.3925 53.5305 54.2361C53.7957 54.0797 54.0892 53.977 54.3941 53.934C54.699 53.891 55.0094 53.9085 55.3076 53.9854C55.6057 54.0623 55.8858 54.1973 56.1318 54.3825C56.3779 54.5677 56.585 54.7995 56.7414 55.0647C56.8979 55.33 57.0005 55.6234 57.0435 55.9284C57.0865 56.2333 57.0691 56.5437 56.9921 56.8418C56.7734 57.6954 56.539 58.545 56.289 59.3907C56.2154 59.6342 56.2231 59.895 56.3108 60.1338C56.3985 60.3725 56.5615 60.5763 56.7752 60.7142C56.9889 60.8522 57.2417 60.9168 57.4954 60.8985C57.7491 60.8801 57.99 60.7797 58.1816 60.6124C62.9326 56.5326 66.3112 51.088 67.8574 45.0196C69.4036 38.9511 69.0424 32.5536 66.8229 26.6978C64.6034 20.842 60.6334 15.8123 55.4533 12.2933C50.2732 8.77431 44.1346 6.93695 37.873 7.03129ZM58.8437 47.1915C58.7724 47.757 58.4976 48.2771 58.0705 48.6546C57.6434 49.0321 57.0934 49.241 56.5234 49.2422C56.4255 49.2422 56.3276 49.2363 56.2304 49.2247C55.9249 49.1866 55.6299 49.0888 55.3622 48.9367C55.0945 48.7846 54.8595 48.5813 54.6704 48.3384C54.4813 48.0954 54.3419 47.8176 54.2602 47.5208C54.1785 47.2239 54.1561 46.9139 54.1943 46.6084C54.5679 43.5955 54.7558 40.5624 54.7568 37.5264C54.7506 33.1771 53.0201 29.0077 49.9447 25.9323C46.8692 22.8569 42.6998 21.1264 38.3505 21.1202C37.665 21.1199 36.9801 21.1619 36.2997 21.2461C35.6824 21.3238 35.0595 21.1531 34.5681 20.7715C34.0766 20.39 33.7568 19.8288 33.6791 19.2115C33.6014 18.5941 33.7722 17.9712 34.1537 17.4798C34.5353 16.9883 35.0965 16.6686 35.7138 16.5909C38.6835 16.2215 41.6978 16.4873 44.5571 17.3707C47.4163 18.2542 50.0551 19.7351 52.2988 21.7154C54.5425 23.6957 56.3398 26.1301 57.5717 28.8574C58.8036 31.5847 59.4418 34.5426 59.4443 37.5352C59.4436 40.7633 59.243 43.9882 58.8437 47.1915Z" fill="#5898FF" />
</svg>