<svg width="76" height="75" viewBox="0 0 76 75" fill="none" xmlns="http://www.w3.org/2000/svg">
    <path d="M18.9525 43.3008C18.9604 43.4596 18.936 43.6183 18.8807 43.7673C18.8254 43.9163 18.7403 44.0525 18.6307 44.1676C18.5211 44.2827 18.3892 44.3743 18.243 44.4368C18.0969 44.4993 17.9396 44.5315 17.7806 44.5313H4.85483C4.32583 44.5321 3.81212 44.3539 3.39723 44.0257C2.98234 43.6975 2.69068 43.2386 2.56967 42.7237C2.49432 42.3712 2.4978 42.0064 2.57985 41.6554C2.66189 41.3044 2.82049 40.9759 3.04428 40.6934C5.11208 37.9511 7.85568 35.792 11.0072 34.4268C9.62356 33.1653 8.56237 31.5906 7.91247 29.8346C7.26258 28.0786 7.04291 26.1925 7.27186 24.3342C7.50081 22.4758 8.17171 20.6994 9.22838 19.1537C10.285 17.608 11.6967 16.3379 13.3451 15.45C14.9936 14.562 16.8308 14.082 18.7029 14.05C20.575 14.0181 22.4275 14.4353 24.1053 15.2665C25.783 16.0978 27.2371 17.3189 28.3459 18.8277C29.4546 20.3365 30.1857 22.0891 30.4779 23.9385C30.5156 24.1872 30.4711 24.4414 30.351 24.6625C30.231 24.8835 30.042 25.0593 29.8128 25.1631C26.562 26.666 23.8089 29.0673 21.8784 32.0838C19.9478 35.1004 18.9204 38.6061 18.9173 42.1875C18.9173 42.5625 18.9173 42.9317 18.9525 43.3008ZM72.2728 40.6904C70.2098 37.9514 67.4725 35.7934 64.3275 34.4268C65.7111 33.1653 66.7723 31.5906 67.4222 29.8346C68.0721 28.0786 68.2917 26.1925 68.0628 24.3342C67.8338 22.4758 67.1629 20.6994 66.1063 19.1537C65.0496 17.608 63.6379 16.3379 61.9895 15.45C60.3411 14.562 58.5039 14.082 56.6318 14.05C54.7596 14.0181 52.9071 14.4353 51.2294 15.2665C49.5517 16.0978 48.0975 17.3189 46.9888 18.8277C45.88 20.3365 45.1489 22.0891 44.8568 23.9385C44.8191 24.1872 44.8636 24.4414 44.9837 24.6625C45.1037 24.8835 45.2927 25.0593 45.5218 25.1631C48.7726 26.666 51.5257 29.0673 53.4563 32.0838C55.3868 35.1004 56.4142 38.6061 56.4173 42.1875C56.4173 42.5625 56.4173 42.9317 56.3822 43.3008C56.3742 43.4596 56.3987 43.6183 56.454 43.7673C56.5093 43.9163 56.5944 44.0525 56.704 44.1676C56.8136 44.2827 56.9455 44.3743 57.0916 44.4368C57.2378 44.4993 57.3951 44.5315 57.5541 44.5313H70.4798C71.0088 44.5321 71.5225 44.3539 71.9374 44.0257C72.3523 43.6975 72.644 43.2386 72.765 42.7237C72.8408 42.3705 72.8373 42.005 72.7547 41.6534C72.6721 41.3018 72.5125 40.9729 72.2874 40.6904H72.2728ZM46.1986 53.3408C48.5322 51.5536 50.2472 49.0801 51.1024 46.2679C51.9576 43.4557 51.9101 40.4461 50.9666 37.6623C50.0231 34.8785 48.2309 32.4603 45.842 30.7476C43.4532 29.0349 40.5877 28.1138 37.6483 28.1138C34.7089 28.1138 31.8434 29.0349 29.4545 30.7476C27.0657 32.4603 25.2735 34.8785 24.33 37.6623C23.3864 40.4461 23.3389 43.4557 24.1942 46.2679C25.0494 49.0801 26.7644 51.5536 29.098 53.3408C24.957 55.1351 21.4992 58.2079 19.2308 62.1094C19.0251 62.4657 18.9168 62.8699 18.9168 63.2814C18.9168 63.6929 19.0252 64.0971 19.2309 64.4534C19.4367 64.8097 19.7327 65.1055 20.089 65.3112C20.4454 65.5169 20.8496 65.6251 21.2611 65.625H54.0736C54.485 65.6251 54.8893 65.5169 55.2456 65.3112C55.602 65.1055 55.8979 64.8097 56.1037 64.4534C56.3095 64.0971 56.4178 63.6929 56.4179 63.2814C56.4179 62.8699 56.3096 62.4657 56.1039 62.1094C53.8306 58.2053 50.3664 55.1323 46.2191 53.3408H46.1986Z" fill="#5898FF" />
</svg>