<svg width="21" height="20" viewBox="0 0 21 20" fill="none" xmlns="http://www.w3.org/2000/svg">
    <path d="M18.6634 16.8369L14.9533 13.1251C16.0657 11.6755 16.585 9.85701 16.406 8.03853C16.2269 6.22005 15.3629 4.53777 13.9891 3.33294C12.6153 2.12811 10.8346 1.49096 9.00834 1.55073C7.18205 1.6105 5.44687 2.36272 4.15479 3.65479C2.86272 4.94687 2.1105 6.68205 2.05073 8.50834C1.99096 10.3346 2.62811 12.1153 3.83294 13.4891C5.03777 14.8629 6.72005 15.7269 8.53853 15.906C10.357 16.085 12.1755 15.5657 13.6251 14.4533L17.3384 18.1673C17.4256 18.2545 17.5292 18.3237 17.6431 18.3709C17.757 18.4181 17.8792 18.4424 18.0025 18.4424C18.1258 18.4424 18.2479 18.4181 18.3619 18.3709C18.4758 18.3237 18.5793 18.2545 18.6665 18.1673C18.7537 18.0801 18.8229 17.9766 18.8701 17.8626C18.9173 17.7487 18.9416 17.6266 18.9416 17.5033C18.9416 17.3799 18.9173 17.2578 18.8701 17.1439C18.8229 17.0299 18.7537 16.9264 18.6665 16.8392L18.6634 16.8369ZM3.93764 8.75014C3.93764 7.69942 4.24921 6.67231 4.83295 5.79867C5.4167 4.92503 6.2464 4.24412 7.21713 3.84203C8.18786 3.43994 9.25603 3.33473 10.2866 3.53972C11.3171 3.7447 12.2637 4.25067 13.0066 4.99363C13.7496 5.7366 14.2556 6.6832 14.4606 7.71372C14.6655 8.74424 14.5603 9.81241 14.1582 10.7831C13.7562 11.7539 13.0752 12.5836 12.2016 13.1673C11.328 13.7511 10.3009 14.0626 9.25014 14.0626C7.84162 14.0612 6.4912 13.501 5.49523 12.505C4.49926 11.5091 3.93908 10.1587 3.93764 8.75014Z" fill="#5898FF" />
</svg>