<svg width="76" height="75" viewBox="0 0 76 75" fill="none" xmlns="http://www.w3.org/2000/svg">
    <path d="M70 44.502V44.4727C69.9949 44.4507 69.988 44.4291 69.9794 44.4083C69.785 43.8777 69.559 43.3592 69.3027 42.8555L57.124 15.1758C57.0067 14.9092 56.8408 14.6668 56.6347 14.461C55.7641 13.5902 54.7306 12.8995 53.593 12.4282C52.4554 11.9569 51.2362 11.7144 50.0048 11.7144C48.7735 11.7144 47.5543 11.9569 46.4167 12.4282C45.2791 12.8995 44.2455 13.5902 43.375 14.461C42.937 14.8995 42.6905 15.4936 42.6894 16.1133V23.4375H33.3144V16.1133C33.3146 15.8055 33.2542 15.5005 33.1366 15.216C33.019 14.9315 32.8464 14.6729 32.6289 14.4551C31.7583 13.5844 30.7247 12.8936 29.5871 12.4223C28.4496 11.9511 27.2303 11.7085 25.999 11.7085C24.7677 11.7085 23.5484 11.9511 22.4108 12.4223C21.2733 12.8936 20.2397 13.5844 19.3691 14.4551C19.163 14.6609 18.9971 14.9034 18.8798 15.17L6.71285 42.8555C6.45656 43.3592 6.23057 43.8777 6.03609 44.4083C6.02794 44.4283 6.02109 44.4488 6.01558 44.4698C6.01558 44.4698 6.01558 44.4932 6.01558 44.502C4.80559 47.9981 5.02207 51.8303 6.6181 55.1679C8.21414 58.5056 11.0611 61.0798 14.5421 62.3327C18.0231 63.5857 21.8576 63.4164 25.2147 61.8616C28.5717 60.3068 31.1808 57.4917 32.4765 54.0264C33.047 52.4699 33.3348 50.8239 33.3261 49.1661V28.125H42.7011V49.169C42.6925 50.8268 42.9802 52.4728 43.5507 54.0293C44.8465 57.4946 47.4556 60.3097 50.8126 61.8645C54.1696 63.4194 58.0041 63.5886 61.4851 62.3357C64.9661 61.0827 67.8131 58.5085 69.4091 55.1709C71.0052 51.8332 71.2217 48.0011 70.0117 44.5049L70 44.502ZM28.0615 52.4122C27.196 54.7215 25.4554 56.5968 23.2169 57.6317C20.9784 58.6666 18.4222 58.7778 16.1023 57.9411C13.7824 57.1045 11.8856 55.3874 10.8228 53.162C9.76012 50.9365 9.61709 48.382 10.4248 46.0518L10.955 44.8418C11.9297 42.9892 13.4963 41.5161 15.4053 40.6572C17.3143 39.7983 19.4559 39.603 21.4888 40.1025C23.5216 40.6019 25.3289 41.7674 26.6225 43.4132C27.9161 45.0589 28.6218 47.0903 28.6269 49.1836V49.2188C28.6267 50.312 28.4354 51.3967 28.0615 52.4239V52.4122ZM59.9746 58.0284C58.5574 58.5471 57.036 58.7161 55.5396 58.521C54.0432 58.3258 52.616 57.7723 51.3793 56.9075C50.1426 56.0427 49.1329 54.8921 48.4361 53.5535C47.7393 52.2149 47.376 50.7279 47.3769 49.2188V49.1866C47.3847 47.0942 48.0921 45.0646 49.3867 43.4209C50.6812 41.7771 52.4885 40.6136 54.5207 40.1156C56.5529 39.6177 58.6933 39.8139 60.6012 40.673C62.509 41.5321 64.0746 43.0048 65.0488 44.8565L65.5791 46.0665C66.4127 48.3964 66.2913 50.9614 65.2414 53.2022C64.1915 55.4429 62.2983 57.1778 59.9746 58.0284Z" fill="#5898FF" />
</svg>