<svg width="15" height="15" viewBox="0 0 15 15" fill="none" xmlns="http://www.w3.org/2000/svg">
<g clip-path="url(#clip0_5462_8932)">
<path d="M11.4773 3.52252C11.5653 3.61043 11.6146 3.72966 11.6146 3.85398C11.6146 3.9783 11.5653 4.09753 11.4773 4.18544L8.16279 7.5L11.4773 10.8146C11.5653 10.9025 11.6146 11.0217 11.6146 11.146C11.6146 11.2703 11.5653 11.3896 11.4773 11.4775C11.3894 11.5654 11.2702 11.6148 11.1459 11.6148C11.0216 11.6148 10.9023 11.5654 10.8144 11.4775L7.49987 8.16291L4.18531 11.4775C4.0974 11.5654 3.97817 11.6148 3.85385 11.6148C3.72953 11.6148 3.61031 11.5654 3.5224 11.4775C3.43449 11.3896 3.3851 11.2703 3.3851 11.146C3.3851 11.0217 3.43449 10.9025 3.5224 10.8146L6.83696 7.5L3.5224 4.18544C3.43449 4.09753 3.3851 3.9783 3.3851 3.85398C3.3851 3.72966 3.43449 3.61043 3.5224 3.52252C3.61031 3.43462 3.72953 3.38523 3.85385 3.38523C3.97817 3.38523 4.0974 3.43462 4.18531 3.52252L7.49987 6.83709L10.8144 3.52252C10.9023 3.43462 11.0216 3.38523 11.1459 3.38523C11.2702 3.38523 11.3894 3.43462 11.4773 3.52252Z" fill="#9098B4"/>
</g>
<defs>
<clipPath id="clip0_5462_8932">
<rect width="15" height="15" fill="white"/>
</clipPath>
</defs>
</svg>
