<svg width="17" height="17" viewBox="0 0 17 17" fill="none" xmlns="http://www.w3.org/2000/svg">
<path d="M8.5 17C13.1944 17 17 13.1944 17 8.5C17 3.80558 13.1944 0 8.5 0C3.80558 0 0 3.80558 0 8.5C0 13.1944 3.80558 17 8.5 17Z" fill="#37BBFE"/>
<path d="M12.7419 4.98391C12.8175 4.49487 12.3526 4.10887 11.9177 4.29978L3.25721 8.1022C2.94539 8.23911 2.9682 8.71147 3.29161 8.81444L5.07759 9.38321C5.41851 9.49177 5.78759 9.43561 6.08527 9.22997L10.112 6.44804C10.2334 6.36413 10.3657 6.5368 10.262 6.64372L7.36349 9.63208C7.08232 9.92199 7.13812 10.4132 7.47636 10.6253L10.7215 12.6603C11.0855 12.8885 11.5537 12.6593 11.6218 12.2194L12.7419 4.98391Z" fill="white"/>
</svg>
