<svg width="17" height="17" viewBox="0 0 17 17" fill="none" xmlns="http://www.w3.org/2000/svg">
<g clip-path="url(#clip0_2744_12849)">
<path fill-rule="evenodd" clip-rule="evenodd" d="M14.5303 2.46967C12.9544 0.883447 10.8092 -0.0059321 8.57339 2.97815e-05C3.93129 2.97815e-05 0.153334 3.77758 0.151719 8.42088C0.149737 9.89867 0.537502 11.3508 1.2759 12.6309L0.0810547 16.9952L4.54547 15.8242C5.78012 16.4969 7.16374 16.8494 8.56978 16.8494H8.57339C13.2147 16.8494 16.993 13.0714 16.9946 8.42817C17.0019 6.19259 16.1145 4.04704 14.5303 2.46967ZM12.4127 10.1826C12.2023 10.0772 11.1678 9.56852 10.9748 9.4962C10.7818 9.42395 10.6417 9.3908 10.5015 9.6016C10.3614 9.8124 9.95805 10.2861 9.83529 10.4266C9.71254 10.5671 9.58978 10.5844 9.37934 10.4791C9.16896 10.3737 8.49102 10.1515 7.68706 9.43486C7.06156 8.87676 6.63716 8.18791 6.51602 7.97711C6.39488 7.76631 6.5031 7.65404 6.60849 7.54743C6.70298 7.45337 6.81887 7.30192 6.92386 7.17882C7.02885 7.05564 7.06438 6.96841 7.1342 6.82789C7.20412 6.68737 7.16934 6.56461 7.11685 6.45922C7.06438 6.35383 6.64321 5.31808 6.46797 4.89692C6.29716 4.48665 6.12393 4.54197 5.99471 4.5335C5.87358 4.52744 5.73143 4.52623 5.59091 4.52623C5.37528 4.53187 5.17181 4.62731 5.02963 4.78951C4.83701 5.00029 4.2935 5.50908 4.2935 6.54483C4.2935 7.58058 5.0474 8.58117 5.15239 8.72171C5.25737 8.86224 6.63635 10.9875 8.74623 11.8992C9.13808 12.0682 9.5385 12.2165 9.94593 12.3434C10.4498 12.5049 10.9086 12.4811 11.2712 12.427C11.675 12.3664 12.5161 11.9178 12.6917 11.4263C12.8674 10.935 12.867 10.5134 12.8129 10.4257C12.7588 10.3381 12.6231 10.2897 12.4127 10.1843V10.1826Z" fill="#28D146"/>
</g>
<defs>
<clipPath id="clip0_2744_12849">
<rect width="17" height="17" fill="white"/>
</clipPath>
</defs>
</svg>
