<svg width="17" height="17" viewBox="0 0 17 17" fill="none" xmlns="http://www.w3.org/2000/svg">
<g clip-path="url(#clip0_4301_4896)">
<path fill-rule="evenodd" clip-rule="evenodd" d="M8.49754 0C3.81163 0 0 3.8127 0 8.49992C0 10.3588 0.599477 12.0828 1.61854 13.482L0.559438 16.6401L3.82657 15.5959C5.17034 16.4854 6.77394 17 8.50246 17C13.1884 17 17 13.1872 17 8.50008C17 3.81285 13.1884 0.000140508 8.50246 0.000140508L8.49754 0ZM6.12455 4.31758C5.95973 3.92285 5.83482 3.9079 5.58513 3.89775C5.50011 3.89281 5.40537 3.88788 5.30033 3.88788C4.97549 3.88788 4.63585 3.98279 4.431 4.19264C4.1813 4.44748 3.56179 5.04205 3.56179 6.26138C3.56179 7.48072 4.45101 8.65999 4.57086 8.825C4.69577 8.98972 6.30444 11.5282 8.8022 12.5628C10.7555 13.3723 11.3351 13.2973 11.7796 13.2024C12.429 13.0625 13.2434 12.5826 13.4482 12.0031C13.6531 11.4233 13.6531 10.9286 13.593 10.8237C13.5331 10.7187 13.3681 10.6589 13.1184 10.5338C12.8687 10.4089 11.6547 9.80924 11.4249 9.72927C11.2 9.64437 10.9853 9.67441 10.8155 9.9143C10.5757 10.2491 10.341 10.589 10.1511 10.7938C10.0012 10.9537 9.75628 10.9737 9.55156 10.8887C9.27677 10.7739 8.50755 10.5038 7.55827 9.65932C6.82386 9.00481 6.32434 8.19037 6.17954 7.94554C6.03461 7.69578 6.16458 7.55066 6.27935 7.41584C6.40426 7.26085 6.52412 7.15099 6.64903 7.00601C6.77395 6.86117 6.84388 6.78615 6.92382 6.61621C7.00884 6.45135 6.94877 6.28141 6.88885 6.15646C6.82893 6.0315 6.32941 4.81217 6.12455 4.31758Z" fill="#67C15E"/>
</g>
<defs>
<clipPath id="clip0_4301_4896">
<rect width="17" height="17" fill="white"/>
</clipPath>
</defs>
</svg>
