<svg width="17" height="17" viewBox="0 0 17 17" fill="none" xmlns="http://www.w3.org/2000/svg">
<path d="M8.5 0C6.81891 0 5.17547 0.498514 3.77765 1.4325C2.37984 2.36649 1.29037 3.69401 0.64703 5.24718C0.00368637 6.80031 -0.164646 8.50945 0.163327 10.1582C0.491299 11.8071 1.30085 13.3216 2.4896 14.5104C3.67834 15.6992 5.19289 16.5087 6.84176 16.8367C8.49054 17.1647 10.1997 16.9963 11.7528 16.3529C13.306 15.7096 14.6335 14.6202 15.5675 13.2224C16.5015 11.8246 17 10.1812 17 8.49999C17 6.24566 16.1044 4.08365 14.5105 2.48959C12.9164 0.895527 10.7543 0 8.5 0ZM12.6756 5.82249L11.2838 12.3994C11.1775 12.8669 10.9013 12.9731 10.5081 12.7606L8.38313 11.1881L7.32063 12.1762C7.27058 12.2416 7.2063 12.2947 7.13267 12.3316C7.05904 12.3683 6.97797 12.3879 6.89563 12.3887L7.04438 10.2637L10.9756 6.70437C11.1562 6.55562 10.9756 6.47062 10.7206 6.61937L5.89688 9.64749L3.77187 8.98874C3.315 8.85062 3.30437 8.53187 3.8675 8.31937L12.0594 5.13187C12.4631 5.015 12.8031 5.24874 12.6756 5.82249Z" fill="#229ED9"/>
</svg>
