<svg width="17" height="17" viewBox="0 0 17 17" fill="none" xmlns="http://www.w3.org/2000/svg">
<g clip-path="url(#clip0_4301_4890)">
<path d="M15.3983 11.6263C15.2799 12.5261 14.838 13.3521 14.1551 13.9499C13.4722 14.5477 12.5951 14.8765 11.6875 14.8749C6.41485 14.8749 2.12501 10.585 2.12501 5.31237C2.12338 4.40479 2.45218 3.52765 3.05 2.84477C3.64782 2.1619 4.47378 1.71999 5.3736 1.60158C5.60114 1.5738 5.83157 1.62035 6.03048 1.73429C6.22939 1.84823 6.38612 2.02344 6.47727 2.23377L7.87977 5.36483V5.3728C7.94956 5.5338 7.97838 5.70958 7.96366 5.88444C7.94894 6.0593 7.89115 6.22779 7.79544 6.37487C7.78348 6.3928 7.77087 6.4094 7.75758 6.426L6.37501 8.0649C6.87239 9.07561 7.92958 10.1235 8.95356 10.6222L10.5699 9.24694C10.5858 9.23359 10.6024 9.22118 10.6197 9.20975C10.7666 9.11173 10.9357 9.05191 11.1116 9.03567C11.2875 9.01944 11.4647 9.04732 11.6271 9.11678L11.6357 9.12076L14.7641 10.5226C14.9748 10.6134 15.1505 10.77 15.2648 10.969C15.3791 11.1679 15.4259 11.3985 15.3983 11.6263Z" fill="#9098B4"/>
</g>
<defs>
<clipPath id="clip0_4301_4890">
<rect width="17" height="17" fill="white"/>
</clipPath>
</defs>
</svg>
