<svg width="20" height="20" viewBox="0 0 20 20" fill="none" xmlns="http://www.w3.org/2000/svg">
<rect width="20" height="20" rx="5" fill="#F1BA36"/>
<path d="M6.22588 13.8962C5.99684 13.635 5.97622 13.4083 6.16404 13.2159L6.82368 12.5356C7.01607 12.3341 7.26802 12.373 7.57952 12.6525C7.7994 12.8494 8.08112 13.0464 8.42468 13.2434C8.76824 13.4404 9.22175 13.5389 9.78519 13.5389C10.3211 13.5389 10.793 13.4404 11.2007 13.2434C11.6129 13.0464 11.8191 12.6593 11.8191 12.0821C11.8191 11.505 11.6473 11.1064 11.3037 10.8865C10.9648 10.6667 10.5135 10.5567 9.9501 10.5567H8.80947C8.46591 10.5567 8.29413 10.4124 8.29413 10.1238V9.38174C8.29413 9.08399 8.46591 8.93511 8.80947 8.93511H9.66151C10.4357 8.93511 10.9487 8.81372 11.2007 8.57093C11.4526 8.32815 11.5786 8.01436 11.5786 7.62957C11.5786 7.23104 11.4343 6.93787 11.1457 6.75005C10.8617 6.55766 10.4082 6.46146 9.78519 6.46146C9.3042 6.46146 8.88276 6.53704 8.52088 6.68821C8.16357 6.8348 7.89559 6.99055 7.71694 7.15546C7.41919 7.42573 7.16495 7.44634 6.95423 7.2173L6.38392 6.59201C6.16862 6.35839 6.1984 6.12935 6.47325 5.90489C6.96339 5.50177 7.47874 5.22463 8.01928 5.07347C8.5644 4.91772 9.17594 4.83984 9.8539 4.83984C11.0907 4.83984 12.0252 5.07805 12.6574 5.55445C13.2941 6.03086 13.6125 6.65385 13.6125 7.42343C13.6125 8.08308 13.4338 8.58926 13.0765 8.94198C12.7238 9.29013 12.2886 9.52833 11.771 9.65659V9.68408C12.3436 9.74363 12.8521 10.0002 13.2964 10.4537C13.7407 10.9072 13.9629 11.4889 13.9629 12.199C13.9629 13.1243 13.5919 13.8503 12.8498 14.3771C12.1123 14.8994 11.0793 15.1605 9.75083 15.1605C8.80718 15.1605 8.06967 15.0505 7.53829 14.8306C7.01149 14.6062 6.57402 14.2947 6.22588 13.8962Z" fill="black"/>
</svg>
